<?xml version="1.0" encoding="UTF-8"?><svg id="Calque_2" xmlns="http://www.w3.org/2000/svg" viewBox="0 0 232.5 120.55"><defs><style>.cls-1{fill:#f8ad96;}.cls-2{fill:#f05a2c;}.cls-3{fill:#ca3028;}</style></defs><g id="Content"><g><g><path class="cls-2" d="M6.7,0C3,0,0,3,0,6.7V113.86c0,3.7,3,6.7,6.7,6.7s6.7-3,6.7-6.7V6.7C13.39,3,10.4,0,6.7,0Z"/><path class="cls-2" d="M34.09,0C30.39,0,27.39,3,27.39,6.7V113.86c0,3.7,3,6.7,6.7,6.7s6.7-3,6.7-6.7V6.7C40.78,3,37.78,0,34.09,0Z"/><path class="cls-2" d="M61.47,0C57.77,0,54.78,3,54.78,6.7V113.86c0,3.7,3,6.7,6.7,6.7s6.7-3,6.7-6.7V6.7C68.17,3,65.17,0,61.47,0Z"/><path class="cls-2" d="M88.86,0C85.16,0,82.16,3,82.16,6.7V113.86c0,3.7,3,6.7,6.7,6.7s6.7-3,6.7-6.7V6.7C95.56,3,92.56,0,88.86,0Z"/><path class="cls-2" d="M116.25,0C112.55,0,109.55,3,109.55,6.7V113.86c0,3.7,3,6.7,6.7,6.7s6.7-3,6.7-6.7V6.7C122.95,3,119.95,0,116.25,0Z"/><path class="cls-2" d="M143.64,0C139.94,0,136.94,3,136.94,6.7V113.86c0,3.7,3,6.7,6.7,6.7s6.7-3,6.7-6.7V6.7C150.34,3,147.34,0,143.64,0Z"/><path class="cls-2" d="M171.03,0C167.33,0,164.33,3,164.33,6.7V113.86c0,3.7,3,6.7,6.7,6.7s6.7-3,6.7-6.7V6.7C177.72,3,174.73,0,171.03,0Z"/><path class="cls-2" d="M198.41,0C194.72,0,191.72,3,191.72,6.7V113.86c0,3.7,3,6.7,6.7,6.7s6.7-3,6.7-6.7V6.7C205.11,3,202.11,0,198.41,0Z"/><path class="cls-2" d="M225.8,0C222.1,0,219.11,3,219.11,6.7V113.86c0,3.7,3,6.7,6.7,6.7s6.7-3,6.7-6.7V6.7C232.5,3,229.5,0,225.8,0Z"/></g><g><circle class="cls-3" cx="225.8" cy="113.86" r="6.7"/><circle class="cls-3" cx="225.8" cy="87.07" r="6.7"/><circle class="cls-3" cx="225.8" cy="60.28" r="6.7"/><circle class="cls-3" cx="225.8" cy="33.49" r="6.7"/><circle class="cls-3" cx="225.8" cy="6.7" r="6.7"/><rect class="cls-3" x="219.11" y="6.7" width="13.39" height="107.16"/></g><g><circle class="cls-1" cx="198.27" cy="113.86" r="6.7"/><circle class="cls-1" cx="198.27" cy="87.07" r="6.7"/><circle class="cls-1" cx="198.27" cy="60.28" r="6.7"/><circle class="cls-1" cx="198.27" cy="33.49" r="6.7"/><circle class="cls-1" cx="198.27" cy="6.7" r="6.7"/><rect class="cls-1" x="191.57" y="6.7" width="13.39" height="107.16"/></g></g></g></svg>