<?xml version="1.0" encoding="UTF-8"?><svg id="Calque_2" xmlns="http://www.w3.org/2000/svg" xmlns:xlink="http://www.w3.org/1999/xlink" viewBox="0 0 322.82 471.94"><defs><style>.cls-1{fill:none;}.cls-2{clip-path:url(#clippath);}.cls-3{fill:#f58d65;}.cls-4{fill:#f0592d;}.cls-5{fill:#ca3028;}</style><clipPath id="clippath"><path class="cls-1" d="M157.93,52.56C45.93,30.07,3.12,15.82,0,0V148.91c.57,11.2,27.05,21.96,71.23,33.31C26.91,193.61,1.21,204.2,0,215.48v151.3c.88,17.5,65.11,33.94,161.27,53.23,100.63,20.19,143.69,33.01,158.87,47.31,0,0,2.15,1.92,2.68,4.62v-147.53c-1.21-11.27-26.91-21.87-71.23-33.26,44.18-11.35,70.67-22.11,71.23-33.31V106.54c-1.91-17.75-64.51-33.81-164.89-53.98Z"/></clipPath></defs><g id="Content"><g><path class="cls-4" d="M157.93,52.56C45.93,30.07,3.12,15.82,0,0V148.91c.57,11.2,27.05,21.96,71.23,33.31C26.91,193.61,1.21,204.2,0,215.48v151.3c.88,17.5,65.11,33.94,161.27,53.23,100.63,20.19,143.69,33.01,158.87,47.31,0,0,2.15,1.92,2.68,4.62v-147.53c-1.21-11.27-26.91-21.87-71.23-33.26,44.18-11.35,70.67-22.11,71.23-33.31V106.54c-1.91-17.75-64.51-33.81-164.89-53.98Z"/><g class="cls-2"><rect class="cls-5" x="-16.72" y="154.99" width="518.22" height="161.96" transform="translate(6.42 478.36) rotate(-90)"/><rect class="cls-3" x="-251.58" y="227.9" width="518.22" height="16.15" transform="translate(-228.44 243.5) rotate(-90)"/></g></g></g></svg>