<?xml version="1.0" encoding="UTF-8"?><svg id="Calque_2" xmlns="http://www.w3.org/2000/svg" viewBox="0 0 788.33 430.15"><defs><style>.cls-1{fill:#f58e67;}.cls-2{fill:#fac3a8;}.cls-3{fill:#f0592d;}.cls-4{fill:#fddfce;}.cls-5{fill:#ca3028;}.cls-6{fill:none;stroke:#d8689e;stroke-linecap:round;stroke-linejoin:round;stroke-width:0px;}</style></defs><g id="Content"><g id="Layer_2"><g><polygon class="cls-1" points="0 65.34 20.32 85.66 41.92 64.05 62.88 64.05 62.88 76.89 84.05 98.06 72.72 109.4 72.72 153.45 132.81 213.55 146.29 213.55 153.45 206.39 127.9 180.83 127.9 156.45 165.96 156.45 212.38 110.04 237.4 110.04 258.68 88.76 234.4 64.48 254.94 43.95 227.99 17 154.42 17 138.38 33.04 35.08 33.04 0 65.34"/><polygon class="cls-2" points="158.48 235.79 179.44 214.83 211.95 214.83 248.52 251.41 268.2 251.41 287.55 270.76 287.55 294.18 254.99 326.74 254.99 348.08 229.3 373.77 218.79 373.77 218.79 403.26 225.1 409.57 225.1 423.79 218.74 430.15 190.56 401.97 190.56 311.08 158.48 277.82 158.48 235.79"/><path class="cls-4" d="M676.26,322.41v41.06l7.7,7.7,13.9-13.9h21.17s24.17,27.38,25.77,25.77c1.6-1.6,43.52-43.52,43.52-43.52v-31.23l-27.38-27.38-17.32,17.32s-36.57,1.07-36.57,0-30.8,24.17-30.8,24.17Z"/><path class="cls-1" d="M247.88,14.01l14.01-14.01h58.07l17.27,17.27v16.63l-15.48,15.48h-25.96l-16.64,16.64-11.59-11.59s1.71-31.87,0-31.87h-14.97l-4.71-8.55Z"/><path class="cls-5" d="M526.04,11.87V112.34h-30.81l-31.23,31.24s-.1-.02-.29-.05c0,0,0,0,0,0l-10.28-10.28h-18.28l-21.06-21.07h-19.9l-17.75,17.75h-25.56v-36.25L415.77,28.77h66.51l16.9-16.9h26.86Z"/><g><polygon class="cls-4" points="432.45 143.77 420.98 155.24 405.93 140.2 363.59 140.2 327.65 173.99 327.65 211.2 362.51 246.06 381.97 226.6 381.97 256.11 397.59 271.72 397.59 312.58 430.21 345.19 430.21 365.61 437.95 373.37 467.96 343.37 467.96 319.42 486.77 300.6 486.77 275.36 519.92 242.21 519.92 214.83 513.44 208.35 501.46 220.33 457.05 175.91 463.67 169.28 438.17 143.77 432.45 143.77"/><path class="cls-3" d="M711.77,81.16h-23.53l10.69-10.69h21.39l17.54,17.54,33.57-33.58-28.44-28.45h-73.57l-14.12-14.11h-129.26V112.34h-30.81l-31.23,31.24s-.1-.02-.29-.05l.24,.24h-25.78l25.51,25.51,38,38,35.29-35.29h21.24v27.23l26.52,26.52,4.92-4.92v-22.46l15.94-15.93,17.43,17.43v42.56l28.24,28.24,7.59-7.59v-28.78l22.61-22.61-16.96-16.95s82.98-77.85,80.42-80.42c-2.57-2.56-33.15-33.15-33.15-33.15Z"/><line class="cls-6" x1="438.17" y1="143.77" x2="463.67" y2="169.28"/></g></g></g></g></svg>