<?xml version="1.0" encoding="UTF-8"?><svg id="Calque_2" xmlns="http://www.w3.org/2000/svg" viewBox="0 0 232.5 200.92"><defs><style>.cls-1{fill:#c93028;}</style></defs><g id="Content"><g><g><circle class="cls-1" cx="6.7" cy="113.86" r="6.7"/><circle class="cls-1" cx="6.7" cy="140.64" r="6.7"/><circle class="cls-1" cx="6.7" cy="167.43" r="6.7"/><circle class="cls-1" cx="6.7" cy="194.22" r="6.7"/><circle class="cls-1" cx="6.7" cy="87.07" r="6.7"/><circle class="cls-1" cx="6.7" cy="60.28" r="6.7"/><circle class="cls-1" cx="6.7" cy="33.49" r="6.7"/><circle class="cls-1" cx="6.7" cy="6.7" r="6.7"/></g><g><circle class="cls-1" cx="34.09" cy="113.86" r="6.7"/><circle class="cls-1" cx="34.09" cy="140.64" r="6.7"/><circle class="cls-1" cx="34.09" cy="167.43" r="6.7"/><circle class="cls-1" cx="34.09" cy="194.22" r="6.7"/><circle class="cls-1" cx="34.09" cy="87.07" r="6.7"/><circle class="cls-1" cx="34.09" cy="60.28" r="6.7"/><circle class="cls-1" cx="34.09" cy="33.49" r="6.7"/><circle class="cls-1" cx="34.09" cy="6.7" r="6.7"/></g><g><circle class="cls-1" cx="61.47" cy="113.86" r="6.7"/><circle class="cls-1" cx="61.47" cy="140.64" r="6.7"/><circle class="cls-1" cx="61.47" cy="167.43" r="6.7"/><circle class="cls-1" cx="61.47" cy="194.22" r="6.7"/><circle class="cls-1" cx="61.47" cy="87.07" r="6.7"/><circle class="cls-1" cx="61.47" cy="60.28" r="6.7"/><circle class="cls-1" cx="61.47" cy="33.49" r="6.7"/><circle class="cls-1" cx="61.47" cy="6.7" r="6.7"/></g><g><circle class="cls-1" cx="88.86" cy="113.86" r="6.7"/><circle class="cls-1" cx="88.86" cy="140.64" r="6.7"/><circle class="cls-1" cx="88.86" cy="167.43" r="6.7"/><circle class="cls-1" cx="88.86" cy="194.22" r="6.7"/><circle class="cls-1" cx="88.86" cy="87.07" r="6.7"/><circle class="cls-1" cx="88.86" cy="60.28" r="6.7"/><circle class="cls-1" cx="88.86" cy="33.49" r="6.7"/><circle class="cls-1" cx="88.86" cy="6.7" r="6.7"/></g><g><circle class="cls-1" cx="116.25" cy="113.86" r="6.7"/><circle class="cls-1" cx="116.25" cy="140.64" r="6.7"/><circle class="cls-1" cx="116.25" cy="167.43" r="6.7"/><circle class="cls-1" cx="116.25" cy="194.22" r="6.7"/><circle class="cls-1" cx="116.25" cy="87.07" r="6.7"/><circle class="cls-1" cx="116.25" cy="60.28" r="6.7"/><circle class="cls-1" cx="116.25" cy="33.49" r="6.7"/><circle class="cls-1" cx="116.25" cy="6.7" r="6.7"/></g><g><circle class="cls-1" cx="143.64" cy="113.86" r="6.7"/><circle class="cls-1" cx="143.64" cy="140.64" r="6.7"/><circle class="cls-1" cx="143.64" cy="167.43" r="6.7"/><circle class="cls-1" cx="143.64" cy="194.22" r="6.7"/><circle class="cls-1" cx="143.64" cy="87.07" r="6.7"/><circle class="cls-1" cx="143.64" cy="60.28" r="6.7"/><circle class="cls-1" cx="143.64" cy="33.49" r="6.7"/><circle class="cls-1" cx="143.64" cy="6.7" r="6.7"/></g><g><circle class="cls-1" cx="171.03" cy="113.86" r="6.7"/><circle class="cls-1" cx="171.03" cy="140.64" r="6.7"/><circle class="cls-1" cx="171.03" cy="167.43" r="6.7"/><circle class="cls-1" cx="171.03" cy="194.22" r="6.7"/><circle class="cls-1" cx="171.03" cy="87.07" r="6.7"/><circle class="cls-1" cx="171.03" cy="60.28" r="6.7"/><circle class="cls-1" cx="171.03" cy="33.49" r="6.7"/><circle class="cls-1" cx="171.03" cy="6.7" r="6.7"/></g><g><circle class="cls-1" cx="198.41" cy="113.86" r="6.7"/><circle class="cls-1" cx="198.41" cy="140.64" r="6.7"/><circle class="cls-1" cx="198.41" cy="167.43" r="6.7"/><circle class="cls-1" cx="198.41" cy="194.22" r="6.7"/><circle class="cls-1" cx="198.41" cy="87.07" r="6.7"/><circle class="cls-1" cx="198.41" cy="60.28" r="6.7"/><circle class="cls-1" cx="198.41" cy="33.49" r="6.7"/><circle class="cls-1" cx="198.41" cy="6.7" r="6.7"/></g><g><circle class="cls-1" cx="225.8" cy="113.86" r="6.7"/><circle class="cls-1" cx="225.8" cy="140.64" r="6.7"/><circle class="cls-1" cx="225.8" cy="167.43" r="6.7"/><circle class="cls-1" cx="225.8" cy="194.22" r="6.7"/><circle class="cls-1" cx="225.8" cy="87.07" r="6.7"/><circle class="cls-1" cx="225.8" cy="60.28" r="6.7"/><circle class="cls-1" cx="225.8" cy="33.49" r="6.7"/><circle class="cls-1" cx="225.8" cy="6.7" r="6.7"/></g></g></g></svg>