<?xml version="1.0" encoding="UTF-8" standalone="no"?>
<!DOCTYPE svg PUBLIC "-//W3C//DTD SVG 1.1//EN" "http://www.w3.org/Graphics/SVG/1.1/DTD/svg11.dtd">
<svg width="100%" height="100%" viewBox="0 0 700 380" version="1.1" xmlns="http://www.w3.org/2000/svg" xmlns:xlink="http://www.w3.org/1999/xlink" xml:space="preserve" xmlns:serif="http://www.serif.com/" style="fill-rule:evenodd;clip-rule:evenodd;stroke-linejoin:round;stroke-miterlimit:2;">
    <g transform="matrix(1.33333,0,0,1.33333,0,0)">
        <g transform="matrix(1.33333,0,0,1.33333,0,0)">
            <g id="Content">
                <g>
                    <g>
                        <g>
                            <path d="M393.71,106.6L393.71,150.54C393.71,151.08 393.69,151.63 393.64,152.17L393.64,108.23C393.68,107.69 393.71,107.15 393.71,106.6" style="fill:rgb(138,52,26);fill-rule:nonzero;"/>
                            <path d="M393.71,106.6C393.71,107.17 393.68,107.73 393.64,108.3C393.59,108.86 393.52,109.43 393.43,109.99C393.4,110.18 393.35,110.37 393.32,110.57C393.24,110.96 393.16,111.36 393.06,111.75C393,111.97 392.94,112.19 392.88,112.41C392.77,112.78 392.66,113.14 392.54,113.5C392.46,113.72 392.38,113.95 392.3,114.17C392.16,114.54 392.01,114.9 391.85,115.27C391.76,115.48 391.67,115.69 391.57,115.9C391.38,116.31 391.17,116.72 390.95,117.13C390.87,117.29 390.79,117.44 390.7,117.6C390.39,118.16 390.05,118.72 389.69,119.28C389.62,119.39 389.54,119.5 389.47,119.61C389.17,120.06 388.86,120.51 388.54,120.95C388.4,121.14 388.24,121.34 388.1,121.53C387.82,121.89 387.54,122.25 387.24,122.61C387.05,122.84 386.85,123.07 386.65,123.31C386.43,123.57 386.2,123.83 385.96,124.09C385.74,124.33 385.51,124.57 385.28,124.81C385.04,125.07 384.79,125.32 384.53,125.58C384.29,125.82 384.05,126.06 383.8,126.3C383.54,126.55 383.27,126.81 383,127.06C382.74,127.3 382.48,127.53 382.22,127.77C381.94,128.02 381.65,128.27 381.36,128.52C381.09,128.75 380.81,128.99 380.52,129.22C380.22,129.47 379.91,129.71 379.6,129.96C379.31,130.19 379.01,130.42 378.71,130.65C378.39,130.89 378.07,131.14 377.74,131.38C377.43,131.61 377.12,131.84 376.8,132.06C376.46,132.3 376.12,132.54 375.78,132.78C375.45,133.01 375.12,133.23 374.79,133.46C374.44,133.7 374.08,133.93 373.71,134.17C373.4,134.37 373.08,134.58 372.76,134.78C372.09,135.2 371.41,135.62 370.72,136.03C370.53,136.15 370.34,136.26 370.15,136.38C369.26,136.9 368.35,137.42 367.42,137.93C367.19,138.06 366.95,138.18 366.72,138.31C366,138.7 365.26,139.09 364.51,139.48C364.19,139.64 363.87,139.81 363.55,139.97C362.81,140.34 362.06,140.71 361.29,141.08C361.01,141.21 360.74,141.35 360.46,141.48C359.42,141.97 358.37,142.46 357.29,142.94C357.11,143.02 356.91,143.1 356.73,143.19C355.82,143.59 354.9,143.99 353.97,144.38C353.61,144.53 353.25,144.68 352.89,144.83C352.07,145.17 351.24,145.51 350.39,145.84C350.04,145.98 349.69,146.12 349.33,146.26C348.15,146.72 346.96,147.17 345.75,147.62C345.73,147.62 345.71,147.63 345.69,147.64C344.58,148.05 343.45,148.45 342.3,148.85C341.92,148.98 341.53,149.11 341.15,149.24C340.36,149.51 339.56,149.78 338.75,150.05C338.29,150.2 337.83,150.35 337.37,150.5C336.61,150.75 335.85,150.99 335.08,151.23C334.6,151.38 334.12,151.53 333.63,151.68C332.84,151.92 332.05,152.16 331.25,152.4C330.78,152.54 330.31,152.68 329.84,152.82C328.94,153.08 328.04,153.34 327.13,153.59C326.74,153.7 326.36,153.81 325.97,153.92C324.67,154.28 323.36,154.63 322.03,154.98C321.82,155.04 321.6,155.09 321.38,155.15C320.26,155.44 319.13,155.73 317.98,156.01C317.51,156.13 317.03,156.24 316.56,156.36C315.66,156.58 314.75,156.8 313.84,157.01C313.31,157.14 312.77,157.26 312.23,157.38C311.35,157.58 310.46,157.78 309.57,157.98C309.02,158.1 308.48,158.22 307.93,158.34C307.01,158.54 306.08,158.74 305.15,158.93C304.63,159.04 304.1,159.15 303.58,159.26C302.49,159.48 301.39,159.7 300.29,159.92C299.92,159.99 299.56,160.07 299.18,160.14C297.7,160.43 296.21,160.71 294.7,160.98C294.34,161.05 293.98,161.11 293.62,161.17C292.47,161.38 291.31,161.58 290.14,161.78C289.59,161.87 289.04,161.96 288.49,162.06C287.49,162.23 286.49,162.39 285.48,162.56C284.88,162.66 284.27,162.75 283.67,162.85C282.69,163 281.7,163.15 280.71,163.3C280.1,163.39 279.49,163.48 278.88,163.57C277.84,163.72 276.79,163.87 275.74,164.02C275.23,164.09 274.72,164.16 274.21,164.23C271.5,164.6 268.75,164.95 265.97,165.28C265.71,165.31 265.45,165.34 265.2,165.37C262.4,165.7 259.56,166.01 256.7,166.3C256.46,166.32 256.22,166.35 255.97,166.38C253.07,166.67 250.15,166.94 247.19,167.18C246.98,167.2 246.76,167.22 246.55,167.24C243.56,167.49 240.53,167.71 237.49,167.92C237.31,167.93 237.13,167.95 236.95,167.96C233.86,168.16 230.75,168.34 227.61,168.5C227.46,168.5 227.31,168.52 227.16,168.52C223.98,168.68 220.77,168.81 217.54,168.91C217.43,168.91 217.33,168.91 217.22,168.92C213.94,169.03 210.63,169.11 207.31,169.16L207.13,169.16C203.74,169.21 200.34,169.24 196.91,169.24C88.13,169.23 0,141.19 0,106.6L0,150.54C0,185.13 88.13,213.17 196.86,213.17C200.29,213.17 203.7,213.14 207.08,213.09L207.26,213.09C210.59,213.04 213.89,212.95 217.17,212.85C217.28,212.85 217.38,212.85 217.49,212.84C220.72,212.73 223.93,212.6 227.11,212.45C227.26,212.45 227.41,212.43 227.56,212.43C230.7,212.27 233.81,212.09 236.9,211.89C237.08,211.88 237.26,211.86 237.44,211.85C240.49,211.65 243.51,211.42 246.5,211.17C246.71,211.15 246.93,211.13 247.14,211.11C250.09,210.86 253.02,210.59 255.92,210.31C256.16,210.29 256.41,210.26 256.65,210.23C259.51,209.94 262.35,209.63 265.15,209.3C265.41,209.27 265.67,209.24 265.92,209.21C268.7,208.88 271.44,208.53 274.16,208.16C274.26,208.15 274.36,208.13 274.46,208.12C274.87,208.06 275.28,208 275.69,207.94C276.74,207.79 277.79,207.65 278.83,207.49C279.44,207.4 280.05,207.31 280.66,207.22C281.65,207.07 282.64,206.92 283.62,206.77C284.23,206.68 284.83,206.58 285.43,206.48C286.44,206.32 287.44,206.15 288.44,205.98C288.99,205.89 289.54,205.8 290.09,205.7C291.26,205.5 292.42,205.29 293.57,205.09C293.93,205.03 294.29,204.96 294.65,204.9C296.15,204.63 297.65,204.34 299.13,204.06C299.5,203.99 299.87,203.91 300.24,203.84C301.34,203.62 302.44,203.4 303.53,203.18C304.06,203.07 304.58,202.96 305.1,202.85C306.03,202.65 306.96,202.46 307.88,202.26C308.43,202.14 308.98,202.02 309.52,201.9C310.41,201.7 311.3,201.5 312.18,201.3C312.72,201.18 313.26,201.05 313.79,200.93C314.7,200.71 315.61,200.5 316.51,200.28C316.98,200.16 317.46,200.05 317.93,199.93C319.07,199.65 320.2,199.36 321.33,199.07C321.54,199.01 321.76,198.96 321.98,198.9C323.31,198.55 324.62,198.2 325.92,197.84C326.31,197.73 326.69,197.62 327.08,197.51C327.99,197.25 328.9,197 329.79,196.74C330.26,196.6 330.73,196.46 331.2,196.32C332,196.08 332.79,195.84 333.58,195.6C334.07,195.45 334.55,195.3 335.03,195.15C335.8,194.91 336.56,194.66 337.32,194.42C337.78,194.27 338.24,194.12 338.7,193.97C339.51,193.7 340.31,193.43 341.1,193.16C341.48,193.03 341.87,192.9 342.25,192.77C343.39,192.37 344.52,191.97 345.64,191.56C345.66,191.56 345.67,191.55 345.69,191.54C346.91,191.09 348.1,190.64 349.27,190.18C349.63,190.04 349.98,189.9 350.33,189.76C351.17,189.43 352,189.09 352.83,188.75C353.19,188.6 353.55,188.45 353.91,188.3C354.85,187.91 355.77,187.51 356.67,187.11C356.86,187.03 357.05,186.95 357.23,186.86C358.31,186.38 359.36,185.89 360.4,185.4C360.68,185.27 360.95,185.13 361.23,185C361.99,184.63 362.75,184.26 363.49,183.89C363.81,183.73 364.13,183.56 364.45,183.4C365.2,183.01 365.94,182.62 366.66,182.23C366.89,182.1 367.13,181.98 367.36,181.85C368.29,181.34 369.2,180.82 370.09,180.3C370.28,180.19 370.47,180.07 370.66,179.95C371.36,179.53 372.04,179.12 372.7,178.7C372.82,178.62 372.96,178.55 373.08,178.47C373.28,178.35 373.46,178.22 373.65,178.09C374.01,177.85 374.37,177.62 374.73,177.38C375.07,177.16 375.4,176.93 375.72,176.7C376.07,176.46 376.41,176.22 376.74,175.98C377.06,175.75 377.37,175.52 377.68,175.3C378.01,175.06 378.33,174.81 378.65,174.57C378.95,174.34 379.25,174.11 379.54,173.88C379.85,173.63 380.16,173.39 380.46,173.14C380.74,172.91 381.02,172.67 381.3,172.44C381.59,172.19 381.88,171.94 382.16,171.69C382.43,171.45 382.69,171.22 382.94,170.98C383.21,170.73 383.48,170.48 383.74,170.22C383.99,169.98 384.23,169.74 384.47,169.5C384.72,169.24 384.97,168.99 385.22,168.73C385.45,168.49 385.67,168.25 385.89,168.01C386.13,167.75 386.35,167.49 386.58,167.23C386.7,167.09 386.84,166.95 386.96,166.8C387.03,166.71 387.1,166.62 387.17,166.53C387.47,166.17 387.75,165.81 388.03,165.45C388.18,165.26 388.33,165.07 388.47,164.87C388.8,164.42 389.11,163.98 389.41,163.53C389.48,163.42 389.56,163.31 389.63,163.2C389.99,162.64 390.33,162.08 390.64,161.52C390.73,161.36 390.8,161.21 390.89,161.05C391.11,160.64 391.32,160.23 391.51,159.82C391.61,159.61 391.69,159.4 391.79,159.19C391.95,158.82 392.1,158.46 392.24,158.09C392.32,157.87 392.4,157.64 392.48,157.42C392.61,157.06 392.72,156.69 392.82,156.33C392.88,156.11 392.95,155.89 393,155.67C393.1,155.28 393.18,154.89 393.26,154.49C393.3,154.3 393.34,154.11 393.37,153.91C393.46,153.35 393.54,152.79 393.58,152.22L393.58,152.15C393.62,151.61 393.65,151.06 393.65,150.52L393.65,106.58L393.71,106.6Z" style="fill:url(#_Linear1);fill-rule:nonzero;"/>
                        </g>
                    </g>
                    <path d="M196.86,43.97C305.57,43.97 393.72,72.01 393.72,106.6C393.72,141.19 305.58,169.23 196.86,169.23C88.14,169.23 0,141.19 0,106.6C0,72.01 88.13,43.97 196.86,43.97Z" style="fill:rgb(220,82,42);fill-rule:nonzero;"/>
                </g>
                <g transform="matrix(0.999271,0,0,0.999271,0,6.00002)">
                    <g>
                        <path d="M153.25,108.7L143.58,0L250.13,0L240.46,108.7L196.74,120.99" style="fill:rgb(213,185,50);fill-rule:nonzero;"/>
                        <path d="M196.97,112.35L232.18,102.66L240.46,9.56L196.97,9.56L196.97,112.35Z" style="fill:rgb(255,217,62);fill-rule:nonzero;"/>
                    </g>
                    <g id="g3886">
                        <path id="path3043" d="M196.88,65L196.88,85.59C209.31,85.18 220.81,85.74 220.59,89.47L221.64,71C221.64,71 221.94,65.86 196.88,64.99" style="fill:url(#_Linear2);fill-rule:nonzero;"/>
                        <path id="path3041" d="M196.88,34.39L196.88,57.85C210.09,58.56 222.25,60.27 222.02,64.47L223.2,43.66C223.2,43.66 223.53,37.85 196.88,34.38" style="fill:url(#_Linear3);fill-rule:nonzero;"/>
                    </g>
                    <g id="g4325">
                        <path id="path3041-7" d="M169.77,28.8L171.01,50.87C171.01,50.87 183.69,53.77 197.13,58.02L197.13,34.62C189.68,32.65 180.64,30.65 169.77,28.8" style="fill:url(#_Linear4);fill-rule:nonzero;"/>
                        <path id="path3043-4" d="M171.39,57.78L172.49,77.36C172.49,77.36 184.47,80.91 197.11,85.72L197.11,65.13C190.14,62.79 181.65,60.3 171.39,57.78" style="fill:url(#_Linear5);fill-rule:nonzero;"/>
                    </g>
                    <g id="g3890">
                        <path id="path3047" d="M224.95,12.7C224.65,17.84 211.15,22.34 196.88,25.77L196.88,50.08C223.28,42.17 223.61,36.31 223.61,36.31L224.95,12.7" style="fill:url(#_Linear6);fill-rule:nonzero;"/>
                        <path id="path3049" d="M223.2,43.68C222.95,48.19 210.26,53.27 196.88,57.47L196.88,78.76C221.72,69.67 222.02,64.49 222.02,64.49L223.2,43.68" style="fill:url(#_Linear7);fill-rule:nonzero;"/>
                        <path id="path3051" d="M221.64,71C221.41,75 209.44,80.49 196.88,85.24L196.88,104.02C220.32,94.06 220.59,89.45 220.59,89.45L221.64,71" style="fill:url(#_Linear8);fill-rule:nonzero;"/>
                    </g>
                    <g id="g4329">
                        <path id="path3047-7" d="M197.11,25.83C182.92,28.02 169.77,28.82 169.77,28.82L171.01,50.89C181.33,50.99 189.96,50.67 197.13,50.08L197.13,25.83L197.11,25.83" style="fill:url(#_Linear9);fill-rule:nonzero;"/>
                        <path id="path3049-7" d="M197.11,57.42C183.8,58.18 171.39,57.79 171.39,57.79L172.49,77.37C182.25,78.28 190.38,78.66 197.11,78.71L197.11,57.42" style="fill:url(#_Linear10);fill-rule:nonzero;"/>
                        <path id="path3051-9" d="M197.11,85.19C184.57,84.82 172.84,83.51 172.84,83.51L173.82,101C183.08,102.54 190.76,103.49 197.12,104.04L197.12,85.19" style="fill:url(#_Linear11);fill-rule:nonzero;"/>
                    </g>
                </g>
            </g>
        </g>
    </g>
    <defs>
        <linearGradient id="_Linear1" x1="0" y1="0" x2="1" y2="0" gradientUnits="userSpaceOnUse" gradientTransform="matrix(393.71,0,0,393.71,0,159.88)"><stop offset="0" style="stop-color:rgb(171,48,40);stop-opacity:1"/><stop offset="1" style="stop-color:rgb(201,48,40);stop-opacity:1"/></linearGradient>
        <linearGradient id="_Linear2" x1="0" y1="0" x2="1" y2="0" gradientUnits="userSpaceOnUse" gradientTransform="matrix(76.8833,-0.243498,0.243498,76.8833,173.249,42.5804)"><stop offset="0" style="stop-color:rgb(100,100,100);stop-opacity:1"/><stop offset="0.47" style="stop-color:rgb(23,23,23);stop-opacity:1"/><stop offset="1" style="stop-color:black;stop-opacity:1"/></linearGradient>
        <linearGradient id="_Linear3" x1="0" y1="0" x2="1" y2="0" gradientUnits="userSpaceOnUse" gradientTransform="matrix(76.8833,-0.243498,0.243498,76.8833,173.249,42.5804)"><stop offset="0" style="stop-color:rgb(100,100,100);stop-opacity:1"/><stop offset="0.47" style="stop-color:rgb(23,23,23);stop-opacity:1"/><stop offset="1" style="stop-color:black;stop-opacity:1"/></linearGradient>
        <linearGradient id="_Linear4" x1="0" y1="0" x2="1" y2="0" gradientUnits="userSpaceOnUse" gradientTransform="matrix(40.5375,0.649322,-0.649322,40.5375,171.58,73.9421)"><stop offset="0" style="stop-color:rgb(75,75,75);stop-opacity:1"/><stop offset="0.44" style="stop-color:rgb(53,53,53);stop-opacity:1"/><stop offset="1" style="stop-color:black;stop-opacity:1"/></linearGradient>
        <linearGradient id="_Linear5" x1="0" y1="0" x2="1" y2="0" gradientUnits="userSpaceOnUse" gradientTransform="matrix(40.5375,0.649322,-0.649322,40.5375,171.58,73.9421)"><stop offset="0" style="stop-color:rgb(75,75,75);stop-opacity:1"/><stop offset="0.44" style="stop-color:rgb(53,53,53);stop-opacity:1"/><stop offset="1" style="stop-color:black;stop-opacity:1"/></linearGradient>
        <linearGradient id="_Linear6" x1="0" y1="0" x2="1" y2="0" gradientUnits="userSpaceOnUse" gradientTransform="matrix(72.385,-1.53558,1.53558,72.385,173.042,32.6506)"><stop offset="0" style="stop-color:rgb(159,0,0);stop-opacity:1"/><stop offset="0.2" style="stop-color:rgb(197,0,0);stop-opacity:1"/><stop offset="0.43" style="stop-color:rgb(236,0,0);stop-opacity:1"/><stop offset="1" style="stop-color:rgb(255,0,0);stop-opacity:1"/></linearGradient>
        <linearGradient id="_Linear7" x1="0" y1="0" x2="1" y2="0" gradientUnits="userSpaceOnUse" gradientTransform="matrix(72.385,-1.53558,1.53558,72.385,173.042,32.6506)"><stop offset="0" style="stop-color:rgb(159,0,0);stop-opacity:1"/><stop offset="0.2" style="stop-color:rgb(197,0,0);stop-opacity:1"/><stop offset="0.43" style="stop-color:rgb(236,0,0);stop-opacity:1"/><stop offset="1" style="stop-color:rgb(255,0,0);stop-opacity:1"/></linearGradient>
        <linearGradient id="_Linear8" x1="0" y1="0" x2="1" y2="0" gradientUnits="userSpaceOnUse" gradientTransform="matrix(72.385,-1.53558,1.53558,72.385,173.042,32.6506)"><stop offset="0" style="stop-color:rgb(159,0,0);stop-opacity:1"/><stop offset="0.2" style="stop-color:rgb(197,0,0);stop-opacity:1"/><stop offset="0.43" style="stop-color:rgb(236,0,0);stop-opacity:1"/><stop offset="1" style="stop-color:rgb(255,0,0);stop-opacity:1"/></linearGradient>
        <linearGradient id="_Linear9" x1="0" y1="0" x2="1" y2="0" gradientUnits="userSpaceOnUse" gradientTransform="matrix(32.7047,-0.162835,0.162835,32.7047,170.174,38.3184)"><stop offset="0" style="stop-color:rgb(120,0,0);stop-opacity:1"/><stop offset="0.46" style="stop-color:rgb(140,0,0);stop-opacity:1"/><stop offset="1" style="stop-color:rgb(191,0,0);stop-opacity:1"/></linearGradient>
        <linearGradient id="_Linear10" x1="0" y1="0" x2="1" y2="0" gradientUnits="userSpaceOnUse" gradientTransform="matrix(32.7047,-0.162835,0.162835,32.7047,170.174,38.3184)"><stop offset="0" style="stop-color:rgb(120,0,0);stop-opacity:1"/><stop offset="0.46" style="stop-color:rgb(140,0,0);stop-opacity:1"/><stop offset="1" style="stop-color:rgb(191,0,0);stop-opacity:1"/></linearGradient>
        <linearGradient id="_Linear11" x1="0" y1="0" x2="1" y2="0" gradientUnits="userSpaceOnUse" gradientTransform="matrix(32.7047,-0.162835,0.162835,32.7047,170.174,38.3184)"><stop offset="0" style="stop-color:rgb(120,0,0);stop-opacity:1"/><stop offset="0.46" style="stop-color:rgb(140,0,0);stop-opacity:1"/><stop offset="1" style="stop-color:rgb(191,0,0);stop-opacity:1"/></linearGradient>
    </defs>
</svg>
