<?xml version="1.0" encoding="UTF-8"?><svg id="Calque_2" xmlns="http://www.w3.org/2000/svg" viewBox="0 0 399.26 399.26"><defs><style>.cls-1{fill:none;stroke:#596a75;stroke-miterlimit:10;stroke-width:3px;}</style></defs><g id="Content"><path class="cls-1" d="M393.05,184.18l-24.57-4.4c-1.94-16.66-6.28-32.58-12.67-47.41l19.05-16.07c2.11-1.78,2.65-4.83,1.26-7.22l-9.83-17.02c-1.38-2.4-4.29-3.46-6.89-2.52l-23.47,8.47c-9.83-13.17-21.53-24.86-34.69-34.69l8.47-23.47c.94-2.6-.12-5.5-2.52-6.89l-17.02-9.83c-2.4-1.38-5.44-.85-7.22,1.26l-16.07,19.05c-14.83-6.39-30.75-10.74-47.41-12.67l-4.4-24.57c-.49-2.72-2.86-4.71-5.62-4.71h-19.65c-2.77,0-5.14,1.98-5.62,4.71l-4.4,24.57c-16.66,1.94-32.58,6.28-47.41,12.67l-16.07-19.05c-1.78-2.12-4.83-2.65-7.22-1.26l-17.02,9.83c-2.4,1.38-3.46,4.29-2.52,6.89l8.47,23.47c-13.17,9.83-24.86,21.53-34.69,34.69l-23.47-8.47c-2.6-.94-5.5,.12-6.89,2.52l-9.83,17.02c-1.38,2.4-.85,5.44,1.26,7.22l19.05,16.07c-6.4,14.83-10.74,30.75-12.67,47.41l-24.57,4.4c-2.72,.49-4.71,2.86-4.71,5.62v19.65c0,2.77,1.98,5.14,4.71,5.62l24.57,4.4c1.94,16.66,6.28,32.58,12.67,47.41l-19.05,16.07c-2.12,1.78-2.65,4.83-1.26,7.22l9.83,17.02c1.38,2.4,4.29,3.46,6.89,2.52l23.47-8.47c9.83,13.17,21.53,24.86,34.69,34.69l-8.47,23.47c-.94,2.6,.12,5.5,2.52,6.89l17.02,9.83c2.4,1.38,5.44,.85,7.22-1.26l16.07-19.05c14.83,6.39,30.75,10.74,47.41,12.67l4.4,24.57c.49,2.72,2.86,4.71,5.62,4.71h19.65c2.77,0,5.14-1.98,5.62-4.71l4.4-24.57c16.66-1.94,32.58-6.28,47.41-12.67l16.07,19.05c1.78,2.11,4.83,2.65,7.22,1.26l17.02-9.83c2.4-1.38,3.46-4.29,2.52-6.89l-8.47-23.47c13.17-9.83,24.86-21.53,34.69-34.69l23.47,8.47c2.6,.94,5.5-.12,6.89-2.52l9.83-17.02c1.38-2.4,.85-5.44-1.26-7.22l-19.05-16.07c6.4-14.83,10.74-30.75,12.67-47.41l24.57-4.4c2.72-.49,4.71-2.86,4.71-5.62v-19.65c0-2.77-1.98-5.14-4.71-5.62Z"/></g></svg>