<?xml version="1.0" encoding="UTF-8"?><svg id="Calque_2" xmlns="http://www.w3.org/2000/svg" viewBox="0 0 232.5 120.55"><defs><style>.cls-1{fill:#f05a2c;}.cls-2{fill:#39545f;}</style></defs><g id="Content"><g><g><circle class="cls-2" cx="225.8" cy="113.86" r="6.7"/><circle class="cls-1" cx="225.8" cy="87.07" r="6.7"/><circle class="cls-1" cx="225.8" cy="60.28" r="6.7"/><circle class="cls-1" cx="225.8" cy="33.49" r="6.7"/><circle class="cls-1" cx="225.8" cy="6.7" r="6.7"/></g><g><circle class="cls-2" cx="201.46" cy="113.86" r="6.7"/><circle class="cls-1" cx="201.46" cy="87.07" r="6.7"/><circle class="cls-1" cx="201.46" cy="60.28" r="6.7"/><circle class="cls-1" cx="201.46" cy="33.49" r="6.7"/><circle class="cls-1" cx="201.46" cy="6.7" r="6.7"/></g><g><circle class="cls-2" cx="177.11" cy="113.86" r="6.7"/><circle class="cls-1" cx="177.11" cy="87.07" r="6.7"/><circle class="cls-1" cx="177.11" cy="60.28" r="6.7"/><circle class="cls-1" cx="177.11" cy="33.49" r="6.7"/><circle class="cls-1" cx="177.11" cy="6.7" r="6.7"/></g><g><circle class="cls-1" cx="152.77" cy="113.86" r="6.7"/><circle class="cls-1" cx="152.77" cy="87.07" r="6.7"/><circle class="cls-1" cx="152.77" cy="60.28" r="6.7"/><circle class="cls-1" cx="152.77" cy="33.49" r="6.7"/><circle class="cls-1" cx="152.77" cy="6.7" r="6.7"/></g><g><circle class="cls-1" cx="128.42" cy="113.86" r="6.7"/><circle class="cls-1" cx="128.42" cy="87.07" r="6.7"/><circle class="cls-1" cx="128.42" cy="60.28" r="6.7"/><circle class="cls-1" cx="128.42" cy="33.49" r="6.7"/><circle class="cls-1" cx="128.42" cy="6.7" r="6.7"/></g><g><circle class="cls-1" cx="104.08" cy="113.86" r="6.7"/><circle class="cls-1" cx="104.08" cy="87.07" r="6.7"/><circle class="cls-1" cx="104.08" cy="60.28" r="6.7"/><circle class="cls-1" cx="104.08" cy="33.49" r="6.7"/><circle class="cls-1" cx="104.08" cy="6.7" r="6.7"/></g><g><circle class="cls-1" cx="79.73" cy="113.86" r="6.7"/><circle class="cls-1" cx="79.73" cy="87.07" r="6.7"/><circle class="cls-1" cx="79.73" cy="60.28" r="6.7"/><circle class="cls-1" cx="79.73" cy="33.49" r="6.7"/><circle class="cls-1" cx="79.73" cy="6.7" r="6.7"/></g><g><circle class="cls-1" cx="55.39" cy="113.86" r="6.7"/><circle class="cls-1" cx="55.39" cy="87.07" r="6.7"/><circle class="cls-1" cx="55.39" cy="60.28" r="6.7"/><circle class="cls-1" cx="55.39" cy="33.49" r="6.7"/><circle class="cls-1" cx="55.39" cy="6.7" r="6.7"/></g><g><circle class="cls-1" cx="31.04" cy="113.86" r="6.7"/><circle class="cls-1" cx="31.04" cy="87.07" r="6.7"/><circle class="cls-1" cx="31.04" cy="60.28" r="6.7"/><circle class="cls-1" cx="31.04" cy="33.49" r="6.7"/><circle class="cls-1" cx="31.04" cy="6.7" r="6.7"/></g><g><circle class="cls-1" cx="6.7" cy="113.86" r="6.7"/><circle class="cls-1" cx="6.7" cy="87.07" r="6.7"/><circle class="cls-1" cx="6.7" cy="60.28" r="6.7"/><circle class="cls-1" cx="6.7" cy="33.49" r="6.7"/><circle class="cls-1" cx="6.7" cy="6.7" r="6.7"/></g></g></g></svg>