<?xml version="1.0" encoding="UTF-8"?><svg id="Calque_2" xmlns="http://www.w3.org/2000/svg" viewBox="0 0 212.48 310.63"><defs><style>.cls-1{fill:#c2c4c7;}.cls-2{fill:#596a75;}</style></defs><g id="Content"><g><path class="cls-2" d="M210.72,164.18c-9.99-9.41-38.34-17.85-104.57-31.14C42.85,120.35,.58,109.53,0,98.01V0C2.06,10.41,30.23,19.79,103.95,34.6c66.07,13.27,107.28,23.85,108.53,35.53,0,0,0,95.23,0,97.1-.35-1.78-1.77-3.04-1.77-3.04"/><path class="cls-2" d="M210.72,307.59c-9.99-9.41-38.34-17.85-104.57-31.14C42.85,263.75,.58,252.93,0,241.41v-98.01c2.06,10.41,30.23,19.79,103.95,34.6,66.07,13.27,107.28,23.85,108.53,35.53,0,0,0,95.23,0,97.1-.35-1.78-1.77-3.04-1.77-3.04"/><path class="cls-1" d="M1.77,235.88c9.99-9.41,38.34-17.85,104.57-31.14,63.29-12.7,105.56-23.52,106.15-35.04V71.7c-2.06,10.41-30.23,19.79-103.95,34.6C42.46,119.57,1.26,130.14,0,141.83,0,141.83,0,237.06,0,238.93c.35-1.78,1.77-3.04,1.77-3.04"/></g></g></svg>