<?xml version="1.0" encoding="UTF-8"?><svg id="Calque_2" xmlns="http://www.w3.org/2000/svg" viewBox="0 0 206.03 206.03"><defs><style>.cls-1{fill:none;stroke:#596a75;stroke-miterlimit:10;stroke-width:3px;}</style></defs><g id="Content"><path class="cls-1" d="M200.8,90.75l-20.18-3.61c-2.05-10.08-6.03-19.46-11.52-27.75l11.72-16.84c1.25-1.8,1.04-4.25-.52-5.8l-11.03-11.03c-1.55-1.55-4-1.77-5.8-.51l-16.84,11.73c-8.29-5.49-17.67-9.46-27.75-11.52l-3.61-20.18c-.39-2.16-2.27-3.74-4.46-3.74h-15.6c-2.2,0-4.08,1.57-4.46,3.74l-3.61,20.18c-10.08,2.05-19.46,6.03-27.75,11.52l-16.84-11.73c-1.8-1.25-4.25-1.04-5.8,.51l-11.03,11.03c-1.55,1.55-1.77,4-.51,5.8l11.72,16.84c-5.49,8.29-9.46,17.67-11.52,27.75l-20.18,3.61c-2.16,.39-3.74,2.27-3.74,4.46v15.6c0,2.2,1.57,4.08,3.74,4.46l20.18,3.61c2.05,10.08,6.03,19.46,11.52,27.75l-11.72,16.84c-1.25,1.8-1.04,4.25,.51,5.8l11.03,11.03c1.55,1.55,4,1.77,5.8,.51l16.84-11.73c8.29,5.49,17.67,9.46,27.75,11.52l3.61,20.18c.39,2.16,2.27,3.74,4.46,3.74h15.6c2.2,0,4.08-1.57,4.46-3.74l3.61-20.18c10.08-2.05,19.46-6.03,27.75-11.52l16.84,11.73c1.8,1.25,4.25,1.04,5.8-.51l11.03-11.03c1.55-1.55,1.77-4,.52-5.8l-11.72-16.84c5.49-8.29,9.46-17.67,11.52-27.75l20.18-3.61c2.16-.39,3.74-2.27,3.74-4.46v-15.6c0-2.2-1.57-4.08-3.74-4.46Z"/></g></svg>