<?xml version="1.0" encoding="UTF-8"?><svg id="Calque_2" xmlns="http://www.w3.org/2000/svg" viewBox="0 0 364.8 364.8"><defs><style>.cls-1{fill:#f8ad96;}.cls-2{fill:#f0592b;}.cls-3{fill:#cc3028;}</style></defs><g id="Content"><g><path class="cls-2" d="M274.08,196.02c-6.59,44.73-45.12,79.06-91.68,79.06-51.19,0-92.68-41.49-92.68-92.68s41.05-92.23,91.86-92.67V.01C81.22,.45,0,81.94,0,182.4s81.66,182.4,182.4,182.4c94.68,0,172.51-72.15,181.52-164.47l-89.84-4.32Z"/><path class="cls-1" d="M275.08,182.4c0,4.63-.34,9.17-1,13.62l89.84,4.32c.58-5.9,.88-11.88,.88-17.94,0-42.24-14.36-81.12-38.46-112.03l-68.88,57.67c11.08,15.27,17.62,34.05,17.62,54.36Z"/><path class="cls-3" d="M182.4,89.72c30.88,0,58.22,15.1,75.06,38.32l68.88-57.67C292.97,27.55,240.9,0,182.4,0c-.27,0-.55,0-.82,.01V89.73c.27,0,.55-.01,.82-.01Z"/></g></g></svg>