<?xml version="1.0" encoding="UTF-8"?><svg id="Calque_2" xmlns="http://www.w3.org/2000/svg" viewBox="0 0 323.24 511.47"><defs><style>.cls-1{fill:#f58d65;}.cls-2{fill:#f0592d;}.cls-3{fill:#ca3028;}</style></defs><g id="Content"><g><g><circle class="cls-3" cx="29.19" cy="73.36" r="13.33" transform="translate(-43.33 42.13) rotate(-45)"/><path class="cls-3" d="M9.08,92.09H49.3c5.01,0,9.08,4.07,9.08,9.08v49.05H0v-49.05C0,96.16,4.07,92.09,9.08,92.09Z"/><path class="cls-3" d="M11.76,124.9H46.63v92.34c0,1.7-1.38,3.07-3.07,3.07H14.83c-1.7,0-3.07-1.38-3.07-3.07V124.9h0Z"/><ellipse class="cls-3" cx="11.76" cy="150.22" rx="11.76" ry="10.42"/><ellipse class="cls-3" cx="46.63" cy="150.22" rx="11.76" ry="10.42"/></g><g><circle class="cls-1" cx="117.48" cy="13.33" r="13.33" transform="translate(24.98 86.97) rotate(-45)"/><path class="cls-1" d="M146.67,90.18h-58.38V41.13c0-5.01,4.06-9.08,9.08-9.08h40.22c5.01,0,9.08,4.06,9.08,9.08v49.05Z"/><path class="cls-1" d="M131.84,160.28h-28.72c-1.7,0-3.07-1.38-3.07-3.07V64.87h34.87v92.34c0,1.7-1.38,3.07-3.07,3.07Z"/><ellipse class="cls-1" cx="100.04" cy="90.18" rx="11.76" ry="10.42"/><ellipse class="cls-1" cx="134.91" cy="90.18" rx="11.76" ry="10.42"/></g><g><circle class="cls-2" cx="205.77" cy="13.33" r="13.33" transform="translate(50.84 149.4) rotate(-45)"/><path class="cls-2" d="M185.65,32.06h40.22c5.01,0,9.08,4.07,9.08,9.08v49.05h-58.38V41.13c0-5.01,4.07-9.08,9.08-9.08Z"/><path class="cls-2" d="M188.33,64.87h34.87v92.34c0,1.7-1.38,3.07-3.07,3.07h-28.72c-1.7,0-3.07-1.38-3.07-3.07V64.87h0Z"/><ellipse class="cls-2" cx="188.33" cy="90.18" rx="11.76" ry="10.42"/><ellipse class="cls-2" cx="223.2" cy="90.18" rx="11.76" ry="10.42"/></g><g><circle class="cls-3" cx="29.19" cy="304.49" r="13.33" transform="translate(-206.76 109.83) rotate(-45)"/><path class="cls-3" d="M9.08,323.22H49.3c5.01,0,9.08,4.07,9.08,9.08v49.05H0v-49.05C0,327.29,4.07,323.22,9.08,323.22Z"/><path class="cls-3" d="M11.76,356.03H46.63v92.34c0,1.7-1.38,3.07-3.07,3.07H14.83c-1.7,0-3.07-1.38-3.07-3.07v-92.34h0Z"/><ellipse class="cls-3" cx="11.76" cy="381.35" rx="11.76" ry="10.42"/><ellipse class="cls-3" cx="46.63" cy="381.35" rx="11.76" ry="10.42"/></g><g><circle class="cls-2" cx="294.05" cy="73.36" r="13.33" transform="translate(34.25 229.41) rotate(-45)"/><path class="cls-2" d="M273.94,92.09h40.22c5.01,0,9.08,4.07,9.08,9.08v49.05h-58.38v-49.05c0-5.01,4.07-9.08,9.08-9.08Z"/><path class="cls-2" d="M276.62,124.9h34.87v92.34c0,1.7-1.38,3.07-3.07,3.07h-28.72c-1.7,0-3.07-1.38-3.07-3.07V124.9h0Z"/><ellipse class="cls-2" cx="276.62" cy="150.22" rx="11.76" ry="10.42"/><ellipse class="cls-2" cx="311.49" cy="150.22" rx="11.76" ry="10.42"/></g><g><circle class="cls-3" cx="294.05" cy="304.49" r="13.33" transform="translate(-129.18 297.11) rotate(-45)"/><path class="cls-3" d="M273.94,323.22h40.22c5.01,0,9.08,4.07,9.08,9.08v49.05h-58.38v-49.05c0-5.01,4.07-9.08,9.08-9.08Z"/><path class="cls-3" d="M276.62,356.03h34.87v92.34c0,1.7-1.38,3.07-3.07,3.07h-28.72c-1.7,0-3.07-1.38-3.07-3.07v-92.34h0Z"/><ellipse class="cls-3" cx="276.62" cy="381.35" rx="11.76" ry="10.42"/><ellipse class="cls-3" cx="311.49" cy="381.35" rx="11.76" ry="10.42"/></g><g><circle class="cls-3" cx="117.48" cy="364.53" r="13.33" transform="translate(-223.35 189.84) rotate(-45)"/><path class="cls-3" d="M97.37,383.25h40.22c5.01,0,9.08,4.07,9.08,9.08v49.05h-58.38v-49.05c0-5.01,4.07-9.08,9.08-9.08Z"/><path class="cls-3" d="M100.04,416.07h34.87v92.34c0,1.7-1.38,3.07-3.07,3.07h-28.72c-1.7,0-3.07-1.38-3.07-3.07v-92.34h0Z"/><ellipse class="cls-3" cx="100.04" cy="441.38" rx="11.76" ry="10.42"/><ellipse class="cls-3" cx="134.91" cy="441.38" rx="11.76" ry="10.42"/></g><g><circle class="cls-2" cx="88.29" cy="190.06" r="13.33" transform="translate(-108.54 118.1) rotate(-45)"/><path class="cls-2" d="M68.17,208.79h40.22c5.01,0,9.08,4.07,9.08,9.08v49.05H59.1v-49.05c0-5.01,4.07-9.08,9.08-9.08Z"/><path class="cls-2" d="M70.85,241.6h34.87v92.34c0,1.7-1.38,3.07-3.07,3.07h-28.72c-1.7,0-3.07-1.38-3.07-3.07v-92.34h0Z"/><ellipse class="cls-2" cx="70.85" cy="266.92" rx="11.76" ry="10.42"/><ellipse class="cls-2" cx="105.72" cy="266.92" rx="11.76" ry="10.42"/></g><g><circle class="cls-3" cx="232.41" cy="190.06" r="13.33" transform="translate(-66.32 220.01) rotate(-45)"/><path class="cls-3" d="M212.3,208.79h40.22c5.01,0,9.08,4.07,9.08,9.08v49.05h-58.38v-49.05c0-5.01,4.07-9.08,9.08-9.08Z"/><path class="cls-3" d="M214.98,241.6h34.87v92.34c0,1.7-1.38,3.07-3.07,3.07h-28.72c-1.7,0-3.07-1.38-3.07-3.07v-92.34h0Z"/><ellipse class="cls-3" cx="214.98" cy="266.92" rx="11.76" ry="10.42"/><ellipse class="cls-3" cx="249.85" cy="266.92" rx="11.76" ry="10.42"/></g><g><circle class="cls-3" cx="205.77" cy="364.53" r="13.33" transform="translate(-197.49 252.27) rotate(-45)"/><path class="cls-3" d="M185.65,383.25h40.22c5.01,0,9.08,4.07,9.08,9.08v49.05h-58.38v-49.05c0-5.01,4.07-9.08,9.08-9.08Z"/><path class="cls-3" d="M188.33,416.07h34.87v92.34c0,1.7-1.38,3.07-3.07,3.07h-28.72c-1.7,0-3.07-1.38-3.07-3.07v-92.34h0Z"/><ellipse class="cls-3" cx="188.33" cy="441.38" rx="11.76" ry="10.42"/><ellipse class="cls-3" cx="223.2" cy="441.38" rx="11.76" ry="10.42"/></g></g></g></svg>