<?xml version="1.0" encoding="UTF-8"?><svg id="Calque_2" xmlns="http://www.w3.org/2000/svg" viewBox="0 0 127.27 127.43"><defs><style>.cls-1{stroke-linecap:round;}.cls-1,.cls-2{stroke:#596a75;stroke-width:6px;}.cls-1,.cls-2,.cls-3{fill:none;stroke-miterlimit:10;}.cls-4{fill:#c2c4c7;}.cls-5{fill:#0d2c34;}.cls-6{fill:#596a75;}.cls-3{stroke:#c2c4c7;stroke-width:7px;}</style></defs><g id="Content"><g><rect class="cls-6" x="18.72" y="18.96" width="65.71" height="108.3"/><rect class="cls-4" y="68.68" width="41.63" height="58.59"/><rect class="cls-4" x="67.92" y="44.55" width="59.34" height="82.71"/><g><line class="cls-2" x1="6.47" y1="80" x2="35.16" y2="80"/><line class="cls-2" x1="6.47" y1="91.98" x2="35.16" y2="91.98"/><line class="cls-2" x1="6.47" y1="103.97" x2="35.16" y2="103.97"/><line class="cls-2" x1="6.47" y1="115.95" x2="35.16" y2="115.95"/></g><g><line class="cls-1" x1="78.91" y1="56.89" x2="78.91" y2="124.43"/><line class="cls-1" x1="91.37" y1="56.89" x2="91.37" y2="124.43"/><line class="cls-1" x1="103.82" y1="56.89" x2="103.82" y2="124.43"/><line class="cls-1" x1="116.28" y1="56.89" x2="116.28" y2="124.43"/></g><g><line class="cls-3" x1="14.96" y1="68.68" x2="14.96" y2="127.27"/><line class="cls-3" x1="26.67" y1="68.68" x2="26.67" y2="127.27"/></g><polygon class="cls-5" points="67.92 127.27 41.63 127.27 41.63 68.68 67.92 127.27"/><rect class="cls-6" x="18.72" width="65.71" height="10.97" rx="4.1" ry="4.1"/></g></g></svg>