<?xml version="1.0" encoding="UTF-8"?><svg id="Calque_2" xmlns="http://www.w3.org/2000/svg" viewBox="0 0 127.76 56.85"><defs><style>.cls-1{fill:#86969a;}</style></defs><g id="Content"><g><path class="cls-1" d="M5.04,55.41c.75,0,1.49-.12,2.24-.34,.74-.22,1.46-.54,2.13-.96,.38-.23,.7-.48,.98-.76,.28-.27,.48-.58,.6-.9,.13-.33,.17-.68,.12-1.05-.04-.37-.2-.77-.47-1.21-.23-.37-.5-.62-.81-.74-.31-.12-.66-.17-1.03-.15-.38,.02-.78,.09-1.21,.21-.43,.12-.87,.24-1.33,.36-.5,.14-1,.25-1.52,.35-.52,.1-1.02,.13-1.52,.08-.49-.05-.96-.19-1.4-.44-.44-.24-.83-.64-1.18-1.2-.36-.58-.57-1.13-.63-1.66-.06-.53,0-1.03,.17-1.51,.17-.48,.45-.92,.83-1.32,.38-.41,.83-.77,1.35-1.09,.61-.38,1.24-.7,1.89-.96,.65-.26,1.31-.42,1.98-.47l.27,1.43c-.6,.04-1.18,.17-1.73,.37-.55,.2-1.08,.45-1.57,.76-.36,.22-.68,.47-.94,.72-.26,.26-.46,.54-.59,.84-.13,.3-.18,.62-.15,.96,.03,.34,.17,.71,.41,1.09,.22,.35,.47,.6,.75,.74,.28,.14,.6,.21,.94,.23,.35,.01,.72-.03,1.11-.12,.4-.1,.81-.2,1.24-.31,.51-.13,1.05-.26,1.6-.39,.55-.13,1.09-.19,1.62-.17,.53,.02,1.03,.14,1.52,.38,.48,.23,.9,.64,1.26,1.22,.37,.59,.59,1.16,.67,1.71,.08,.55,.04,1.08-.13,1.57-.17,.5-.46,.97-.86,1.4-.4,.44-.9,.84-1.49,1.21-.83,.51-1.66,.9-2.5,1.17-.84,.27-1.64,.4-2.42,.39l-.23-1.43Z"/><path class="cls-1" d="M23.83,46.26c-.3,.6-.72,1.12-1.25,1.55-.53,.43-1.11,.82-1.74,1.18-.7,.39-1.39,.66-2.09,.79-.7,.13-1.4,.07-2.1-.17-.7-.24-1.39-.7-2.08-1.37-.69-.67-1.38-1.62-2.07-2.84-.69-1.22-1.15-2.3-1.37-3.23-.23-.94-.26-1.77-.11-2.49,.15-.72,.46-1.35,.93-1.88,.47-.53,1.05-1,1.75-1.39,.63-.35,1.26-.65,1.9-.88,.64-.23,1.3-.33,1.97-.28l.1,1.44c-.59-.02-1.15,.06-1.69,.23-.53,.17-1.04,.39-1.53,.67-.53,.3-.98,.64-1.34,1.01-.36,.37-.58,.83-.67,1.37-.09,.54-.03,1.19,.18,1.94,.21,.75,.62,1.66,1.22,2.73,.61,1.07,1.18,1.89,1.71,2.45,.54,.57,1.06,.95,1.57,1.15,.51,.2,1.02,.24,1.52,.13,.5-.12,1.02-.32,1.55-.63,.49-.28,.94-.6,1.36-.97,.42-.37,.77-.81,1.06-1.33l1.18,.83Z"/><path class="cls-1" d="M31.14,39.51l-4.84,2.49,.61,3.37-1.48,.76-2.27-14.49,1.3-.87,10.55,10.31-1.4,.95-2.49-2.52Zm-6.47-6.61l1.39,7.72,4.11-2.12-5.5-5.61Z"/><path class="cls-1" d="M37.02,40.25l-5.92-12.68,1.39-.65,5.33,11.42,6.12-2.86,.59,1.27-7.52,3.51Z"/><path class="cls-1" d="M52.04,29.97l-5.01,2.11,.35,3.41-1.53,.64-1.14-14.62,1.37-.77,9.73,11.1-1.47,.84-2.29-2.7Zm-5.94-7.09l.79,7.8,4.26-1.79-5.05-6.01Z"/><path class="cls-1" d="M70.43,25.86c-.4,.54-.9,.98-1.5,1.31-.6,.33-1.23,.62-1.91,.86-.75,.27-1.49,.41-2.2,.41-.71,0-1.39-.17-2.04-.53s-1.25-.93-1.81-1.71c-.56-.78-1.08-1.83-1.55-3.15-.47-1.32-.74-2.46-.79-3.42-.06-.96,.04-1.79,.32-2.47s.69-1.25,1.24-1.7c.56-.45,1.21-.8,1.96-1.07,.68-.24,1.35-.42,2.03-.54,.67-.12,1.33-.1,1.99,.07l-.15,1.43c-.58-.12-1.15-.14-1.7-.06-.55,.08-1.09,.21-1.62,.4-.58,.21-1.07,.46-1.49,.77-.42,.3-.71,.72-.9,1.23-.18,.52-.24,1.17-.16,1.95,.08,.78,.33,1.75,.74,2.9,.41,1.16,.83,2.06,1.27,2.71,.43,.65,.88,1.12,1.35,1.41,.47,.29,.96,.41,1.48,.39,.51-.03,1.06-.14,1.64-.35,.53-.19,1.03-.43,1.51-.72,.48-.29,.9-.66,1.28-1.12l1.02,1.02Z"/><path class="cls-1" d="M72.99,25.72l-4.2-13.36,7.71-2.42,.42,1.34-6.24,1.96,1.33,4.24,5.11-1.61,.29,1.38-4.98,1.56,1.61,5.11,6.24-1.96,.42,1.34-7.71,2.42Z"/><path class="cls-1" d="M91.48,20.32l-9.68-9.43,3.02,11.22-1.35,.36-3.58-13.31,1.55-.77,9.63,9.38-2.97-11.05,1.35-.36,3.64,13.52-1.6,.43Z"/><path class="cls-1" d="M99.5,18.4l-2.76-12.29-4,.9-.31-1.37,9.5-2.13,.31,1.37-4,.9,2.76,12.29-1.5,.34Z"/><path class="cls-1" d="M107.5,16.67l-2.53-13.77,7.95-1.46,.25,1.38-6.43,1.18,.8,4.37,5.27-.97,.12,1.4-5.13,.94,.97,5.27,6.43-1.18,.25,1.38-7.95,1.46Z"/><path class="cls-1" d="M122.49,8.96l-3.44,.5,.73,5.07-1.52,.22-1.96-13.64c.57-.23,1.18-.43,1.81-.6s1.27-.3,1.9-.39c.75-.11,1.47-.13,2.15-.08s1.29,.23,1.82,.53c.53,.29,.98,.72,1.35,1.28,.36,.56,.61,1.3,.74,2.21,.08,.58,.09,1.1,.01,1.55-.08,.46-.22,.86-.42,1.21-.21,.35-.46,.66-.78,.91-.31,.25-.66,.46-1.04,.62l3.93,4.83-1.57,.61-3.7-4.82Zm-.5-1.34c.88-.13,1.56-.48,2.03-1.06,.47-.58,.63-1.36,.49-2.35-.09-.62-.26-1.13-.5-1.52-.25-.4-.55-.7-.92-.9-.37-.2-.79-.32-1.26-.36-.48-.04-.99-.02-1.55,.06-.38,.06-.77,.14-1.16,.25-.39,.11-.77,.24-1.14,.39l.86,5.96,3.15-.45Z"/></g></g></svg>