<?xml version="1.0" encoding="UTF-8"?><svg id="Calque_2" xmlns="http://www.w3.org/2000/svg" viewBox="0 0 191.66 55.71"><defs><style>.cls-1{fill:#c2c4c7;}</style></defs><g id="Content"><g><path id="polygon8" class="cls-1" d="M0,22.71H12.01V10.31h28.28V0H0V22.71Z"/><path id="polygon10" class="cls-1" d="M0,55.71H40.29v-10.3H12.01v-12.4H0v22.7Z"/><path id="rect12" class="cls-1" d="M12.01,22.71h25.86v10.3H12.01v-10.3Z"/><path id="path14" class="cls-1" d="M90.38,5.13c-1.71-1.64-3.74-2.9-5.97-3.71C81.54,.41,78.51-.07,75.48,0h-24.89V55.71h12.01v-22.7h12.87c3.02,.07,6.04-.4,8.89-1.41,2.24-.8,4.29-2.06,6.01-3.71,1.5-1.48,2.64-3.28,3.35-5.25,1.4-3.95,1.4-8.26,0-12.21-.71-1.99-1.85-3.8-3.35-5.3Zm-8.41,14.57c-.62,.82-1.43,1.48-2.38,1.89-1.09,.47-2.25,.77-3.44,.89-1.35,.16-2.7,.24-4.06,.23h-9.5V10.31h9.51c1.36,0,2.71,.07,4.06,.23,1.19,.12,2.34,.43,3.44,.9,.94,.41,1.75,1.06,2.36,1.88,.63,.93,.95,2.03,.9,3.15,.06,1.14-.26,2.27-.9,3.22Z"/><path id="polygon16" class="cls-1" d="M163.38,45.41V0h-12.01V55.71h40.29v-10.3h-28.28Z"/><path id="polygon18" class="cls-1" d="M102.38,22.71h12.01V10.31h28.28V0h-40.29V22.71Z"/><path id="rect20" class="cls-1" d="M102.38,33.01h12.01v22.7h-12.01v-22.7Z"/><path id="rect22" class="cls-1" d="M114.39,22.71h25.86v10.3h-25.86v-10.3Z"/></g></g></svg>