<?xml version="1.0" encoding="UTF-8"?><svg id="Calque_2" xmlns="http://www.w3.org/2000/svg" viewBox="0 0 298.9 298.9"><defs><style>.cls-1{fill:none;stroke:#596a75;stroke-miterlimit:10;stroke-width:3px;}</style></defs><g id="Content"><path class="cls-1" d="M292.36,129.08l-20.86-2.63c-1.98-10.57-5.28-20.64-9.73-30.04l15.33-14.36c1.69-1.58,2-4.15,.74-6.09l-8.95-13.8c-1.26-1.94-3.73-2.7-5.87-1.8l-19.38,8.16c-6.89-8.01-14.77-15.11-23.45-21.13l6.11-20.13c.67-2.22-.34-4.6-2.4-5.65l-14.65-7.47c-2.06-1.05-4.58-.48-5.98,1.37l-12.69,16.74c-9.82-3.45-20.17-5.69-30.89-6.56l-4.77-20.47c-.53-2.26-2.59-3.81-4.91-3.69l-16.43,.85c-2.31,.12-4.21,1.88-4.5,4.18l-2.63,20.86c-10.57,1.98-20.64,5.28-30.04,9.73l-14.36-15.33c-1.58-1.69-4.15-2-6.09-.74l-13.8,8.95c-1.94,1.26-2.7,3.73-1.81,5.87l8.16,19.38c-8.01,6.89-15.11,14.77-21.13,23.45l-20.13-6.11c-2.22-.67-4.6,.34-5.65,2.4l-7.47,14.65c-1.05,2.06-.47,4.58,1.37,5.98l16.74,12.69c-3.45,9.82-5.69,20.17-6.56,30.89l-20.47,4.77c-2.26,.53-3.81,2.59-3.69,4.9l.85,16.43c.12,2.31,1.88,4.21,4.18,4.5l20.86,2.63c1.98,10.57,5.28,20.64,9.73,30.04l-15.33,14.36c-1.69,1.58-2,4.15-.74,6.09l8.95,13.8c1.26,1.94,3.73,2.7,5.87,1.8l19.38-8.16c6.89,8.01,14.77,15.11,23.45,21.13l-6.11,20.13c-.67,2.22,.34,4.6,2.4,5.65l14.65,7.47c2.06,1.05,4.58,.47,5.98-1.37l12.69-16.74c9.82,3.45,20.17,5.69,30.89,6.56l4.77,20.47c.53,2.26,2.59,3.81,4.91,3.69l16.43-.85c2.31-.12,4.21-1.88,4.5-4.18l2.63-20.86c10.57-1.98,20.64-5.28,30.04-9.73l14.36,15.33c1.58,1.69,4.15,2,6.09,.74l13.8-8.95c1.94-1.26,2.7-3.73,1.81-5.87l-8.16-19.38c8.01-6.89,15.11-14.77,21.13-23.45l20.13,6.11c2.22,.67,4.6-.34,5.65-2.4l7.47-14.65c1.05-2.06,.47-4.58-1.37-5.98l-16.74-12.69c3.45-9.82,5.69-20.17,6.56-30.89l20.47-4.77c2.26-.53,3.81-2.59,3.69-4.9l-.85-16.43c-.12-2.31-1.88-4.21-4.18-4.5Z"/></g></svg>