<?xml version="1.0" encoding="UTF-8"?><svg id="Calque_2" xmlns="http://www.w3.org/2000/svg" viewBox="0 0 302.53 302.53"><defs><style>.cls-1{fill:#f8ad96;}.cls-2{fill:#f0592b;}.cls-3{fill:#cc3028;}</style></defs><g id="Content"><g><path class="cls-2" d="M231.4,170.58c-8.7,36.2-41.26,63.11-80.13,63.11-45.53,0-82.43-36.91-82.43-82.43s36.54-82.05,81.75-82.42V0C67.36,.38,0,67.95,0,151.26s67.72,151.26,151.26,151.26c73.54,0,134.82-52.49,148.43-122.04l-68.3-9.9Z"/><path class="cls-1" d="M231.4,170.58l68.3,9.9c1.29-6.6,2.15-13.35,2.56-20.23l-68.98-.63c-.38,3.74-1.02,7.39-1.88,10.96Z"/><path class="cls-3" d="M151.26,68.83c45.53,0,82.43,36.91,82.43,82.43,0,2.82-.14,5.61-.42,8.36l68.98,.63c.17-2.97,.27-5.97,.27-8.99C302.53,67.72,234.8,0,151.26,0c-.23,0-.45,0-.68,0V68.85c.23,0,.45-.02,.68-.02Z"/></g></g></svg>