<?xml version="1.0" encoding="UTF-8"?><svg id="Calque_2" xmlns="http://www.w3.org/2000/svg" viewBox="0 0 158.66 123.58"><defs><style>.cls-1{fill:#f58d65;}.cls-2{fill:#f05a2d;}.cls-3{fill:#fff;}.cls-4{fill:#b5b8bc;}.cls-5{fill:#aeb9bb;}.cls-6{fill:#5e7278;}</style></defs><g id="Content"><g><g><rect class="cls-5" x="32.99" y="4.78" width="6.09" height="42.83" transform="translate(16.9 -14.04) rotate(28.55)"/><polygon class="cls-5" points="44.24 6.28 48.41 8.54 50.24 2.21 48.46 1.25 44.24 6.28"/><path class="cls-6" d="M48.81,1.44l1.18,.64,.43-1.84c.05-.2-.2-.33-.34-.18l-1.28,1.37Z"/><polygon class="cls-5" points="45.33 4.98 44.24 6.28 48.41 8.54 48.88 6.91 45.33 4.98"/><rect class="cls-5" x="36.76" y="5.46" width="1.08" height="42.83" transform="translate(17.38 -14.56) rotate(28.55)"/><path class="cls-6" d="M35.96,26.34h0c-1.63-.89-2.23-2.93-1.34-4.55l3.96-7.27c.89-1.63,2.93-2.23,4.55-1.34h0c1.63,.89,2.23,2.93,1.34,4.55l-3.96,7.27c-.89,1.63-2.93,2.23-4.55,1.34Z"/></g><g><g><polygon class="cls-5" points="109.62 35.22 114.9 72.12 109.52 72.89 104.24 35.99 105.78 31.45 106.88 31.29 109.62 35.22"/><polygon class="cls-6" points="105.78 31.45 106.4 35.82 104.93 40.78 104.24 35.99 105.78 31.45"/><polygon class="cls-6" points="109.62 35.22 110.31 40.01 107.5 35.66 106.88 31.29 109.62 35.22"/><rect class="cls-5" x="106.08" y="31.35" width="1.11" height="4.42" transform="translate(-3.68 15.44) rotate(-8.14)"/></g><polygon class="cls-5" points="104.24 35.99 105.49 39.57 104.93 40.78 104.24 35.99"/><polygon class="cls-5" points="109.62 35.22 109.43 39 110.31 40.01 109.62 35.22"/><rect class="cls-5" x="107.62" y="46.14" width="5.43" height="26.51" transform="translate(-7.3 16.23) rotate(-8.14)"/><polygon class="cls-5" points="107.65 35.9 108.98 37.96 113.89 72.27 112.88 72.41 107.65 35.9"/></g><g><path class="cls-5" d="M157.21,66.54l1.46-.93-5.27-8.29c-.89-1.41-2.35-2.24-3.88-2.4-1.13-.12-2.31,.13-3.34,.79l-28.71,18.25,1.08,1.7h0l1.08,1.7,.54,.85,27.82-17.69c.48-.3,1.04-.38,1.55-.24v-1.08c.68,.13,1.3,.53,1.7,1.16h0c-.4-.63-1.03-1.03-1.71-1.16v1.08c.47,.12,.89,.41,1.17,.85l4.33,6.81,.73-.46h0l1.46-.93h0Z"/><g><path class="cls-5" d="M149.52,57.06v2.14c-.63-.12-1.31-.01-1.9,.36l-28,17.8-1.08-1.7,28.36-18.03c.06-.04,.13-.08,.19-.12,.02-.01,.04-.02,.07-.04,.03-.02,.06-.03,.09-.05,.03-.01,.06-.03,.09-.04,.04-.02,.09-.04,.13-.06,.02,0,.04-.02,.06-.03,.15-.06,.3-.11,.45-.15,.03,0,.06-.02,.09-.02,.1-.02,.2-.04,.3-.06,.04,0,.07-.01,.11-.02,.07,0,.14-.02,.21-.02,.04,0,.09,0,.13,0,0,0,.02,0,.03,0,.11,0,.22,0,.34,0,.06,0,.11,0,.17,.01,.06,0,.11,.01,.17,.02Z"/><path class="cls-5" d="M149.53,60.28c-.51-.13-1.07-.06-1.55,.24l-27.82,17.69-.54-.85,28-17.8c.59-.37,1.27-.48,1.9-.36v1.08Z"/><path class="cls-5" d="M155.75,67.47l-.73,.46-4.33-6.81c-.28-.44-.7-.73-1.16-.85v-1.08c.68,.13,1.3,.53,1.7,1.16l4.52,7.1Z"/><path class="cls-5" d="M157.21,66.54l-1.46,.93-4.52-7.1c-.4-.63-1.03-1.03-1.71-1.16v-2.14s.06,0,.1,.02c.04,0,.07,.01,.1,.02,.03,0,.06,.01,.09,.02,.01,0,.02,0,.04,0,.06,.01,.12,.03,.18,.04,.18,.05,.36,.11,.54,.19,.03,.01,.06,.03,.09,.04,.03,.02,.07,.03,.1,.05,.05,.03,.1,.05,.15,.08,.06,.03,.11,.06,.16,.1,.03,.02,.05,.03,.08,.05,.05,.03,.11,.07,.16,.11,.03,.02,.05,.04,.08,.06,0,0,0,0,0,0,.03,.02,.05,.04,.07,.06,.03,.02,.05,.04,.07,.06,.02,.02,.05,.04,.07,.06,.08,.07,.16,.15,.23,.23,.02,.02,.04,.05,.07,.07,.04,.04,.08,.09,.12,.13,.02,.02,.04,.04,.05,.07,.02,.03,.04,.05,.06,.08,.02,.03,.04,.05,.06,.08h0c.04,.06,.08,.11,.11,.17l4.89,7.7Z"/></g></g><path class="cls-5" d="M115.3,67.28l6.52-24.02,2.33-4.68,1.95,.6v1.13s3.18,3.94,2.51,7.47c-2.66-.82-3.77-1.04-3.77-1.04,0,0-.57-.06-1.03,1.4s-1.7,5.52-1.7,5.52c0,0-.43,2.18,1.89,2.9s3.73-2.38,2.85-4.04c1.11,.05,2.81,3-2.03,11.41l-2.8,5.42-6.71-2.07Z"/><g><path class="cls-5" d="M14.39,12.89c-1.48-2.79-4.44-4.29-7.4-4.04-1.1,.09-2.15-.46-2.67-1.44l-1.72-3.25L.31,5.37l1.72,3.25c.52,.98,.38,2.16-.31,3.01C-.16,13.94-.59,17.23,.89,20.02c1.21,2.3,3.44,3.72,5.83,4.01,1.37,.17,2.55,1.04,3.09,2.31l8.48,19.25,7.42-3.92L14.58,23.82c-.74-1.16-.8-2.63-.17-3.85,1.11-2.15,1.19-4.78-.03-7.08Z"/><path class="cls-6" d="M12.18,14.05c1.33,2.51,.37,5.62-2.14,6.95-2.51,1.33-5.62,.37-6.95-2.14-1.33-2.51-.37-5.62,2.14-6.95,2.51-1.33,5.62-.37,6.95,2.14Z"/></g><g><rect class="cls-5" x="67.96" y="99.14" width="34.95" height="5.03" transform="translate(-17.28 185.82) rotate(-89.29)"/><g><rect class="cls-5" x="81.47" y="114.53" width="3.13" height="9.28" transform="translate(-59.62 91.84) rotate(-44.29)"/><rect class="cls-5" x="82.75" y="117.66" width="9.28" height="3.13" transform="translate(-58.42 94.89) rotate(-44.28)"/></g><rect class="cls-5" x="67.63" y="100.41" width="33.44" height=".95" transform="translate(-17.58 183.97) rotate(-89.29)"/></g><g><rect class="cls-1" x="9.67" y="52.71" width="120.84" height="27.68" rx="12.93" ry="12.93" transform="translate(22.57 -17.61) rotate(17.04)"/><path class="cls-2" d="M30.22,43.29c-5.54-1.7-11.7-.03-15.31,4.51-1.92,2.41-2.79,5.01-2.98,7.56,.89,4.93,4.44,9.21,9.57,10.78l89.07,27.29c7.31,2.24,15.05-1.87,17.29-9.18h0c.04-.15,.08-.29,.12-.44,.23-1.69,.15-3.36-.21-4.96-1.45-3.89-4.63-7.09-8.91-8.4L30.22,43.29Z"/><g><g><polygon class="cls-3" points="113.66 86.8 113.8 86.59 113.66 86.8 113.66 86.8"/><path class="cls-3" d="M109.56,85.55l3.97,1.22c.08,.02,.18-.04,.31-.24l5-7.59-4.1-1.26-5.19,7.87Z"/></g><g><polygon class="cls-3" points="108.85 75.87 108.71 76.08 108.85 75.87 108.85 75.87"/><path class="cls-3" d="M112.94,77.12l-3.97-1.22c-.08-.02-.18,.04-.31,.24l-5,7.59,4.1,1.26,5.19-7.87Z"/></g><path class="cls-3" d="M112.94,86.58l.43,.13,.15,.05c-.28-.11-.26-1.33-.26-1.33l-.32,1.15Z"/><path class="cls-3" d="M109.57,76.09l-.43-.13-.15-.05c.28,.11,.26,1.33,.26,1.33l.32-1.15Z"/><path class="cls-3" d="M109.16,84.18h0s-.02,1.22,.26,1.33l3.82,1.17,.1-8.19h0s.02-1.22-.26-1.33l-3.82-1.17-.1,8.18Z"/></g><path class="cls-3" d="M12.85,50.61c-.15,.49-.27,.99-.37,1.48l-.73-.22c.07-1.01,.26-2.02,.57-3.02,.31-1,.72-1.94,1.22-2.82l1.39,.42c-.9,1.22-1.61,2.62-2.08,4.15Z"/><path class="cls-4" d="M20.4,48.13l-1.79,5.84-6.13-1.88c.09-.5,.21-.99,.37-1.48,.47-1.54,1.18-2.93,2.08-4.15l5.47,1.68Z"/></g></g></g></svg>