<?xml version="1.0" encoding="UTF-8"?><svg id="Calque_2" xmlns="http://www.w3.org/2000/svg" xmlns:xlink="http://www.w3.org/1999/xlink" viewBox="0 0 89.76 89.76"><defs><style>.cls-1{fill:none;}.cls-2{clip-path:url(#clippath);}.cls-3{fill:#c2c4c7;}.cls-4{fill:#596a75;}</style><clipPath id="clippath"><circle class="cls-1" cx="44.88" cy="44.88" r="44.88"/></clipPath></defs><g id="Content"><g><circle class="cls-3" cx="44.88" cy="44.88" r="44.88"/><circle class="cls-1" cx="44.88" cy="44.88" r="44.88"/><g class="cls-2"><path class="cls-4" d="M44.88,45c7.36,0,13.33-5.97,13.33-13.33s-5.97-13.33-13.33-13.33-13.33,5.97-13.33,13.33,5.97,13.33,13.33,13.33Zm20.11,5.4H24.77c-5.01,0-9.08,4.06-9.08,9.08v49.05c0,5.76,5.26,10.42,11.76,10.42v56.6c0,1.7,1.38,3.07,3.07,3.07h28.72c1.7,0,3.07-1.38,3.07-3.07v-56.6c6.49,0,11.76-4.67,11.76-10.42V59.48c0-5.01-4.06-9.08-9.08-9.08Z"/></g></g></g></svg>