<?xml version="1.0" encoding="UTF-8"?><svg id="Calque_2" xmlns="http://www.w3.org/2000/svg" viewBox="0 0 493.32 493.32"><defs><style>.cls-1{fill:none;stroke:#596a75;stroke-miterlimit:10;stroke-width:3px;}</style></defs><g id="Content"><path class="cls-1" d="M487.11,231.18l-26.39-4.72v.61c-.85-9.37-2.29-18.56-4.3-27.54l.07,.21,23.64-12.65c2.44-1.31,3.6-4.18,2.74-6.82l-6.09-18.73c-.86-2.64-3.48-4.28-6.23-3.9l-26.56,3.66,.04,.13c-3.67-8.48-7.86-16.67-12.55-24.54l.22,.3,18.57-19.33c1.92-2,2.13-5.09,.5-7.33l-11.58-15.93c-1.63-2.24-4.63-3-7.13-1.79l-24.13,11.69,.4,.54c-6.24-7.12-12.95-13.83-20.07-20.07l.54,.4,11.69-24.13c1.21-2.5,.46-5.5-1.79-7.13l-15.93-11.58c-2.24-1.63-5.33-1.42-7.33,.5l-19.33,18.57,.3,.22c-7.87-4.68-16.06-8.88-24.54-12.55l.13,.04,3.66-26.56c.38-2.75-1.26-5.37-3.9-6.23l-18.73-6.09c-2.64-.86-5.51,.3-6.82,2.74l-12.65,23.64,.21,.07c-8.98-2.01-18.18-3.45-27.54-4.3h.61l-4.72-26.39c-.49-2.73-2.86-4.72-5.64-4.72h-19.69c-2.77,0-5.15,1.99-5.64,4.72l-4.72,26.39h.61c-9.37,.85-18.56,2.29-27.54,4.3l.21-.07-12.65-23.64c-1.31-2.44-4.18-3.6-6.82-2.74l-18.73,6.09c-2.64,.86-4.28,3.48-3.9,6.23l3.66,26.56,.13-.04c-8.48,3.67-16.67,7.86-24.54,12.55l.3-.22-19.33-18.57c-2-1.92-5.09-2.13-7.33-.5l-15.93,11.58c-2.24,1.63-3,4.63-1.79,7.13l11.69,24.13,.54-.4c-7.12,6.24-13.83,12.95-20.07,20.07l.4-.54-24.13-11.69c-2.5-1.21-5.5-.46-7.13,1.79l-11.58,15.93c-1.63,2.24-1.42,5.33,.5,7.33l18.57,19.33,.22-.31c-4.68,7.87-8.88,16.06-12.55,24.54l.04-.13-26.56-3.66c-2.75-.38-5.37,1.27-6.23,3.9l-6.09,18.73c-.86,2.64,.3,5.51,2.74,6.82l23.64,12.65,.07-.21c-2.01,8.98-3.45,18.18-4.3,27.54v-.61l-26.39,4.72c-2.73,.49-4.72,2.86-4.72,5.64v19.69c0,2.77,1.99,5.15,4.72,5.64l26.39,4.72v-.61c.85,9.37,2.29,18.56,4.3,27.54l-.07-.21-23.64,12.65c-2.44,1.31-3.6,4.18-2.74,6.82l6.09,18.73c.86,2.64,3.48,4.28,6.23,3.9l26.56-3.66-.04-.13c3.67,8.48,7.86,16.67,12.55,24.54l-.22-.31-18.57,19.33c-1.92,2-2.13,5.09-.5,7.33l11.58,15.93c1.63,2.24,4.63,3,7.13,1.79l24.13-11.69-.4-.54c6.24,7.12,12.95,13.83,20.07,20.07l-.54-.4-11.69,24.13c-1.21,2.5-.46,5.5,1.79,7.13l15.93,11.58c2.24,1.63,5.33,1.42,7.33-.5l19.33-18.57-.31-.22c7.87,4.68,16.06,8.88,24.54,12.55l-.13-.04-3.66,26.56c-.38,2.75,1.26,5.37,3.9,6.23l18.73,6.09c2.64,.86,5.51-.3,6.82-2.74l12.65-23.64-.21-.07c8.98,2.01,18.18,3.45,27.54,4.3h-.61l4.72,26.39c.49,2.73,2.86,4.72,5.64,4.72h19.69c2.77,0,5.15-1.99,5.64-4.72l4.72-26.39h-.61c9.37-.85,18.56-2.29,27.54-4.3l-.21,.07,12.65,23.64c1.31,2.44,4.18,3.6,6.82,2.74l18.73-6.09c2.64-.86,4.28-3.48,3.9-6.23l-3.66-26.56-.13,.04c8.48-3.67,16.67-7.86,24.54-12.55l-.31,.22,19.33,18.57c2,1.92,5.09,2.13,7.33,.5l15.93-11.58c2.24-1.63,3-4.63,1.79-7.13l-11.69-24.13-.54,.4c7.12-6.24,13.83-12.95,20.07-20.07l-.4,.54,24.13,11.69c2.5,1.21,5.5,.46,7.13-1.79l11.58-15.93c1.63-2.24,1.42-5.33-.5-7.33l-18.57-19.33-.22,.3c4.68-7.87,8.88-16.06,12.55-24.54l-.04,.13,26.56,3.66c2.75,.38,5.37-1.27,6.23-3.9l6.09-18.73c.86-2.64-.3-5.51-2.74-6.82l-23.64-12.65-.07,.21c2.01-8.98,3.45-18.18,4.3-27.54v.61l26.39-4.72c2.73-.49,4.72-2.86,4.72-5.64v-19.69c0-2.77-1.99-5.15-4.72-5.64Z"/></g></svg>