<?xml version="1.0" encoding="UTF-8"?><svg id="Calque_2" xmlns="http://www.w3.org/2000/svg" xmlns:xlink="http://www.w3.org/1999/xlink" viewBox="0 0 92.93 135.92"><defs><style>.cls-1{fill:none;}.cls-2{clip-path:url(#clippath);}.cls-3{fill:#f05a2d;}.cls-4{fill:#f0592b;}.cls-5{fill:#aeb9bb;}.cls-6{fill:#638088;}.cls-7{fill:#8aa0a6;stroke:#638088;stroke-miterlimit:10;}</style><clipPath id="clippath"><circle class="cls-1" cx="50.82" cy="51.86" r="42.11" transform="translate(-11.33 89.4) rotate(-76.72)"/></clipPath></defs><g id="Content"><g><path class="cls-4" d="M72.76,103.54h0c-1.11,.47-2.38-.05-2.85-1.15l-4.11-9.69-1.67,.71-.85-2,1.67-.71,4.01-1.7,1.67-.71,.85,2-1.67,.71,4.11,9.69c.47,1.11-.05,2.38-1.15,2.85Z"/><path class="cls-4" d="M38.37,12.31l-1.67,.71-4.01,1.7-1.67,.71-.85-2,1.67-.71L27.73,3.03c-.47-1.11,.05-2.38,1.15-2.85h0c1.11-.47,2.38,.05,2.85,1.15l4.11,9.69,1.67-.71,.85,2Z"/><circle class="cls-6" cx="50.82" cy="51.86" r="42.11" transform="translate(-11.33 89.4) rotate(-76.72)"/><path class="cls-3" d="M84.22,129.56v6.36H17.41v-6.36l1.48-1.04c1.38-.97,2.94-1.64,4.59-1.96l12.55-2.5c3.15-.63,5.67-3,6.49-6.1l4.06-15.45C20.5,100.35,0,78.5,0,51.86,0,27.41,17.27,6.99,40.28,2.13l-.63,5.48C19.85,12.59,5.19,30.51,5.19,51.86c0,25.2,20.43,45.63,45.63,45.63,8.78,0,16.97-2.48,23.93-6.77l4.82,3.06c-7.08,4.87-15.46,7.99-24.52,8.73l4.06,15.45c.82,3.11,3.34,5.48,6.49,6.1l12.55,2.5c1.65,.33,3.21,1,4.59,1.96l1.49,1.04Z"/><rect class="cls-4" x="17.41" y="129.56" width="66.81" height="6.36"/><polygon class="cls-4" points="45.34 107.28 55.75 105.17 55.05 102.5 46.59 102.5 45.34 107.28"/><g class="cls-2"><circle class="cls-5" cx="62.32" cy="33.86" r="42.11" transform="translate(15.05 86.73) rotate(-76.72)"/><g><line class="cls-7" x1="9.72" y1="9.72" x2="55.45" y2="117.19"/><line class="cls-7" x1="27.89" y1="1.99" x2="73.62" y2="109.46"/><line class="cls-7" x1="46.06" y1="-5.74" x2="91.79" y2="101.73"/><line class="cls-7" x1="64.23" y1="-13.48" x2="109.96" y2="94"/><line class="cls-7" x1="17.7" y1="101.98" x2="125.18" y2="56.25"/><line class="cls-7" x1="9.97" y1="83.81" x2="117.45" y2="38.08"/><line class="cls-7" x1="2.24" y1="65.64" x2="109.71" y2="19.91"/><line class="cls-7" x1="-5.49" y1="47.47" x2="101.98" y2="1.74"/></g></g></g></g></svg>