<?xml version="1.0" encoding="UTF-8"?><svg id="Calque_2" xmlns="http://www.w3.org/2000/svg" viewBox="0 0 235.55 235.56"><defs><style>.cls-1{fill:#f8ad96;}.cls-2{fill:#f0592b;}.cls-3{fill:#cc3028;}</style></defs><g id="Content"><g><path class="cls-2" d="M49.14,92.7L7.72,75.76c-.12,.32-.24,.63-.36,.95l41.54,16.6c.07-.2,.15-.4,.23-.6Z"/><path class="cls-2" d="M201.05,34.5c-46-46-120.57-46-166.56,0-.13,.13-.25,.25-.37,.38l31.61,31.61c.12-.13,.24-.26,.37-.38,28.54-28.54,74.81-28.54,103.34,0,28.54,28.54,28.54,74.81,0,103.34-28.54,28.54-74.81,28.54-103.34,0-17.84-17.84-24.53-42.62-20.06-65.65L2.59,93.13c-8.04,37.72,2.59,78.62,31.9,107.93,46,45.99,120.57,45.99,166.56,0,46-46,46-120.57,0-166.56Z"/><path class="cls-1" d="M48.91,93.3L7.36,76.7c-2,5.37-3.59,10.87-4.77,16.43l43.45,10.67c.69-3.55,1.65-7.06,2.87-10.49Z"/><path class="cls-3" d="M65.74,66.49l-31.61-31.61c-11.93,12.03-20.73,26-26.4,40.88l41.42,16.94c3.48-9.55,9.01-18.51,16.6-26.21Z"/></g></g></svg>