<?xml version="1.0" encoding="UTF-8"?><svg id="Calque_2" xmlns="http://www.w3.org/2000/svg" viewBox="0 0 105.64 121.89"><defs><style>.cls-1{fill:#f05a2d;}.cls-2{fill:#aeb9bb;}.cls-3{fill:#5e7278;}</style></defs><g id="Content"><g><g><circle class="cls-2" cx="10.61" cy="4.85" r="4.85" transform="translate(-.32 8.92) rotate(-45)"/><path class="cls-2" d="M9.08,11.65h3.06c5.01,0,9.08,4.07,9.08,9.08v12.05H0v-12.05C0,15.72,4.07,11.65,9.08,11.65Z"/><path class="cls-2" d="M4.27,23.58h12.68v31.61c0,1.7-1.38,3.07-3.07,3.07H7.35c-1.7,0-3.07-1.38-3.07-3.07V23.58h0Z"/><ellipse class="cls-2" cx="4.27" cy="32.78" rx="4.27" ry="3.79"/><ellipse class="cls-2" cx="16.95" cy="32.78" rx="4.27" ry="3.79"/></g><g><circle class="cls-1" cx="38.8" cy="4.85" r="4.85" transform="translate(7.94 28.86) rotate(-45)"/><path class="cls-1" d="M37.27,11.65h3.06c5.01,0,9.08,4.07,9.08,9.08v12.05H28.19v-12.05c0-5.01,4.07-9.08,9.08-9.08Z"/><path class="cls-1" d="M32.46,23.58h12.68v31.61c0,1.7-1.38,3.07-3.07,3.07h-6.53c-1.7,0-3.07-1.38-3.07-3.07V23.58h0Z"/><ellipse class="cls-1" cx="32.46" cy="32.78" rx="4.27" ry="3.79"/><ellipse class="cls-1" cx="45.14" cy="32.78" rx="4.27" ry="3.79"/></g><g><circle class="cls-3" cx="66.99" cy="4.85" r="4.85" transform="translate(16.2 48.79) rotate(-45)"/><path class="cls-3" d="M65.46,11.65h3.06c5.01,0,9.08,4.07,9.08,9.08v12.05h-21.22v-12.05c0-5.01,4.07-9.08,9.08-9.08Z"/><path class="cls-3" d="M60.65,23.58h12.68v31.61c0,1.7-1.38,3.07-3.07,3.07h-6.53c-1.7,0-3.07-1.38-3.07-3.07V23.58h0Z"/><ellipse class="cls-3" cx="60.65" cy="32.78" rx="4.27" ry="3.79"/><ellipse class="cls-3" cx="73.33" cy="32.78" rx="4.27" ry="3.79"/></g><g><circle class="cls-3" cx="10.61" cy="68.47" r="4.85" transform="translate(-45.31 27.56) rotate(-45)"/><path class="cls-3" d="M9.08,75.28h3.06c5.01,0,9.08,4.07,9.08,9.08v12.05H0v-12.05C0,79.35,4.07,75.28,9.08,75.28Z"/><path class="cls-3" d="M4.27,87.21h12.68v31.61c0,1.7-1.38,3.07-3.07,3.07H7.35c-1.7,0-3.07-1.38-3.07-3.07v-31.61h0Z"/><ellipse class="cls-3" cx="4.27" cy="96.41" rx="4.27" ry="3.79"/><ellipse class="cls-3" cx="16.95" cy="96.41" rx="4.27" ry="3.79"/></g><g><circle class="cls-2" cx="95.03" cy="4.85" r="4.85" transform="translate(24.41 68.61) rotate(-45)"/><path class="cls-2" d="M93.49,11.65h3.06c5.01,0,9.08,4.07,9.08,9.08v12.05h-21.22v-12.05c0-5.01,4.07-9.08,9.08-9.08Z"/><path class="cls-2" d="M88.69,23.58h12.68v31.61c0,1.7-1.38,3.07-3.07,3.07h-6.53c-1.7,0-3.07-1.38-3.07-3.07V23.58h0Z"/><ellipse class="cls-2" cx="88.69" cy="32.78" rx="4.27" ry="3.79"/><ellipse class="cls-2" cx="101.36" cy="32.78" rx="4.27" ry="3.79"/></g><g><circle class="cls-3" cx="95.03" cy="68.47" r="4.85" transform="translate(-20.59 87.25) rotate(-45)"/><path class="cls-3" d="M93.49,75.28h3.06c5.01,0,9.08,4.07,9.08,9.08v12.05h-21.22v-12.05c0-5.01,4.07-9.08,9.08-9.08Z"/><path class="cls-3" d="M88.69,87.21h12.68v31.61c0,1.7-1.38,3.07-3.07,3.07h-6.53c-1.7,0-3.07-1.38-3.07-3.07v-31.61h0Z"/><ellipse class="cls-3" cx="88.69" cy="96.41" rx="4.27" ry="3.79"/><ellipse class="cls-3" cx="101.36" cy="96.41" rx="4.27" ry="3.79"/></g><g><circle class="cls-2" cx="38.8" cy="68.47" r="4.85" transform="translate(-37.05 47.49) rotate(-45)"/><path class="cls-2" d="M37.27,75.28h3.06c5.01,0,9.08,4.07,9.08,9.08v12.05H28.19v-12.05c0-5.01,4.07-9.08,9.08-9.08Z"/><path class="cls-2" d="M32.46,87.21h12.68v31.61c0,1.7-1.38,3.07-3.07,3.07h-6.53c-1.7,0-3.07-1.38-3.07-3.07v-31.61h0Z"/><ellipse class="cls-2" cx="32.46" cy="96.41" rx="4.27" ry="3.79"/><ellipse class="cls-2" cx="45.14" cy="96.41" rx="4.27" ry="3.79"/></g><g><circle class="cls-2" cx="66.99" cy="68.47" r="4.85" transform="translate(-28.8 67.43) rotate(-45)"/><path class="cls-2" d="M65.46,75.28h3.06c5.01,0,9.08,4.07,9.08,9.08v12.05h-21.22v-12.05c0-5.01,4.07-9.08,9.08-9.08Z"/><path class="cls-2" d="M60.65,87.21h12.68v31.61c0,1.7-1.38,3.07-3.07,3.07h-6.53c-1.7,0-3.07-1.38-3.07-3.07v-31.61h0Z"/><ellipse class="cls-2" cx="60.65" cy="96.41" rx="4.27" ry="3.79"/><ellipse class="cls-2" cx="73.33" cy="96.41" rx="4.27" ry="3.79"/></g></g></g></svg>