<?xml version="1.0" encoding="UTF-8"?><svg id="Calque_2" xmlns="http://www.w3.org/2000/svg" viewBox="0 0 298.43 298.43"><defs><style>.cls-1{fill:none;stroke:#596a75;stroke-miterlimit:10;stroke-width:3px;}</style></defs><g id="Content"><path class="cls-1" d="M292.99,136.28l-20.69-3.7c-1.43-10.66-4.21-20.89-8.16-30.51l16.06-13.54c1.77-1.49,2.22-4.04,1.06-6.05l-8.22-14.25c-1.16-2.01-3.59-2.89-5.77-2.11l-19.78,7.14c-6.46-8.35-13.97-15.86-22.32-22.32l7.14-19.78c.79-2.18-.1-4.61-2.11-5.76l-14.25-8.22c-2.01-1.16-4.55-.71-6.05,1.06l-13.54,16.06c-9.62-3.95-19.85-6.73-30.51-8.16l-3.7-20.69c-.41-2.28-2.39-3.94-4.71-3.94h-16.45c-2.32,0-4.3,1.66-4.71,3.94l-3.7,20.69c-10.66,1.43-20.88,4.21-30.51,8.16l-13.54-16.06c-1.49-1.77-4.04-2.22-6.05-1.06l-14.25,8.22c-2.01,1.16-2.89,3.59-2.11,5.76l7.14,19.78c-8.35,6.46-15.86,13.97-22.32,22.32l-19.78-7.14c-2.18-.79-4.61,.1-5.76,2.11l-8.22,14.25c-1.16,2.01-.71,4.55,1.06,6.05l16.06,13.54c-3.95,9.62-6.73,19.85-8.16,30.51l-20.69,3.7c-2.28,.41-3.94,2.39-3.94,4.71v16.45c0,2.32,1.66,4.3,3.94,4.71l20.69,3.7c1.43,10.66,4.21,20.88,8.16,30.51l-16.06,13.54c-1.77,1.49-2.22,4.04-1.06,6.05l8.22,14.25c1.16,2.01,3.59,2.89,5.76,2.11l19.78-7.14c6.46,8.35,13.97,15.86,22.32,22.32l-7.14,19.78c-.79,2.18,.1,4.61,2.11,5.76l14.25,8.22c2.01,1.16,4.55,.71,6.05-1.06l13.54-16.05c9.62,3.95,19.85,6.73,30.51,8.16l3.7,20.69c.41,2.28,2.39,3.94,4.71,3.94h16.45c2.32,0,4.3-1.66,4.71-3.94l3.7-20.69c10.66-1.43,20.89-4.21,30.51-8.16l13.54,16.06c1.49,1.77,4.04,2.22,6.05,1.06l14.25-8.22c2.01-1.16,2.89-3.59,2.11-5.76l-7.14-19.78c8.35-6.46,15.86-13.97,22.32-22.32l19.78,7.14c2.18,.79,4.61-.1,5.77-2.11l8.22-14.25c1.16-2.01,.71-4.55-1.06-6.05l-16.06-13.54c3.95-9.62,6.73-19.85,8.16-30.51l20.69-3.7c2.28-.41,3.94-2.39,3.94-4.71v-16.45c0-2.32-1.66-4.3-3.94-4.71Z"/></g></svg>