<?xml version="1.0" encoding="UTF-8"?><svg id="Calque_2" xmlns="http://www.w3.org/2000/svg" xmlns:xlink="http://www.w3.org/1999/xlink" viewBox="0 0 143.29 143.29"><defs><style>.cls-1{fill:none;}.cls-2{clip-path:url(#clippath);}.cls-3{fill:#c2c4c7;}.cls-4,.cls-5{fill:#596a75;}.cls-5{opacity:.5;}</style><clipPath id="clippath"><circle class="cls-1" cx="71.64" cy="71.64" r="71.64"/></clipPath></defs><g id="Content"><g><circle class="cls-3" cx="71.64" cy="71.64" r="71.64"/><circle class="cls-1" cx="71.64" cy="71.64" r="71.64"/><g class="cls-2"><path class="cls-5" d="M71.64,46.9c7.83,0,14.18-6.35,14.18-14.18s-6.35-14.18-14.18-14.18-14.18,6.35-14.18,14.18,6.35,14.18,14.18,14.18Zm21.4,5.74H50.25c-5.33,0-9.66,4.32-9.66,9.66v52.18c0,6.12,5.6,11.09,12.51,11.09v60.21c0,1.81,1.46,3.27,3.27,3.27h30.56c1.81,0,3.27-1.46,3.27-3.27v-60.21c6.91,0,12.51-4.96,12.51-11.09V62.3c0-5.33-4.32-9.66-9.66-9.66Z"/><path class="cls-4" d="M37.97,72.44c7.83,0,14.18-6.35,14.18-14.18s-6.35-14.18-14.18-14.18-14.18,6.35-14.18,14.18,6.35,14.18,14.18,14.18Zm21.4,5.74H16.58c-5.33,0-9.66,4.32-9.66,9.66v52.18c0,6.12,5.6,11.09,12.51,11.09v60.21c0,1.81,1.46,3.27,3.27,3.27h30.56c1.81,0,3.27-1.46,3.27-3.27v-60.21c6.91,0,12.51-4.96,12.51-11.09v-52.18c0-5.33-4.32-9.66-9.66-9.66Z"/><path class="cls-4" d="M108.64,83.35c7.83,0,14.18-6.35,14.18-14.18s-6.35-14.18-14.18-14.18-14.18,6.35-14.18,14.18,6.35,14.18,14.18,14.18Zm21.4,5.74h-42.79c-5.33,0-9.66,4.32-9.66,9.66v52.18c0,6.12,5.6,11.09,12.51,11.09v60.21c0,1.81,1.46,3.27,3.27,3.27h30.56c1.81,0,3.27-1.46,3.27-3.27v-60.21c6.91,0,12.51-4.96,12.51-11.09v-52.18c0-5.33-4.32-9.66-9.66-9.66Z"/></g></g></g></svg>