<?xml version="1.0" encoding="UTF-8"?><svg id="Calque_2" xmlns="http://www.w3.org/2000/svg" xmlns:xlink="http://www.w3.org/1999/xlink" viewBox="0 0 140.52 111.76"><defs><style>.cls-1{fill:url(#linear-gradient);}.cls-2{fill:#f05a2d;}.cls-3{fill:#aeb9bb;}.cls-4{fill:#354f56;}.cls-5{fill:#596a75;}.cls-6{fill:#5e7278;}.cls-7{fill:none;stroke:#354f56;stroke-miterlimit:10;stroke-width:2px;}.cls-8{fill:url(#linear-gradient-2);}</style><linearGradient id="linear-gradient" x1="65.49" y1="47" x2="74.61" y2="-11.09" gradientTransform="translate(16.28 114.1) rotate(-90)" gradientUnits="userSpaceOnUse"><stop offset="0" stop-color="#354f56"/><stop offset="1" stop-color="#0d2c34"/></linearGradient><linearGradient id="linear-gradient-2" x1="65.19" y1="112.25" x2="65.19" y2="81.17" gradientUnits="userSpaceOnUse"><stop offset="0" stop-color="#aeb9bb"/><stop offset="1" stop-color="#8aa0a6"/></linearGradient></defs><g id="Content"><g><g><path class="cls-4" d="M130.38,105.12c0-.46-.08-.92-.3-1.38l-12.27-25.8H12.57L.3,103.74c-.22,.45-.31,.92-.3,1.38,0,.03,0,.06,0,.08,0,.03,0,.06,0,.08,0,.03,0,.06,0,.08,0,.03,0,.06,0,.08,0,.03,0,.06,0,.08,0,.03,0,.06,0,.08,0,.03,0,.06,0,.08,0,.03,0,.06,0,.08,0,.03,0,.06,0,.08,0,.03,0,.06,0,.08,0,.03,0,.06,0,.08,0,.03,0,.06,0,.08,0,.03,0,.06,0,.08,0,.03,0,.06,0,.08,0,.03,0,.06,0,.08,0,.03,0,.06,0,.08,0,.03,0,.06,0,.08,0,.03,0,.06,0,.08,0,.03,0,.06,0,.08,0,.03,0,.06,0,.08,0,.03,0,.06,0,.08,0,.03,0,.06,0,.08,0,.03,0,.06,0,.08,0,.03,0,.06,0,.08,0,.03,0,.06,0,.08,0,.03,0,.06,0,.08,0,.03,0,.06,0,.08,0,.03,0,.06,0,.08,0,.03,0,.06,0,.08,0,.03,0,.06,0,.08-.01,1.62,1.29,3.09,3.07,3.09H127.31c1.78,0,3.08-1.47,3.07-3.09,0-.03,0-.06,0-.08,0-.03,0-.06,0-.08,0-.03,0-.06,0-.08,0-.03,0-.06,0-.08,0-.03,0-.06,0-.08,0-.03,0-.06,0-.08,0-.03,0-.06,0-.08,0-.03,0-.06,0-.08,0-.03,0-.06,0-.08,0-.03,0-.06,0-.08,0-.03,0-.06,0-.08,0-.03,0-.06,0-.08,0-.03,0-.06,0-.08,0-.03,0-.06,0-.08,0-.03,0-.06,0-.08,0-.03,0-.06,0-.08,0-.03,0-.06,0-.08,0-.03,0-.06,0-.08,0-.03,0-.06,0-.08,0-.03,0-.06,0-.08,0-.03,0-.06,0-.08,0-.03,0-.06,0-.08,0-.03,0-.06,0-.08,0-.03,0-.06,0-.08,0-.03,0-.06,0-.08,0-.03,0-.06,0-.08,0-.03,0-.06,0-.08,0-.03,0-.06,0-.08,0-.03,0-.06,0-.08,0-.03,0-.06,0-.08Z"/><path class="cls-3" d="M17.81,19.89H112.57c2.89,0,5.24,2.35,5.24,5.24v52.81H12.57V25.13c0-2.89,2.35-5.24,5.24-5.24Z"/><rect class="cls-1" x="40.26" y=".39" width="49.86" height="97.05" transform="translate(114.1 -16.28) rotate(90)"/><g><g><polygon class="cls-2" points="56.55 56.37 57.02 56.51 56.55 56.37 56.55 56.37"/><path class="cls-2" d="M56.55,48.18v7.93c0,.16,.18,.3,.61,.43l16.67,4.89v-8.19l-17.29-5.07Z"/></g><g><polygon class="cls-2" points="73.83 41.46 73.36 41.32 73.83 41.46 73.83 41.46"/><path class="cls-2" d="M73.83,49.64v-7.93c0-.16-.18-.3-.61-.43l-16.67-4.89v8.19l17.29,5.07Z"/></g><path class="cls-2" d="M56.55,54.92v1.17c.03-.57,2.28-1.23,2.28-1.23l-2.28,.05Z"/><path class="cls-2" d="M73.83,42.9v-1.17c-.03,.57-2.28,1.23-2.28,1.23l2.28-.05Z"/><path class="cls-2" d="M58.83,46.68h0s-2.25,.65-2.28,1.23v7.63l15.01-4.4h0s2.25-.65,2.28-1.23v-7.63l-15.01,4.4Z"/></g><path class="cls-8" d="M127.31,108.12H3.07c-2.25,0-3.73-2.35-2.77-4.38l12.27-25.8H117.81l12.27,25.8c.97,2.03-.52,4.38-2.77,4.38Z"/><g><path class="cls-6" d="M79.06,104h-27.75c.29-2.69,.44-4.03,.73-6.72h26.28c.29,2.69,.44,4.03,.73,6.72Z"/><path class="cls-6" d="M15.18,82.06H115.2c2.35,4.94,3.53,7.41,5.88,12.36H9.3c2.35-4.94,3.53-7.42,5.88-12.36Z"/></g></g><g><g><ellipse class="cls-4" cx="115.26" cy="16.81" rx="5.5" ry="19.17" transform="translate(43.08 108.22) rotate(-60)"/><ellipse class="cls-4" cx="115.13" cy="17.03" rx="5.54" ry="19.17" transform="translate(42.81 108.22) rotate(-60)"/><ellipse class="cls-4" cx="115" cy="17.26" rx="5.58" ry="19.17" transform="translate(42.55 108.22) rotate(-60)"/><ellipse class="cls-4" cx="114.87" cy="17.48" rx="5.62" ry="19.17" transform="translate(42.29 108.22) rotate(-60)"/><ellipse class="cls-4" cx="114.74" cy="17.71" rx="5.66" ry="19.17" transform="translate(42.03 108.22) rotate(-60)"/><ellipse class="cls-4" cx="114.61" cy="17.94" rx="5.7" ry="19.17" transform="translate(41.77 108.22) rotate(-60)"/><ellipse class="cls-4" cx="114.48" cy="18.16" rx="5.74" ry="19.17" transform="translate(41.51 108.22) rotate(-60)"/><ellipse class="cls-4" cx="114.35" cy="18.39" rx="5.78" ry="19.17" transform="translate(41.25 108.22) rotate(-60)"/><ellipse class="cls-4" cx="114.21" cy="18.62" rx="5.82" ry="19.17" transform="translate(40.99 108.22) rotate(-60)"/><ellipse class="cls-4" cx="114.08" cy="18.84" rx="5.86" ry="19.17" transform="translate(40.72 108.22) rotate(-60)"/><ellipse class="cls-4" cx="113.95" cy="19.07" rx="5.89" ry="19.17" transform="translate(40.46 108.22) rotate(-60)"/><ellipse class="cls-4" cx="113.82" cy="19.29" rx="5.93" ry="19.17" transform="translate(40.2 108.22) rotate(-60)"/><ellipse class="cls-4" cx="113.69" cy="19.52" rx="5.97" ry="19.17" transform="translate(39.94 108.22) rotate(-60)"/><ellipse class="cls-4" cx="113.56" cy="19.75" rx="6.01" ry="19.17" transform="translate(39.68 108.22) rotate(-60)"/><ellipse class="cls-4" cx="113.43" cy="19.97" rx="6.05" ry="19.17" transform="translate(39.42 108.22) rotate(-60)"/><ellipse class="cls-4" cx="113.3" cy="20.2" rx="6.09" ry="19.17" transform="translate(39.16 108.22) rotate(-60)"/><ellipse class="cls-4" cx="113.17" cy="20.43" rx="6.13" ry="19.17" transform="translate(38.89 108.22) rotate(-60)"/><ellipse class="cls-4" cx="113.04" cy="20.65" rx="6.17" ry="19.17" transform="translate(38.63 108.22) rotate(-60)"/><ellipse class="cls-4" cx="112.91" cy="20.88" rx="6.21" ry="19.17" transform="translate(38.37 108.22) rotate(-60)"/><ellipse class="cls-4" cx="112.78" cy="21.11" rx="6.25" ry="19.17" transform="translate(38.11 108.22) rotate(-60)"/><ellipse class="cls-4" cx="112.65" cy="21.33" rx="6.29" ry="19.17" transform="translate(37.85 108.22) rotate(-60)"/><ellipse class="cls-4" cx="112.52" cy="21.56" rx="6.33" ry="19.17" transform="translate(37.59 108.22) rotate(-60)"/><ellipse class="cls-4" cx="112.39" cy="21.78" rx="6.37" ry="19.17" transform="translate(37.33 108.22) rotate(-60)"/><ellipse class="cls-4" cx="112.25" cy="22.01" rx="6.41" ry="19.17" transform="translate(37.07 108.22) rotate(-60)"/><ellipse class="cls-4" cx="112.12" cy="22.24" rx="6.45" ry="19.17" transform="translate(36.8 108.22) rotate(-60)"/><ellipse class="cls-4" cx="111.99" cy="22.46" rx="6.49" ry="19.17" transform="translate(36.54 108.22) rotate(-60)"/><ellipse class="cls-4" cx="111.86" cy="22.69" rx="6.53" ry="19.17" transform="translate(36.28 108.22) rotate(-60)"/><ellipse class="cls-4" cx="111.73" cy="22.92" rx="6.57" ry="19.17" transform="translate(36.02 108.22) rotate(-60)"/><ellipse class="cls-4" cx="111.6" cy="23.14" rx="6.6" ry="19.17" transform="translate(35.76 108.22) rotate(-60)"/><ellipse class="cls-4" cx="111.47" cy="23.37" rx="6.64" ry="19.17" transform="translate(35.5 108.22) rotate(-60)"/><ellipse class="cls-4" cx="111.34" cy="23.59" rx="6.68" ry="19.17" transform="translate(35.24 108.22) rotate(-60)"/><ellipse class="cls-4" cx="111.21" cy="23.82" rx="6.72" ry="19.17" transform="translate(34.98 108.22) rotate(-60)"/></g><path class="cls-5" d="M138.93,28.86l-29.08-1.31c-.49-.02-.94-.28-1.21-.7L92.98,2.33c-.66-1.03,.12-2.38,1.34-2.33l29.08,1.31c.49,.02,.94,.28,1.21,.7l15.67,24.53c.66,1.03-.12,2.38-1.34,2.33Z"/><polyline class="cls-7" points="116.63 14.43 124.95 28.23 124.95 42.08"/><circle class="cls-4" cx="116.63" cy="14.43" r="2.44"/><circle class="cls-4" cx="124.95" cy="42.03" r="2.44"/><polygon class="cls-4" points="128.03 50.35 121.88 50.35 124.95 39.6 128.03 50.35"/></g></g></g></svg>