<?xml version="1.0" encoding="UTF-8"?><svg id="Calque_2" xmlns="http://www.w3.org/2000/svg" xmlns:xlink="http://www.w3.org/1999/xlink" viewBox="0 0 302.32 302.32"><defs><style>.cls-1{fill:none;}.cls-2{clip-path:url(#clippath);}.cls-3{fill:#f58e67;}.cls-4{fill:#fac3a8;}.cls-5{fill:#f0592d;}.cls-6{fill:#fddfce;}.cls-7{fill:#ca3028;}</style><clipPath id="clippath"><path class="cls-1" d="M44.27,44.27c-59.03,59.03-59.03,154.74,0,213.78s154.74,59.03,213.78,0c59.03-59.03,59.03-154.74,0-213.78-59.03-59.03-154.74-59.03-213.78,0ZM201.07,201.07c-27.57,27.57-72.26,27.57-99.82,0s-27.57-72.26,0-99.82c27.57-27.57,72.26-27.57,99.82,0,27.57,27.57,27.57,72.26,0,99.82Z"/></clipPath></defs><g id="Content"><g id="Layer_2"><g class="cls-2"><g><path class="cls-6" d="M151.18,151.14L37.1,51.97c2.19-2.52,4.83-5.36,7.2-7.72l106.89,106.89Z"/><path class="cls-6" d="M151.18,151.14L30.46,60.17c2.01-2.67,4.45-5.68,6.64-8.2l114.08,99.17Z"/><path class="cls-4" d="M151.18,151.14L15.32,84.88c4.46-9.15,9.01-16.57,15.14-24.71l120.72,90.97Z"/><path class="cls-3" d="M151.18,151.14l-44.19,144.55C27.15,271.29-17.78,186.78,6.62,106.95c2.49-8.14,4.96-14.42,8.69-22.07l135.86,66.26Z"/><path class="cls-5" d="M151.18,151.14l150.03-18.42c10.17,82.86-48.75,158.28-131.61,168.45-21.96,2.7-41.46,.99-62.62-5.48l44.19-144.55Z"/><path class="cls-7" d="M151.18,151.14L44.29,44.26c59.03-59.03,154.74-59.03,213.77,0,25.27,25.27,38.79,53,43.15,88.46l-150.03,18.42Z"/></g></g></g></g></svg>