<?xml version="1.0" encoding="UTF-8"?><svg id="Calque_2" xmlns="http://www.w3.org/2000/svg" viewBox="0 0 693.65 657.33"><defs><style>.cls-1{fill:#ca3028;}</style></defs><g id="Background"><g><path class="cls-1" d="M9.21,0H0V127.86c.21,4.13,1.63,8.13,3.95,11.85,2.04,3.27,4.77,6.36,8.11,9.38,5.85,5.26,13.6,10.29,23.18,15.28,14.36,7.47,32.84,14.83,55.09,22.24,17.85,5.94,38.14,11.9,60.63,17.92,5.53-1.48,11.21-2.97,17.02-4.47,.38-.1,.77-.2,1.15-.29-24.99-6.43-47.48-12.78-67.17-19.07-14.99-4.79-28.36-9.54-39.96-14.26-17.4-7.07-30.83-14.1-39.71-20.86-4.44-3.37-7.72-6.67-9.84-9.73-2.1-3.04-3.07-5.77-3.23-8.35V0"/><path class="cls-1" d="M0,622.02H0v8.93c.17,3.22,1.07,6.38,2.56,9.38,2.82,5.62,7.63,10.72,14.1,15.66,.59,.45,1.19,.89,1.8,1.34h17.34c-.38-.21-.75-.42-1.12-.63-8.57-4.82-15.05-9.59-19.24-14.07-2.1-2.24-3.63-4.39-4.64-6.41-.99-1.99-1.49-3.83-1.59-5.63v-8.09c-.03,.14-.06,.27-.09,.41l-9.13-.89m603.73-165.93c-5.54,1.48-11.21,2.97-17.02,4.46-.38,.1-.76,.2-1.15,.29,25.06,6.46,47.5,12.8,67.08,19.07,15.48,4.95,29.19,9.87,41,14.74v-9.95c-8.89-3.57-18.71-7.13-29.42-10.7-17.76-5.92-37.97-11.88-60.5-17.92"/><path class="cls-1" d="M693.65,73.65c-3.04,1.26-6.22,2.53-9.55,3.81-27.73,10.67-65.55,21.91-114.97,34.2-49.42,12.29-110.45,25.62-184.66,40.53-84.04,16.87-156.65,32.52-215.35,47.59-.38,.1-.77,.2-1.15,.29-5.81,1.49-11.48,2.98-17.02,4.47-18.9,5.06-36.17,10.07-51.73,15.05-30.18,9.66-53.89,19.18-70.65,28.97-8.38,4.91-15.04,9.88-19.91,15.16-2.43,2.64-4.42,5.37-5.89,8.23-1.47,2.85-2.43,5.84-2.75,8.9l-.03,.25v340.93l9.13,.89c.03-.14,.05-.27,.09-.41,.48-2.03,1.59-4,2.66-5.43,.57-.77,1.11-1.38,1.49-1.78,.19-.2,.34-.35,.43-.44l.09-.08h.01s0-.01,0-.01l.03-.03,.05-.04c8.21-7.75,20.58-15.59,38.19-23.6,26.4-12.03,64.49-24.45,117.72-38.18,53.23-13.74,121.61-28.82,208.71-46.29,79.51-15.94,149.6-31.07,206.98-45.77,.38-.1,.77-.2,1.15-.29,5.8-1.49,11.48-2.98,17.02-4.46,18.86-5.05,36.17-10.06,51.8-15.05,14.11-4.5,26.84-8.99,38.12-13.49v-9.94c-9.54,3.91-20.31,7.85-32.21,11.81-21.96,7.31-47.79,14.7-77.01,22.2-57.32,14.72-127.69,29.92-207.65,45.95-116.25,23.32-199.29,42.39-257.83,59.82-29.28,8.72-52.43,17.02-70.6,25.3-17.17,7.83-29.91,15.62-39.12,23.85V281.61c.29-2.35,1.21-4.8,2.93-7.45,1.55-2.38,3.76-4.89,6.65-7.47,5.05-4.51,12.18-9.2,21.24-13.93,13.59-7.1,31.51-14.29,53.34-21.57,21.83-7.28,47.58-14.66,76.89-22.2,58.62-15.08,131.51-30.81,216.01-47.77,129.4-26,218.86-47.22,277.18-66.62,11.19-3.72,21.22-7.38,30.19-11v-9.96"/></g></g></svg>