<?xml version="1.0" encoding="UTF-8"?><svg id="Calque_2" xmlns="http://www.w3.org/2000/svg" xmlns:xlink="http://www.w3.org/1999/xlink" viewBox="0 0 1986.56 947.5"><defs><style>.cls-1{fill:none;}.cls-2{clip-path:url(#clippath);}.cls-3{fill:#f3754e;}.cls-4{fill:#1f3824;}.cls-5{fill:#15414c;}.cls-6{fill:#0d2c34;}.cls-7{fill:#f59072;opacity:.5;}</style><clipPath id="clippath"><rect class="cls-1" width="1986.56" height="947.5"/></clipPath></defs><g id="Background"><g class="cls-2"><rect class="cls-3" x="0" y="-101.4" width="1986.56" height="1116.3"/><g><path class="cls-7" d="M2067.95,580.52V267.4c-52.5-11.52-108.08-8.66-159.12,8.18-43.46,14.34-84.76,38.8-130.49,40.5-38.58,1.44-75.64-13.58-113.58-20.76-37.78-7.15-79.46-8.72-115.79,3.88-23.33,8.09-46.68,16.19-70.29,23.43-22.58,6.93-45.75,13.13-69.38,13.05-54.6-.18-104.75-33.59-159.33-35.02-39.98-1.05-82.82,19.64-119.88,4.59-61.07-24.79-124.39-50-190.26-47.85-103.81,3.4-194.04,73.6-296.37,91.45-77.21,13.47-156.56-3.74-231.02-28.21s-146.73-56.32-223.21-73.48c-76.48-17.16-159.81-18.45-229.93,16.58v316.79H2067.95Z"/><path class="cls-7" d="M-17.3,119.12H979.52c-43.85-45.46-106.43-72.43-169.63-72.71-34.45-.15-69.69,7.12-102.87-2.16-42.58-11.9-73.13-48.45-111.23-70.88-51.6-30.38-118.53-32.94-172.3-6.59-33.18,16.26-66.04,43.52-102.21,35.97-18.83-3.93-34.85-17.09-53.82-20.33-24.38-4.16-48.94,8.77-73.55,6.36-23.55-2.31-43.19-18.04-63.36-30.43-50.18-30.84-119.07-41.34-166.33-6.72C-21.44,6.16-15.23,62.8-17.3,119.12Z"/><path class="cls-7" d="M2074.9,108.71c.18-23.07-11.46-45.93-30.23-59.35l6.08,1.41c-34.02-16.95-74.42-20.67-110.97-10.24-22.25,6.35-43.67,17.82-66.81,17.51-26.89-.35-50.59-16.4-74.24-29.19-47.31-25.59-104.07-39.76-155.22-23.12-69.04,22.46-115.41,96.03-187.08,107.66-20.68,3.35-41.81,1.11-62.75,1.88-40.52,1.49-80.5,14.66-114.11,37.3h416.62c-26.78,10.87-65.83,21.34-85.67,38.86h449.98c1.96-9.5-2.16-28.15,2.73-34.64,2.61-3.46,3.83-7.65,3.95-11.96,2.14-11.13,4.11-26.26,5.56-27.96,1.87-2.19,2.15-5.29,2.17-8.17Z"/></g><path class="cls-4" d="M92.32,423.51c.14,.14,.13,.62-.18,.62-.03,0-.06,0-.09-.02,.09-.21,.18-.4,.27-.61Z"/><path class="cls-4" d="M93.37,421.17c-.35,.78-.69,1.56-1.04,2.33-.05-.05-.12-.06-.21,0l1.25-2.34Z"/><g><polygon class="cls-6" points="-1.24 408.7 67.34 431.53 228.55 355.19 248.33 360.95 296.13 385.43 307.99 381.71 387 325.94 474.59 287.48 531.15 233.78 549.47 237.32 624.38 274.7 637.23 300.8 711.36 363.59 723.66 367.94 788.89 349.75 801.29 339.86 827.32 331.33 837.03 322.26 892.49 302.25 923.55 326.45 949.25 357.7 1037.59 410.93 1146.68 447.71 1168.37 465.09 1194.74 470.4 1216.1 460.52 1222.98 447.77 1252.77 419.55 1295.08 395.38 1351.75 421.9 1364.31 432.94 1416.18 449.33 1431.94 461.67 1494 475.42 1600.23 386.23 1662.22 392.98 1765.24 425.08 1854.3 408.49 1859.75 402.78 1983.97 329.95 1983.97 1038.01 -1.24 1038.01 -1.24 408.7 -1.24 408.7"/><g><polygon class="cls-5" points="1273.96 727.87 1271.88 732.46 1264.36 734.95 1273.96 727.87"/><polygon class="cls-5" points="581.8 399.56 565.23 433.96 555.17 450.99 537.22 465.21 487.05 496.7 503.68 456.58 515.32 439.2 529.7 428.32 578.43 400.8 581.8 399.56"/><polygon class="cls-5" points="1983.97 329.94 1983.97 340.92 1906.19 419.83 1889.54 463.65 1771.59 541.73 1822.82 444.3 1777.59 450.54 1761.07 441.07 1736.87 416.24 1765.24 425.08 1854.3 408.49 1859.75 402.78 1983.97 329.94"/><polygon class="cls-5" points="1616.81 388.03 1616.53 413.09 1613.5 434.32 1604.79 447.27 1541.18 524.91 1528.95 537.12 1501.85 546.23 1457.9 574.03 1387.93 644.66 1391.1 638.9 1429.12 555.3 1442.67 533.69 1473.09 516.15 1495.79 473.91 1495.8 473.9 1600.23 386.23 1616.81 388.03"/><polygon class="cls-5" points="1369.11 625.15 1349.67 660.14 1338.32 677.81 1318.55 694.97 1273.96 727.87 1289.92 692.7 1304.09 669.14 1318.03 658.49 1369.11 625.15"/><polygon class="cls-5" points="1236.46 576.91 1179.61 669.25 1168.67 681.82 1151.46 689.24 1110.19 701.98 1067.49 719.36 1039.8 740.19 987.77 783.98 979.67 787.09 975.13 782.28 955.95 741.72 836.17 795.58 839.96 791.33 944.07 697.35 956.45 688.44 978.09 683.59 1061.05 662.4 1092.35 629.86 1122.17 616.02 1236.46 576.91"/><polygon class="cls-5" points="1298.12 396.8 1279.07 457.75 1243.47 499.88 1175.74 566.02 1077.75 601.16 1009.22 647.23 1045.05 582.85 1052.93 572.59 1066.76 565.11 1120.38 543.63 1146.48 529.58 1163.63 506.08 1185.15 468.47 1194.74 470.4 1216.09 460.51 1222.98 447.77 1252.76 419.55 1295.08 395.38 1298.12 396.8"/><polygon class="cls-5" points="1062.73 454.3 992.9 528.6 972.23 540.09 952.22 568.17 863.32 647.87 904.13 552.55 933.74 517.14 954.38 512.67 967.38 499.16 1003.61 445.76 1002.32 443.76 1062.73 454.3"/><polygon class="cls-5" points="889.98 436.24 794.93 600.54 767.53 647.33 717.89 697.85 747.13 602.19 567.05 706.71 625.04 630.76 644.16 610.59 668.45 596.51 757.13 544.08 886.04 437.79 889.98 436.24"/><polygon class="cls-5" points="892.73 302.44 888.08 370.06 840.58 411.84 821.76 426.5 784.98 440.47 713.83 470.82 750.33 414.48 771.82 397.74 796.72 343.5 796.73 343.49 801.29 339.86 827.32 331.33 837.04 322.26 892.48 302.25 892.73 302.44"/><polygon class="cls-5" points="563.77 490.37 543.45 556.24 517.42 600.45 418.6 652.89 368.62 680.06 398.49 640.86 412.68 625.35 435.17 613.65 485.96 571.08 562.53 489.75 563.77 490.37"/><path class="cls-5" d="M549.47,237.32l-18.32-3.54-56.56,53.7-87.59,38.46-79.02,55.76-11.45,3.6c-4.66,17.52-10.37,34.84-20.91,49.45-6.11-13.26-12.33-26.69-21.63-37.94-3.33-4.04-7.03-7.76-10.34-11.8-7.1-8.69-12.33-18.91-15.27-29.74l.16-.08-156.8,74.25c-5.33,11.93-10.65,23.85-15.98,35.78-1.38,3.09-2.79,6.21-4.92,8.83-1.47,1.8-3.24,3.3-5,4.81-15.63,13.26-31.32,26.45-47.08,39.54v43.74l101.42-71.54-32.76,63.81-22.59,78.26,166.21-156.5-11.12,53.4,117.33-79.2-49.03,111.12-44.23,63.11-116.23,153.13,68.58-47.25,139.06-147.81,.54,38.04,111.99-115.24,13.29-18.06,.9-18.79,25.19-45.46,41.33-33.74,46.62-97.78,6.65-48.14-12.43-6.21Zm-78.22,78.69c-20.27,24.08-40.53,48.14-60.8,72.22-6,7.12-13,14.78-22.28,15.51,7.03-14.95,14.35-29.77,21.93-44.45,3.9-7.54,7.88-15.06,12.53-22.16,2.83-4.33,6.02-8.61,10.42-11.34,3.23-2,6.95-3.06,10.61-4.1,8.79-2.48,17.57-4.97,26.36-7.45l.85-.83c1.11-.58,1.19,1.65,.38,2.6Z"/></g></g><g><polygon class="cls-6" points="285.38 995.4 2010.8 995.4 2010.8 372.94 1938.92 339.91 1926.85 337.81 1918.53 342.11 1881.23 373.88 1851.46 392.05 1780.13 385.52 1755.77 406.39 1709.05 390.84 1632.57 329 1584.96 342.43 1563.91 350.92 1550.73 363.95 1506.21 416.54 1484.33 438.87 1396.84 478.46 1370.97 505.83 1323.69 565.86 1179.64 611.43 1087.12 677.24 981.77 713.93 884.06 700.3 841.67 715.36 567.05 857.27 547.32 863.88 531.52 858.92 443.11 882.91 284.84 983.8 286.47 983.8 285.38 995.4"/><g><polygon class="cls-5" points="1127.04 765.33 1099.58 813.69 1091.53 825.65 1079.36 835.14 1056.85 848.61 1013.72 869.2 1012.49 869.57 1035.24 825.24 1039.52 818.5 1046.16 813.63 1127.04 765.33"/><polygon class="cls-5" points="1907.47 725.25 1872.26 762.25 1784.01 860.64 1777.53 867.5 1767.78 872.04 1732.88 884.14 1711.72 889.7 1695.91 889.56 1646.9 886.41 1647.56 884.79 1659.09 849.93 1675 837.47 1768.94 774.85 1757.98 812.24 1819.14 779.83 1907.47 725.25"/><polygon class="cls-5" points="1934.22 339.09 1925.34 377.75 1917.34 407.03 1889.7 460.66 1855.91 524.46 1817.67 557.02 1802.5 596.65 1766.67 632.83 1725.06 677.2 1897.82 599.42 1805.62 697.49 1780.88 718.71 1746.95 738.43 1526.41 846.23 1592.23 710.78 1608.77 686.61 1632.77 666.63 1723.03 592.82 1757.24 540.61 1808.52 504.99 1827.55 456.55 1732.83 416.7 1724.62 411.28 1722.05 402.23 1717.7 393.72 1755.77 406.39 1780.13 385.52 1851.46 392.04 1881.22 373.88 1918.53 342.11 1926.85 337.8 1934.22 339.09"/><path class="cls-5" d="M1584.96,342.43l-21.05,8.5-13.18,13.02-44.52,52.59-21.88,22.33-87.49,39.59-25.86,27.37-47.28,60.04-144.05,45.57-92.51,65.81-105.35,36.68-97.71-13.63-42.4,15.06-274.61,141.91-19.73,6.61-15.8-4.95-88.41,23.98-70.74,45.09-.36,1.15-3.51,1.32-.34,.22,122.76-44.82,12.28-2.37,25.81,13.6,12.99-3.76,190.58-94.73-1.1,34.61,61.94-46.21,9.06-11.85,14.27-7.16,93.38-32.42,76.7,28.49,17.01,4.94,26.82-2.41,126.5-85.41,18.71-14.18,19.7-9,33.07-13.09,9.41-2.75,24.35,4.02,3.02-.52-4.14,2.9-74.07,114.33,47.72-23.02,16.46-16.54,24.13-27.6,18.33-18.52,29.12-16.05,90.53-37.45-65.7,69.78-35.6,34.94-35.55,30.45-50.55,57.5-65.74,91.14,257.99-139.32,16.15-6.35,15.74-15.29,74.48-90.71-95.93,32,108.52-119.95,44.4-60.11,14.52-128.78,1.99-14.24,6.36-8.32,25.41-26.72-45.03,12.7Zm-212.05,254.21l2.17-2.69c4.1-12.59,8.21-25.19,12.31-37.78,.99-3.05,2.05-6.21,4.29-8.5,1.49-1.52,3.39-2.55,5.27-3.54,31.24-16.54,63.82-30.55,97.31-41.85-30.91,41.33-76.76,68.4-121.36,94.37Z"/></g></g></g></g></svg>