<?xml version="1.0" encoding="UTF-8"?>
<svg id="Calque_2" xmlns="http://www.w3.org/2000/svg" viewBox="0 0 455.4 456.98">
<defs>
<style>.cls-1{fill:#f48c65;}.cls-2{fill:#fff;}.cls-3{fill:#ef5a2d;}.cls-4{fill:#b4b7bb;}.cls-5{fill:#dadddf;}.cls-6{fill:#c5c7cb;}.cls-7{fill:#7a838d;}.cls-8{fill:none;stroke:#fff;stroke-linecap:round;stroke-miterlimit:10;stroke-width:6.19px;}</style>
</defs>

<g id="Content">
    <g>
        <g>
            <rect class="cls-6" x="104.11" y="25.76" width="21.22" height="149.14" transform="translate(60.92 -42.26) rotate(28.16)"/>
            <polygon class="cls-6" points="142.81 30.78 157.36 38.57 163.58 16.49 157.38 13.17 142.81 30.78"/>
            <path class="cls-7" d="M158.59,13.82l4.12,2.2,1.47-6.4c.16-.69-.7-1.14-1.17-.62l-4.41,4.82Z"/>
            <polygon class="cls-4" points="146.56 26.25 142.81 30.78 157.36 38.57 158.96 32.89 146.56 26.25"/>
            <rect class="cls-5" x="117.25" y="28.12" width="3.77" height="149.14" transform="translate(62.56 -44.07) rotate(28.16)"/>
            <rect class="cls-7" x="115.08" y="51.71" width="23.38" height="52.22" rx="5.46" ry="5.46" transform="translate(51.72 -50.61) rotate(28.16)"/>
        </g>
        <g>
            <g>
                <polygon class="cls-6" points="215.32 119.68 106.99 191.24 96.56 175.46 204.89 103.89 221.44 101.97 223.58 105.2 215.32 119.68"/>
                <polygon class="cls-7" points="221.44 101.97 208.61 110.44 190.82 113.18 204.89 103.89 221.44 101.97"/>
                <polygon class="cls-7" points="215.32 119.68 201.25 128.97 210.75 113.68 223.58 105.2 215.32 119.68"/>
                <rect class="cls-5" x="214.16" y="100.13" width="3.87" height="15.38" transform="translate(186.94 -131.91) rotate(56.55)"/>
            </g>
            <polygon class="cls-6" points="204.89 103.89 195.46 113.14 190.82 113.18 204.89 103.89"/>
            <polygon class="cls-6" points="215.32 119.68 203.11 124.72 201.25 128.97 215.32 119.68"/>
            <rect class="cls-6" x="130.82" y="111.76" width="18.92" height="92.3" transform="translate(194.71 -46.18) rotate(56.55)"/>
            <polygon class="cls-5" points="210.24 114.49 205.73 121.74 105.02 188.27 103.06 185.3 210.24 114.49"/>
        </g>
        <g>
            <path class="cls-5" d="M450.71,339.2l4.69-3.78-21.49-26.63c-3.64-4.51-8.99-6.83-14.37-6.78-3.96,.04-7.93,1.36-11.24,4.04l-92.21,74.4,4.4,5.45h0l4.4,5.45,2.2,2.72,89.36-72.09c1.54-1.24,3.45-1.7,5.26-1.45l-.43-3.73c2.4,.19,4.73,1.33,6.36,3.36h0c-1.63-2.03-3.96-3.17-6.36-3.36l.43,3.73c1.65,.24,3.22,1.07,4.35,2.47l17.64,21.86,2.34-1.89h0l4.69-3.78h0Z"/>
        <g>
            <path class="cls-6" d="M420.39,309.39l.86,7.41c-2.24-.18-4.56,.47-6.45,1.99l-89.93,72.55-4.4-5.45,91.07-73.47c.21-.17,.41-.32,.63-.48,.07-.05,.14-.1,.22-.15,.1-.07,.19-.13,.29-.19,.09-.06,.19-.12,.28-.18,.14-.09,.29-.17,.43-.25,.07-.04,.13-.08,.2-.11,.49-.27,.99-.51,1.51-.71,.1-.04,.21-.08,.31-.12,.34-.13,.68-.23,1.02-.33,.12-.04,.24-.07,.37-.1,.24-.06,.48-.11,.72-.16,.15-.03,.3-.06,.46-.08,.03,0,.06-.01,.09-.01,.39-.06,.77-.1,1.16-.13,.19-.01,.39-.02,.58-.02,.19,0,.39,0,.58,0Z"/>
            <path class="cls-4" d="M421.69,320.53c-1.81-.26-3.72,.21-5.26,1.45l-89.36,72.09-2.2-2.72,89.93-72.55c1.89-1.52,4.21-2.17,6.45-1.99l.43,3.73Z"/>
            <path class="cls-7" d="M446.02,342.98l-2.34,1.89-17.64-21.86c-1.13-1.4-2.7-2.24-4.35-2.47l-.43-3.73c2.4,.19,4.73,1.33,6.36,3.36l18.41,22.82Z"/>
            <path class="cls-4" d="M450.71,339.2l-4.69,3.78-18.41-22.82c-1.63-2.03-3.96-3.17-6.36-3.36l-.86-7.41c.12,0,.24,0,.36,.01,.12,0,.25,.01,.37,.02,.11,0,.22,.02,.33,.03,.04,0,.09,0,.13,.01,.21,.02,.42,.05,.63,.08,.65,.1,1.3,.25,1.94,.44,.1,.03,.21,.06,.31,.1,.12,.04,.24,.08,.36,.13,.19,.07,.38,.14,.57,.22,.2,.08,.4,.17,.6,.27,.1,.05,.2,.09,.3,.14,.2,.1,.39,.2,.59,.31,.1,.05,.19,.11,.28,.16,0,0,0,0,.02,0,.09,.06,.18,.11,.28,.17,.1,.06,.19,.12,.28,.18,.09,.06,.18,.12,.28,.19,.31,.22,.6,.45,.89,.69,.09,.07,.17,.14,.26,.22,.15,.14,.31,.27,.45,.42,.07,.07,.14,.14,.22,.21,.08,.08,.16,.16,.24,.25,.08,.08,.15,.16,.23,.24h.01c.15,.19,.31,.37,.45,.55l19.95,24.73Z"/>
        </g>
    </g>
    <path class="cls-6" d="M289.33,356.95l18.78-84.59,7.35-16.64,6.88,1.78,.21,3.93s11.67,13.2,9.9,25.58c-9.38-2.42-13.28-3.02-13.28-3.02,0,0-2.01-.11-3.34,5.05-1.33,5.16-5.03,19.48-5.03,19.48,0,0-1.16,7.65,7.05,9.77,8.21,2.12,12.58-8.87,9.25-14.52,3.88-.02,10.26,9.98-5.23,40.01l-8.86,19.31-23.69-6.11Z"/>
<g>
    <path class="cls-6" d="M72.42,44.62c-.66-10.98-7.9-19.99-17.65-23.45-3.62-1.29-6.16-4.57-6.39-8.4l-.77-12.77-9.02,.55,.77,12.77c.23,3.84-1.89,7.4-5.33,9.11-9.26,4.61-15.36,14.43-14.69,25.41,.55,9.03,5.54,16.74,12.73,21.11,4.1,2.5,6.59,6.96,6.48,11.76l-.8,73.24,29.17-1.76-9.62-72.61c-.68-4.75,1.25-9.48,5.02-12.46,6.61-5.21,10.64-13.46,10.09-22.49Z"/>
    <circle class="cls-7" cx="45.88" cy="46.22" r="17.91" transform="translate(-14.64 22.15) rotate(-23.52)"/>
    <path class="cls-8" d="M32.4,47.04c-.45-7.44,5.22-13.84,12.66-14.3"/>
</g>
<g>
    <rect class="cls-6" x="363.17" y="357.81" width="17.51" height="121.71" transform="translate(794.54 51.23) rotate(90.61)"/>
<g>
    <rect class="cls-6" x="427.48" y="410.75" width="10.88" height="32.33" transform="translate(430.69 1034.92) rotate(-134.39)"/>
    <rect class="cls-6" x="427.64" y="395.58" width="10.88" height="32.33" transform="translate(1030.6 403.03) rotate(135.61)"/>
</g><rect class="cls-5" x="367.6" y="364.23" width="3.3" height="116.43" transform="translate(795.61 57.73) rotate(90.61)"/></g><g><rect class="cls-1" x="-40.6" y="253.23" width="420.81" height="96.41" rx="48.2" ry="48.2" transform="translate(242 -36.92) rotate(41.44)"/><path class="cls-3" d="M75.65,169.26c-19.96-17.62-50.42-15.72-68.04,4.23-2.42,2.74-4.45,5.69-6.13,8.77-4.27,16.93,.83,35.6,14.83,47.95l243.19,214.7c19.96,17.62,50.42,15.72,68.04-4.23h0c.35-.4,.69-.81,1.02-1.22,3.16-5.01,5.32-10.44,6.46-16.03,.99-14.44-4.49-29.16-16.18-39.47L75.65,169.26Z"/><g><g><polygon class="cls-2" points="278.84 428.33 279.59 427.86 278.84 428.33 278.84 428.33"/><path class="cls-2" d="M267.65,418.46l10.84,9.57c.22,.18,.63,.12,1.33-.32l26.79-16.88-11.18-9.87-27.78,17.5Z"/></g><g><polygon class="cls-2" points="279.31 386.73 278.56 387.21 279.31 386.73 279.31 386.73"/><path class="cls-2" d="M290.5,396.61l-10.84-9.57c-.22-.18-.63-.12-1.33,.32l-26.79,16.88,11.18,9.87,27.78-17.5Z"/></g><path class="cls-2" d="M276.86,426.59l1.18,1.04,.42,.37c-.74-.74,1.08-4.59,1.08-4.59l-2.68,3.18Z"/><path class="cls-2" d="M281.29,388.48l-1.18-1.04-.42-.37c.74,.74-1.08,4.59-1.08,4.59l2.68-3.18Z"/><path class="cls-2" d="M268.36,413.54h0s-1.82,3.85-1.08,4.59l10.42,9.2,12.09-25.82h0s1.82-3.85,1.08-4.59l-10.42-9.2-12.09,25.81Z"/></g><path class="cls-2" d="M11.2,168.51c-1.19,1.35-2.29,2.74-3.3,4.18l-1.98-1.75c1.68-3.08,3.72-6.02,6.14-8.76,2.42-2.74,5.08-5.13,7.93-7.18l3.79,3.34c-4.61,2.58-8.88,5.98-12.58,10.17Z"/><path class="cls-4" d="M38.72,171.53l-14.07,15.94-16.74-14.78c1-1.44,2.11-2.84,3.3-4.18,3.7-4.19,7.97-7.59,12.58-10.17l14.94,13.19Z"/></g></g></g></svg>