<?xml version="1.0" encoding="UTF-8"?><svg id="Calque_2" xmlns="http://www.w3.org/2000/svg" viewBox="0 0 485 709.03"><defs><style>.cls-1{fill:#15414c;}.cls-2{opacity:.6;}</style></defs><g id="Content"><g class="cls-2"><g><path class="cls-1" d="M480.97,374.76c-22.81-21.48-87.5-40.74-238.68-71.07C97.82,274.7,1.33,250.01,0,223.71V0C4.69,23.77,69,45.17,237.27,78.97c150.82,30.3,244.86,54.43,247.73,81.09,0,0,0,217.37,0,221.64-.8-4.07-4.03-6.95-4.03-6.95"/><path class="cls-1" d="M480.97,702.08c-22.81-21.48-87.5-40.74-238.68-71.07C97.82,602.02,1.33,577.33,0,551.04v-223.71c4.69,23.77,69,45.17,237.27,78.97,150.82,30.3,244.86,54.43,247.73,81.09,0,0,0,217.37,0,221.64-.8-4.07-4.03-6.95-4.03-6.95"/><path class="cls-1" d="M4.03,538.42c22.81-21.48,87.5-40.74,238.68-71.07,144.47-28.98,240.96-53.67,242.28-79.97V163.66c-4.69,23.77-69,45.17-237.27,78.97C96.91,272.93,2.87,297.06,0,323.72,0,323.72,0,541.1,0,545.37c.8-4.07,4.03-6.95,4.03-6.95"/></g></g></g></svg>