<?xml version="1.0" encoding="UTF-8"?><svg id="Calque_2" xmlns="http://www.w3.org/2000/svg" viewBox="0 0 358.11 442.95"><defs><style>.cls-1{fill:none;stroke:#f05a2d;stroke-miterlimit:10;stroke-width:3px;}.cls-2{fill:#f05a2d;}</style></defs><g id="Content"><g><g><line class="cls-1" x1="77.19" y1="395.72" x2="257.84" y2="441.5"/><polygon class="cls-2" points="77.45 402.73 67.8 393.34 80.75 389.67 77.45 402.73"/></g><g><path class="cls-1" d="M6.73,52.29v6.19c0,40.87,0,11.02,0,51.89,0,25.46,1.38,28.06,25.61,37.51,15.99,6.23,32.47,11.21,52.55,18.05-12.09,3.67-20.41,6.03-28.61,8.74-8.33,2.75-16.65,5.58-24.78,8.87-21.67,8.78-25.12,13.91-25.16,37.08-.07,44.49-.24,55.36-.31,99.85"/><polygon class="cls-2" points="0 54.25 6.73 42.6 13.46 54.25 0 54.25"/></g><g><path class="cls-1" d="M351.65,97.4c-.28,46.55-.89,93.09-.57,139.64,.09,12.5-5.68,19.51-16.06,23.57-17.68,6.92-35.6,13.19-55.97,20.67,4.54,2.14,7.2,3.66,10.03,4.68,8.74,3.15,17.56,6.07,26.33,9.13,35.23,12.3,35.96,13.33,35.96,50.32,0,36.6,0,19.24,0,55.46"/><polygon class="cls-2" points="344.65 398.91 351.38 410.57 358.11 398.91 344.65 398.91"/></g><g><line class="cls-1" x1="245.84" y1="41.05" x2="79.81" y2="1.46"/><polygon class="cls-2" points="245.49 34.04 255.27 43.29 242.36 47.14 245.49 34.04"/></g></g></g></svg>