<?xml version="1.0" encoding="UTF-8"?><svg id="Calque_2" xmlns="http://www.w3.org/2000/svg" viewBox="0 0 302.42 385.24"><defs><style>.cls-1{fill:#f05a2c;}.cls-2{fill:#fff;}</style></defs><g id="Content"><path class="cls-1" d="M126,41.94C36.64,23.99,2.49,12.62,0,0V118.8c.45,8.93,21.6,17.52,56.85,26.57C21.49,154.47,.97,162.92,0,171.92v120.71c.71,13.97,51.95,27.08,128.67,42.47,80.29,16.11,114.64,26.34,126.75,37.74,0,0,1.71,1.53,2.14,3.69v-117.7c-.97-8.99-21.49-17.45-56.85-26.54,35.25-9.05,56.4-17.64,56.85-26.57V85c-1.52-14.16-51.47-26.98-131.56-43.06Z"/><path class="cls-2" d="M302.42,385.24v-114.21c-1.79-16.63-60.43-31.67-154.47-50.56C43.02,199.4,2.93,186.05,0,171.23v139.49c.53,10.49,25.37,20.57,66.75,31.2C25.24,352.6,1.14,362.53,0,373.09v12.16H302.42Z"/></g></svg>