<?xml version="1.0" encoding="UTF-8"?><svg id="Calque_2" xmlns="http://www.w3.org/2000/svg" viewBox="0 0 263.8 47.47"><defs><style>.cls-1{opacity:.4;}.cls-2{fill:#fff;fill-rule:evenodd;}</style></defs><g id="Content"><g class="cls-1"><path class="cls-2" d="M28.61,0l-3.78,2.17V20.42l2.06,1.17V7.68l7.12,4.01h0l1.39,.78,1.17-.67v-1.11l-9.63-5.45v-1.89l1.73-1,9.96,5.68v5.06l-4.79,2.73-.17-.06c-.28-.17-.61-.22-.89-.22-1.11,0-2.06,.95-2.06,2.11s.95,2.11,2.06,2.11,1.95-.83,2.06-1.89v-.17l4.84-2.73,4.51,2.56v11.24l-4.51,2.56-18.25-10.35V2.23L17.64,.06,5.62,6.9v6.23L0,16.2v13.69l5.51,3.12v6.23l12.02,6.85,3.78-2.17V25.6l-2.06-1.17v14.02l-8.46-4.79-1.17,.67v1.11l9.63,5.45v1.89l-1.73,1-9.96-5.68v-5.06l4.79-2.73,.17,.06c.28,.17,.61,.22,.89,.22,1.17,0,2.06-.95,2.06-2.11s-.95-2.11-2.06-2.11-1.95,.83-2.06,1.89v.17l-4.84,2.73-4.51-2.56v-11.24l4.51-2.56,18.25,10.35v18.87l3.78,2.17,12.02-6.85v-6.23l5.51-3.12v-13.8l-5.51-3.12V6.85L28.61,0ZM7.62,8.07L17.59,2.39l1.73,1v1.89L7.62,11.91v-3.84Zm1.06,5.62l10.63-6.01v12.08l-10.63-6.07Zm18.2,12.74l10.63,6.01-10.63,6.01v-12.02Zm0,16.36v-1.89l11.69-6.62v3.84l-9.96,5.68-1.73-1h0Z"/><path class="cls-2" d="M185.55,33.5c1.45,0,2.62-.45,3.56-1.34,.89-.89,1.39-2,1.39-3.34s-.45-2.39-1.39-3.34c-.89-.89-2.11-1.34-3.56-1.34h-7.23v9.29c-.06,.06,7.23,.06,7.23,.06Zm-7.29-13.97h6.73c1.17,0,2.17-.39,2.95-1.17,.78-.78,1.17-1.67,1.17-2.73s-.39-1.95-1.17-2.73-1.78-1.17-2.95-1.17h-6.73v7.79h0Zm73.41-4.73c1.06,0,1.95,.11,2.78,.39,.83,.28,1.5,.56,2.11,.89,.67,.39,1.28,.78,1.78,1.28l1.06-2.34h4.4v22.15c0,3.06-1,5.57-2.95,7.46-2,1.89-4.79,2.84-8.4,2.84-2.23,0-4.01-.39-5.34-1.17-1.34-.78-2.45-1.67-3.23-2.67-.28-.39-.56-.78-.83-1.22l4.73-2.67c.22,.45,.56,.83,1,1.17,.39,.28,.83,.56,1.45,.78,.56,.22,1.34,.33,2.23,.33,1.67,0,3.01-.45,3.95-1.39,.95-.89,1.45-2.06,1.45-3.51v-1.78c-.5,.5-1.06,.89-1.67,1.28-.56,.33-1.22,.67-1.95,.89-.78,.28-1.61,.39-2.56,.39-1.5,0-2.89-.28-4.23-.89-1.34-.56-2.45-1.39-3.45-2.39-1-1-1.73-2.23-2.34-3.67-.56-1.39-.83-2.95-.83-4.62s.28-3.23,.83-4.62c.56-1.39,1.34-2.62,2.34-3.67,1-1,2.11-1.84,3.45-2.39,1.39-.56,2.78-.83,4.23-.83Zm-40.74,0c1.61,0,3.12,.33,4.56,.95,1.45,.61,2.67,1.5,3.78,2.62,1.06,1.11,1.95,2.39,2.56,3.84s.95,3.01,.95,4.73-.33,3.23-.95,4.73c-.61,1.45-1.5,2.73-2.56,3.84-1.06,1.11-2.34,1.95-3.78,2.62-1.45,.61-2.95,.95-4.56,.95s-3.12-.33-4.56-.95c-1.45-.61-2.67-1.5-3.78-2.62-1.06-1.11-1.95-2.39-2.56-3.84s-.95-3.01-.95-4.73,.33-3.23,.95-4.73c.61-1.45,1.5-2.73,2.56-3.84s2.34-1.95,3.78-2.62c1.45-.67,2.95-.95,4.56-.95ZM69.62,6.01c1.61,0,3.06,.28,4.4,.78,1.34,.5,2.45,1.22,3.45,2.17,1,.95,1.73,2,2.23,3.28,.33,.89,.61,1.84,.72,2.78h-6.01c-.17-.83-.56-1.56-1.17-2.11-.83-.83-2.06-1.22-3.62-1.22s-2.73,.39-3.62,1.11c-.83,.78-1.28,1.56-1.28,2.45,0,.95,.39,1.73,1.22,2.23,.83,.5,1.84,1,3.12,1.39,1.22,.39,2.56,.83,4.06,1.28,1.45,.45,2.78,1.06,4.06,1.78,1.22,.78,2.28,1.73,3.12,2.95,.83,1.22,1.22,2.78,1.22,4.79,0,1.17-.28,2.28-.83,3.39-.56,1.11-1.39,2.06-2.39,2.95-1.06,.89-2.28,1.56-3.73,2.11-1.45,.56-3.06,.78-4.9,.78s-3.45-.28-4.9-.78c-1.45-.5-2.62-1.22-3.62-2.17-1-.95-1.78-2.06-2.28-3.34-.56-1.28-.78-2.73-.78-4.23h6.18c0,1.45,.5,2.62,1.45,3.51,.95,.89,2.28,1.39,3.95,1.39,1.84,0,3.17-.39,4.06-1.17,.89-.78,1.34-1.67,1.34-2.73,0-1-.39-1.78-1.22-2.34-.83-.56-1.84-1.06-3.12-1.45-1.22-.45-2.56-.83-4.06-1.28-1.45-.39-2.78-1-4.06-1.73-1.22-.72-2.28-1.67-3.12-2.78-.83-1.17-1.22-2.67-1.22-4.56,0-1.22,.28-2.39,.78-3.56,.56-1.11,1.28-2.11,2.28-2.95,1-.83,2.17-1.5,3.56-2.06,1.39-.39,3.01-.67,4.73-.67h0Zm89.21,8.79c2.84,0,5.06,.67,6.57,2.06,.78,.72,1.45,1.5,1.89,2.45l-4.84,2.73c-.11-.5-.5-1-1.11-1.56-.61-.5-1.34-.78-2.23-.78s-1.61,.22-2.11,.67c-.5,.45-.72,1-.72,1.67,0,.56,.28,1,.89,1.28,.61,.33,1.34,.61,2.23,.83,.89,.28,1.84,.56,2.89,.83s2,.72,2.89,1.28c.89,.56,1.61,1.28,2.23,2.11,.61,.89,.89,2,.89,3.39,0,.95-.22,1.89-.61,2.73-.39,.89-1,1.61-1.73,2.28-.78,.67-1.67,1.17-2.78,1.56-1.06,.39-2.28,.61-3.62,.61-3.12,0-5.45-.72-7.01-2.11-.89-.78-1.56-1.73-2.06-2.84l4.95-2.78c.11,.78,.5,1.45,1.11,2,.61,.56,1.45,.83,2.45,.83s1.84-.28,2.45-.78c.61-.56,.89-1.11,.89-1.78,0-.56-.28-1-.89-1.28-.61-.33-1.34-.61-2.23-.83-.89-.28-1.89-.5-2.89-.78-1.06-.28-2-.67-2.89-1.22-.89-.56-1.67-1.22-2.23-2.06-.61-.83-.89-1.95-.89-3.34,0-.95,.22-1.89,.61-2.73,.39-.89,.95-1.61,1.73-2.28,.78-.67,1.67-1.17,2.67-1.56,1.06-.45,2.23-.61,3.51-.61Zm-20.87,0c2.84,0,5.06,.67,6.57,2.06,.78,.72,1.45,1.5,1.89,2.45l-4.84,2.73c-.11-.5-.5-1-1.11-1.56-.61-.5-1.34-.78-2.23-.78s-1.61,.22-2.11,.67c-.5,.45-.72,1-.72,1.67,0,.56,.28,1,.89,1.28,.61,.33,1.34,.61,2.23,.83,.89,.28,1.89,.56,2.89,.83,1.06,.28,2,.72,2.89,1.28,.89,.56,1.61,1.28,2.23,2.11,.61,.89,.89,2,.89,3.39,0,.95-.22,1.89-.61,2.73-.39,.89-1,1.61-1.73,2.28-.78,.67-1.67,1.17-2.78,1.56-1.06,.39-2.28,.61-3.62,.61-3.12,0-5.45-.72-7.01-2.11-.89-.78-1.56-1.73-2.06-2.84l4.95-2.78c.11,.78,.5,1.45,1.11,2,.61,.56,1.45,.83,2.45,.83,1.06,0,1.84-.28,2.45-.78,.61-.56,.89-1.11,.89-1.78,0-.56-.28-1-.89-1.28-.61-.33-1.34-.61-2.23-.83-.89-.28-1.89-.5-2.89-.78-1.06-.28-2-.67-2.89-1.22-.89-.56-1.67-1.22-2.23-2.06-.61-.83-.89-1.95-.89-3.34,0-.95,.22-1.89,.61-2.73,.39-.89,.95-1.61,1.73-2.28,.78-.67,1.67-1.17,2.67-1.56,1-.45,2.17-.61,3.51-.61Zm47.58-8.46c1.39,0,2.73,.22,3.95,.72,1.22,.5,2.28,1.11,3.12,1.95,.89,.83,1.56,1.78,2.06,2.89,.5,1.11,.72,2.23,.72,3.51,0,1.11-.22,2.06-.61,2.84-.39,.78-.89,1.45-1.34,1.89-.61,.61-1.22,1.06-1.89,1.45,.95,.45,1.84,1.06,2.62,1.78,.67,.61,1.28,1.45,1.78,2.5,.56,1.06,.78,2.28,.78,3.78,0,1.22-.28,2.45-.78,3.56s-1.28,2.11-2.23,2.95c-.95,.83-2.06,1.5-3.39,2.06-1.28,.5-2.73,.78-4.29,.78h-14.02V6.4h13.52v-.06ZM88.43,15.03l4.62,15.19,4.9-15.19h3.62l4.9,15.19,4.62-15.19h5.95l-7.74,23.65h-5.18l-4.4-14.14-4.4,14.14h-5.18l-7.74-23.65h6.01Zm36.9,0v23.65h-5.95V15.03h5.95Zm111.64-.22c.28,0,.5,0,.72,.06s.39,.06,.56,.11l.5,.11v6.12c-.17-.06-.33-.06-.56-.11-.17-.06-.39-.06-.67-.11s-.56-.06-.83-.06c-1.45,0-2.62,.45-3.51,1.39-.89,.95-1.39,2.17-1.39,3.73v12.63h-5.96V15.03h4.4l1.06,2.56c.39-.5,.89-1,1.5-1.39,.5-.39,1.06-.72,1.78-1,.72-.28,1.5-.39,2.39-.39h0Zm-26.05,5.62c-1.67,0-3.12,.56-4.23,1.73-1.11,1.17-1.73,2.73-1.73,4.67s.56,3.51,1.73,4.67c1.11,1.17,2.56,1.73,4.23,1.73s3.12-.56,4.23-1.73c1.11-1.17,1.73-2.73,1.73-4.67s-.56-3.51-1.73-4.67c-1.11-1.11-2.5-1.73-4.23-1.73Zm41.52,0c-.78,0-1.5,.17-2.23,.45-.67,.33-1.28,.72-1.78,1.28-.5,.56-.95,1.17-1.22,1.89-.28,.72-.45,1.5-.45,2.34s.17,1.61,.45,2.34c.28,.72,.72,1.34,1.22,1.89,.5,.56,1.11,.95,1.78,1.28,.67,.33,1.45,.45,2.23,.45s1.5-.17,2.17-.45c.67-.33,1.28-.72,1.78-1.28,.5-.56,.95-1.17,1.22-1.89,.33-.72,.45-1.5,.45-2.34s-.17-1.61-.45-2.34c-.33-.72-.72-1.34-1.22-1.89-.5-.56-1.11-.95-1.78-1.28-.67-.28-1.39-.45-2.17-.45h0ZM122.38,5.29c.89,0,1.67,.33,2.34,1s1,1.45,1,2.34-.33,1.67-1,2.34-1.45,1-2.34,1-1.67-.33-2.34-1-1-1.45-1-2.34,.33-1.67,1-2.34c.61-.67,1.39-1,2.34-1Z"/></g></g></svg>