<?xml version="1.0" encoding="UTF-8"?><svg id="Calque_2" xmlns="http://www.w3.org/2000/svg" viewBox="0 0 98.4 79.97"><defs><style>.cls-1{fill:#fff;opacity:.4;}</style></defs><g id="Content"><path class="cls-1" d="M98.4,9.47c-3.62,1.61-7.51,2.69-11.6,3.18,4.17-2.5,7.37-6.45,8.88-11.17-3.9,2.31-8.22,3.99-12.82,4.9-3.68-3.92-8.93-6.38-14.74-6.38-13.03,0-22.61,12.16-19.67,24.79C31.69,23.95,16.81,15.91,6.85,3.69,1.56,12.77,4.11,24.64,13.1,30.65c-3.3-.11-6.42-1.01-9.14-2.53-.22,9.35,6.48,18.1,16.19,20.05-2.84,.77-5.95,.95-9.12,.34,2.57,8.02,10.02,13.85,18.86,14.02-8.49,6.65-19.18,9.63-29.89,8.36,8.93,5.73,19.55,9.07,30.95,9.07,37.48,0,58.66-31.66,57.38-60.05,3.94-2.85,7.37-6.4,10.07-10.45Z"/></g></svg>