<?xml version="1.0" encoding="UTF-8"?><svg id="Calque_2" xmlns="http://www.w3.org/2000/svg" viewBox="0 0 144.87 211.78"><defs><style>.cls-1{fill:#f05a2c;}.cls-2{fill:#ca3028;}</style></defs><g id="Content"><g id="Landing-iphoneX"><g><path class="cls-2" d="M143.66,111.94c-6.81-6.42-26.14-12.17-71.29-21.23C29.22,82.05,.4,74.68,0,66.82V0C1.4,7.1,20.61,13.49,70.87,23.59c45.05,9.05,73.14,16.26,74,24.22,0,0,0,64.93,0,66.2-.24-1.21-1.2-2.07-1.2-2.07"/><path class="cls-2" d="M143.66,209.71c-6.81-6.42-26.14-12.17-71.29-21.23C29.22,179.82,.4,172.45,0,164.59V97.77c1.4,7.1,20.61,13.49,70.87,23.59,45.05,9.05,73.14,16.26,74,24.22,0,0,0,64.93,0,66.2-.24-1.21-1.2-2.07-1.2-2.07"/><path class="cls-1" d="M1.2,160.82c6.81-6.42,26.14-12.17,71.29-21.23,43.15-8.66,71.97-16.03,72.37-23.89V48.88c-1.4,7.1-20.61,13.49-70.87,23.59C28.95,81.52,.86,88.73,0,96.69,0,96.69,0,161.62,0,162.9c.24-1.21,1.2-2.07,1.2-2.07"/></g></g></g></svg>