<?xml version="1.0" encoding="UTF-8"?><svg id="Calque_2" xmlns="http://www.w3.org/2000/svg" viewBox="0 0 36.71 29.83"><defs><style>.cls-1{fill:#fff;opacity:.4;}</style></defs><g id="Content"><g id="LOgo"><path class="cls-1" d="M36.71,3.53c-1.35,.6-2.8,1-4.33,1.19,1.56-.93,2.75-2.41,3.31-4.17-1.45,.86-3.07,1.49-4.78,1.83-1.37-1.46-3.33-2.38-5.5-2.38-4.86,0-8.44,4.54-7.34,9.25-6.26-.31-11.81-3.31-15.52-7.87-1.97,3.39-1.02,7.81,2.33,10.06-1.23-.04-2.4-.38-3.41-.94-.08,3.49,2.42,6.75,6.04,7.48-1.06,.29-2.22,.35-3.4,.13,.96,2.99,3.74,5.17,7.04,5.23-3.17,2.48-7.16,3.59-11.15,3.12,3.33,2.14,7.29,3.38,11.55,3.38,13.98,0,21.88-11.81,21.41-22.4,1.47-1.06,2.75-2.39,3.76-3.9Z"/></g></g></svg>