<?xml version="1.0" encoding="UTF-8"?><svg id="Calque_2" xmlns="http://www.w3.org/2000/svg" viewBox="0 0 242.61 53.74"><defs><style>.cls-1{fill:#fff;}.cls-2{opacity:.4;}</style></defs><g id="Content"><g id="layer1" class="cls-2"><g id="g3346"><path id="path3348" class="cls-1" d="M237.25,0l-13.22,28.35-5-10.76h-5.4l8.2,17.59h4.36L242.61,0h0s-5.36,0-5.36,0Z"/></g><path id="path3358" class="cls-1" d="M96.74,5.13h10.75V14.65h-10.75V5.13ZM12.19,52.64h11.23l12.19-35.05h-10.75l-6.85,22.52h-.14l-6.85-22.52H0L12.19,52.64h0ZM51.62,24.24c3.76,0,6.37,2.81,6.78,6.91h-14.31c.82-4.18,3.08-6.91,7.53-6.91m.55,21.7c-4.72,0-7.6-3.08-8.15-7.8h25.26c.07-7.53-1.92-13.55-6.09-17.32-2.94-2.74-6.85-4.25-11.77-4.25-10.54,0-17.87,8.01-17.87,18.48s6.98,18.62,18.55,18.62c4.38,0,7.87-1.16,10.75-3.15,3.08-2.12,5.27-5.2,5.89-8.28h-10.27c-1.03,2.33-3.15,3.7-6.3,3.7m19.65,6.71h10.68v-16.09c0-7.32,4.38-10.54,11.09-9.65h.21v-9.24c-.55-.21-1.16-.27-2.19-.27-4.17,0-6.98,1.92-9.38,6.02h-.21v-5.82h-10.2V52.64h0Zm24.92,0h10.75V17.59h-10.75V52.64Zm13.69,0h29.99v-8.42h-16.98v-.2l16.23-18.21v-8.22h-29.23v8.42h16.43v.21l-16.43,18.35v8.08h0Zm48.95-6.78c-5.07,0-7.73-4.25-7.73-10.68s2.67-10.68,7.73-10.68,7.87,4.18,7.87,10.68-2.81,10.68-7.87,10.68m.07-29.23c-11.16,0-18.62,8.01-18.62,18.55s7.46,18.55,18.62,18.55,18.62-8.08,18.62-18.55-7.46-18.55-18.62-18.55m20.95,36.01h10.68v-19.51c0-4.45,2.6-7.6,6.43-7.6s5.61,2.6,5.61,6.3v20.81h10.68V29.78c0-7.73-4.66-13.21-12.19-13.21-4.79,0-8.15,2.05-10.68,5.82h-.21v-4.79h-10.34V52.64h0Z"/></g></g></svg>