<?xml version="1.0" encoding="UTF-8"?><svg id="Calque_2" xmlns="http://www.w3.org/2000/svg" viewBox="0 0 110.87 80.57"><defs><style>.cls-1{fill:#f7c3d1;}.cls-2{fill:#fb3a51;}.cls-3{fill:#bb023e;}.cls-4{fill:#911a43;}.cls-5{fill:#dd5966;}</style></defs><g id="Content"><g><path class="cls-2" d="M88.11,2.32c6.17-.81,12.38-1.34,18.56-2.04,.71-.08,1.42-.15,2.12-.24,1.53-.32,2.64,1.42,1.75,2.7-8.53,15.51-13.61,33.25-12.27,51.04,.28,8.25,3.12,15.92,7,23.12,1.08,4.2-13.11,3.97-15.62,3.26-15.93-1.06-13.79-35.77-11.54-46.95,1.68-6.93,3.9-13.75,6.69-20.31,1.25-2.81,2.55-5.6,3.87-8.38,.46-.98,.36-1.59-.55-2.2Z"/><path class="cls-2" d="M60.38,54.52c-3.83,.54-7.67,.93-11.51,1.39-2.77,.32-5.53,.66-8.3,.96-1.65,.18-2.56-.67-2.52-2.33,.32-12.98,2.09-26.12,7.22-38.14,1.71-4.01,3.53-7.98,5.32-11.96,.47-1.05,.39-1.49-.53-2.14,6.17-.82,12.37-1.36,18.55-2.05,1.88-.33,5.05-.66,3.99,2.29-1.11,2.41-2.31,4.78-3.31,7.23-2.97,7.45-6.04,14.91-7.65,22.79-1.26,6.71-1.86,13.54-2.21,20.36-.06,.77,.22,1.3,.94,1.58Z"/><path class="cls-2" d="M22.33,54.52c-3.83,.54-7.68,.93-11.52,1.39-2.77,.32-5.53,.66-8.3,.96C.86,57.06-.04,56.2,0,54.54-.01,36.89,4.64,19.7,12.72,4.07c.58-1.23,1.48-2.01,2.89-2.16C21.53,1.34,27.44,.54,33.37,.03c1.16,0,1.99,1.14,1.53,2.22-.59,1.36-1.29,2.66-1.95,3.99-.16,.07-.4,.1-.47,.22-.15,.26-.23,.57-.29,.87-.15,.71-.69,1.21-.87,1.94-.22,.95-.93,1.76-1,2.79-.62,.1-.5,.6-.45,1.02-1.29,3.23-2.56,6.48-3.6,9.8h0c-2.41,6.75-3.58,13.98-4.27,21.15-.32,2.96-.4,5.94-.61,8.9-.06,.77,.22,1.3,.94,1.58Z"/><path class="cls-3" d="M60.38,54.52c-.72-.29-.99-.81-.94-1.58,.54-10.14,1.46-20.4,4.88-30.02,1.17-1.28,2.4-2.62,3.54-3.87,.5-.03,.68-.41,.95-.76,3.06-3.03,5.92-6.25,9.24-9,2.26-1.53,7.87-7.05,10.07-6.97,.9,.61,1.01,1.23,.55,2.2-2.09,4.49-4.3,8.93-5.95,13.6-1.73,4.97-3.44,9.95-4.6,15.09-5.48,6.64-10.65,13.52-15.98,20.27-.45,.58-.93,1.09-1.75,1.04Z"/><path class="cls-3" d="M22.33,54.52c-.72-.29-.99-.81-.94-1.58,.54-10.15,1.47-20.42,4.89-30.06h0c1.06-1.22,2.16-2.41,3.3-3.57,.59-.05,.75-.6,1.09-.94,5.25-5.57,10.89-10.71,17.13-15.18,.66-.51,1.39-.92,2.27-.88,.92,.64,1,1.09,.53,2.14-1.79,3.98-3.61,7.94-5.32,11.96-2.26,5.34-3.9,10.93-5.08,16.61-5.48,6.73-10.79,13.6-16.11,20.46-.45,.58-.93,1.09-1.75,1.04Z"/><path class="cls-5" d="M30.32,12.07c.07-1.03,.78-1.85,1-2.79,.17-.74,.72-1.24,.87-1.94,.12-.48,.17-1.01,.76-1.1-.86,1.95-1.71,3.91-2.63,5.83Z"/><path class="cls-4" d="M34.82,14.07c-1.21,1.57-2.79,2.86-4.16,4.31-.34,.34-.5,.89-1.09,.93,1.75-1.73,3.28-3.77,5.25-5.24Z"/><path class="cls-4" d="M72.87,14.07c-1.18,1.54-2.74,2.79-4.06,4.23-.27,.34-.46,.72-.95,.76,1.67-1.65,3.13-3.59,5.01-4.98Z"/><path class="cls-1" d="M27.95,20.99c-.56,.63-1.12,1.27-1.68,1.9,.32-.95,.63-1.91,.95-2.86-.15,.59-.3,1.18-.47,1.87,.44-.33,.82-.62,1.2-.91Z"/><path class="cls-5" d="M29.87,13.09c-.04-.43-.19-.9,.45-1.02-.15,.34-.3,.68-.45,1.02Z"/><path class="cls-5" d="M29.61,13.75c.08-.2,.17-.41,.25-.61-.08,.2-.17,.41-.25,.61Z"/><path class="cls-4" d="M67.86,19.04c-.08,.09-.16,.18-.25,.27,.08-.09,.16-.18,.25-.27Z"/><path class="cls-1" d="M26.28,22.88s-.02,.06-.03,.1c0-.04-.03-.08,.03-.1Z"/></g></g></svg>