<?xml version="1.0" encoding="UTF-8"?><svg id="Calque_2" xmlns="http://www.w3.org/2000/svg" viewBox="0 0 204.41 82"><defs><style>.cls-1{fill:#fff;}.cls-2{opacity:.4;}</style></defs><g id="Content"><g class="cls-2"><g><polygon id="Rectangle-path" class="cls-1" points="0 76.29 39.74 76.29 39.74 81.98 0 81.98 0 76.29"/><polygon id="Rectangle-path-2" class="cls-1" points="0 65.38 39.74 65.38 39.74 71.09 0 71.09 0 65.38"/><polygon id="Rectangle-path-3" class="cls-1" points="11.34 54.48 28.39 54.48 28.39 60.19 11.34 60.19 11.34 54.48"/><polygon id="Rectangle-path-4" class="cls-1" points="11.34 43.59 28.39 43.59 28.39 49.3 11.34 49.3 11.34 43.59"/><polygon id="Rectangle-path-5" class="cls-1" points="11.34 32.7 28.39 32.7 28.39 38.41 11.34 38.41 11.34 32.7"/><polygon id="Rectangle-path-6" class="cls-1" points="11.34 21.79 28.39 21.79 28.39 27.49 11.34 27.49 11.34 21.79"/><rect id="Rectangle-path-7" class="cls-1" y="10.89" width="39.74" height="5.71"/><rect id="Rectangle-path-8" class="cls-1" width="39.74" height="5.71"/></g><g><path id="Shape" class="cls-1" d="M45.41,71.09h61.12c1.03-1.76,1.8-3.68,2.27-5.71H45.41v5.71Z"/><path id="Shape-2" class="cls-1" d="M101.78,43.59H56.77v5.71h49.77c-1.3-2.19-2.9-4.11-4.76-5.71Z"/><path id="Shape-3" class="cls-1" d="M56.77,32.7v5.71h45.01c1.9-1.6,3.5-3.52,4.76-5.71H56.77Z"/><path id="Shape-4" class="cls-1" d="M106.54,10.89H45.41v5.71h63.39c-.53-2.02-1.3-3.95-2.27-5.71Z"/><path id="Shape-5" class="cls-1" d="M87.75,0H45.41V5.71h56.93c-3.81-3.52-8.97-5.71-14.6-5.71Z"/><rect id="Rectangle-path-9" class="cls-1" x="56.77" y="21.79" width="17.03" height="5.71"/><path id="Shape-6" class="cls-1" d="M90.85,27.49h17.82c.51-1.82,.77-3.75,.77-5.71h-18.59v5.71h0Z"/><polygon id="Rectangle-path-10" class="cls-1" points="56.77 54.48 73.8 54.48 73.8 60.19 56.77 60.19 56.77 54.48"/><path id="Shape-7" class="cls-1" d="M90.85,54.48v5.71h18.59c0-1.96-.26-3.89-.77-5.71h-17.82Z"/><path id="Shape-8" class="cls-1" d="M45.41,81.94l42.34,.06c5.67,0,10.79-2.19,14.62-5.71H45.41v5.65Z"/></g><g><polygon id="Rectangle-path-11" class="cls-1" points="113.56 76.29 141.95 76.29 141.95 81.98 113.56 81.98 113.56 76.29"/><polygon id="Rectangle-path-12" class="cls-1" points="113.56 65.38 141.95 65.38 141.95 71.09 113.56 71.09 113.56 65.38"/><polygon id="Rectangle-path-13" class="cls-1" points="124.9 54.48 141.95 54.48 141.95 60.19 124.9 60.19 124.9 54.48"/><polygon id="Rectangle-path-14" class="cls-1" points="124.9 43.59 141.95 43.59 141.95 49.3 124.9 49.3 124.9 43.59"/><polygon id="Shape-9" class="cls-1" points="149.84 10.89 113.56 10.89 113.56 16.6 151.81 16.6 149.84 10.89"/><polygon id="Shape-10" class="cls-1" points="146.08 0 113.56 0 113.56 5.71 148.04 5.71 146.08 0"/><polygon id="Rectangle-path-15" class="cls-1" points="176 76.29 204.41 76.29 204.41 81.98 176 81.98 176 76.29"/><polygon id="Rectangle-path-16" class="cls-1" points="176 65.38 204.41 65.38 204.41 71.09 176 71.09 176 65.38"/><polygon id="Rectangle-path-17" class="cls-1" points="176 54.48 193.05 54.48 193.05 60.19 176 60.19 176 54.48"/><polygon id="Rectangle-path-18" class="cls-1" points="176 43.59 193.05 43.59 193.05 49.3 176 49.3 176 43.59"/><polygon id="Shape-11" class="cls-1" points="176 38.41 193.05 38.41 193.05 32.7 176 32.7 176 32.7 160.57 32.7 158.98 37.31 157.38 32.7 141.95 32.7 141.95 32.7 124.9 32.7 124.9 38.41 141.95 38.41 141.95 33.16 143.75 38.41 174.2 38.41 176 33.16 176 38.41"/><polygon id="Shape-12" class="cls-1" points="193.05 21.79 164.34 21.79 162.38 27.49 193.05 27.49 193.05 21.79"/><polygon id="Shape-13" class="cls-1" points="171.89 0 169.93 5.71 204.41 5.71 204.41 0 171.89 0"/><polygon id="Shape-14" class="cls-1" points="158.98 81.94 160.94 76.29 157.01 76.29 158.98 81.94"/><polygon id="Shape-15" class="cls-1" points="155.21 71.09 162.74 71.09 164.77 65.38 153.2 65.38 155.21 71.09"/><polygon id="Shape-16" class="cls-1" points="151.38 60.19 166.57 60.19 168.57 54.48 149.38 54.48 151.38 60.19"/><polygon id="Shape-17" class="cls-1" points="147.58 49.3 170.39 49.3 172.34 43.59 145.61 43.59 147.58 49.3"/><polygon id="Shape-18" class="cls-1" points="124.9 27.49 155.57 27.49 153.61 21.79 124.9 21.79 124.9 27.49"/><polygon id="Shape-19" class="cls-1" points="166.16 16.6 204.41 16.6 204.41 10.89 168.11 10.89 166.16 16.6"/></g></g></g></svg>