<?xml version="1.0" encoding="UTF-8"?><svg id="Calque_2" xmlns="http://www.w3.org/2000/svg" viewBox="0 0 119.53 29.15"><defs><style>.cls-1{fill:#fff;}.cls-2{opacity:.4;}</style></defs><g id="Content"><g id="Layer_1"><g class="cls-2"><g><path class="cls-1" d="M117.85,27.3h0c.29,0,.54-.24,.54-.54,0-.01,0-.02,0-.03,0-.4-.24-.59-.74-.59h-.8v2.11h.3v-.92h.38s.58,.92,.58,.92h.32l-.62-.94h.04Zm-.35-.22h-.35v-.71h.45c.23,0,.49,.04,.49,.34,0,.35-.26,.37-.59,.37M0,4.28H4.46V20.55H12.73v4.12H0V4.28Zm14.71,6.56h4.29v13.81h-4.29V10.85Zm2.14-6.87c1.36,0,2.49,1.12,2.49,2.49s-1.12,2.49-2.49,2.49-2.49-1.12-2.49-2.49,1.12-2.49,2.49-2.49h0m20.09,.3h4.29v12.18l4.86-5.62h5.26l-5.63,6.4,5.51,7.43h-5.39l-4.55-6.83h-.06v6.83h-4.29V4.28Zm-15.57,6.57h4.12v1.89h.06c.84-1.43,2.4-2.29,4.06-2.23,4.35,0,5.15,2.86,5.15,6.58v7.58h-4.29v-6.72c0-1.6-.03-3.66-2.23-3.66s-2.57,1.75-2.57,3.55v6.83h-4.29V10.85Z"/><path class="cls-1" d="M60.38,16.15s0-.04,0-.06c0-1.41-1.16-2.57-2.57-2.57-.02,0-.04,0-.06,0-1.55-.1-2.91,1.08-3.03,2.63h5.66Zm3.63,6.12c-1.44,1.75-3.6,2.76-5.87,2.75-4.29,0-7.72-2.86-7.72-7.3s3.43-7.3,7.72-7.3c4.01,0,6.52,2.86,6.52,7.3v1.34h-9.96c.26,1.57,1.64,2.72,3.23,2.69,1.24,0,2.39-.64,3.06-1.69l3,2.2Zm9.6-8.08c-2.14,0-3.43,1.43-3.43,3.52s1.29,3.52,3.43,3.52,3.43-1.43,3.43-3.52-1.29-3.52-3.43-3.52m7.38,10.47h-3.95v-1.83h-.06c-1,1.35-2.58,2.16-4.26,2.18-4.12,0-6.84-2.97-6.84-7.18,0-3.86,2.4-7.41,6.35-7.41,1.78,0,3.43,.49,4.41,1.83h.06V4.28h4.29V24.66Zm28.96,0h-4.29v-6.72c0-1.6-.03-3.66-2.23-3.66s-2.58,1.75-2.58,3.55v6.83h-4.29V10.85h4.12v1.89h.06c.84-1.43,2.4-2.29,4.06-2.23,4.35,0,5.15,2.86,5.15,6.58v7.58Zm-18.23-15.7h0c-1.37,0-2.49-1.12-2.49-2.49s1.12-2.49,2.49-2.49,2.49,1.12,2.49,2.49h0c0,1.37-1.12,2.49-2.49,2.49m2.14,15.7h-4.29V10.85h4.29v13.81ZM112.09,0h-24.67c-1.16-.01-2.12,.93-2.14,2.09V26.86c.01,1.16,.98,2.1,2.14,2.09h24.67c1.16,.01,2.13-.93,2.14-2.09V2.09c-.02-1.16-.98-2.1-2.14-2.09m5.44,25.21c-1.08,.01-1.96,.9-1.96,1.97s.89,1.97,1.97,1.97,1.97-.89,1.97-1.97-.88-1.96-1.96-1.97h-.04m0,3.72s-.02,0-.03,0c-.95,0-1.73-.78-1.73-1.73s.78-1.73,1.73-1.73,1.72,.76,1.73,1.7v.03c.02,.93-.73,1.71-1.66,1.73h-.05"/></g></g></g></g></svg>