<?xml version="1.0" encoding="UTF-8"?><svg id="Calque_2" xmlns="http://www.w3.org/2000/svg" viewBox="0 0 264.8 64.83"><defs><style>.cls-1{fill:#eaeaea;}.cls-2{fill:#fff;}.cls-3{opacity:.4;}</style></defs><g id="Content"><g class="cls-3"><path class="cls-1" d="M255.98,9.82c-7.13-6.58-17.1-8.93-26.58-9.33-9.28-.05-18.55,0-27.83,0,0,10.27-.05,20.55,0,30.82-4.34-10.42-8.73-20.89-13.17-31.32h-21.44c-1.55,3.69-3.09,7.33-4.64,11.02-4.99-7.38-14.26-10.17-22.74-10.52-10.57-.05-21.19,0-31.87,0V43.54c-6.13-14.51-12.17-29.02-18.3-43.54h-21.44c-9.13,21.59-18.15,43.24-27.28,64.83h23.14c1.15-2.84,2.19-5.78,3.34-8.63h22.59c1.15,2.89,2.24,5.78,3.44,8.63h14.51c.05-6.98-.1-14.01,.1-20.99,2.99,6.98,5.83,14.01,8.88,20.99h12.67v-17.45c6.13,0,12.37,.25,18.35-1.35-2.64,6.28-5.29,12.52-7.88,18.8h23.09c1.15-2.84,2.19-5.73,3.34-8.63h22.59c1.15,2.89,2.24,5.78,3.44,8.63h9.28c.2-10.97-.05-21.99,.1-32.96,1.45,2.49,2.34,5.24,3.49,7.83,3.49,8.38,7.13,16.71,10.47,25.13h12.47c9.67-.4,19.85-2.74,27.23-9.43,6.03-5.34,9.13-13.31,9.48-21.24v-4.19c-.4-7.48-3.19-15.06-8.83-20.15ZM72.61,40.89c1.94-5.19,3.94-10.37,5.88-15.56,1.94,5.19,3.94,10.37,5.88,15.56h-11.77Zm68.67-10.37c-3.59,2.09-7.98,1.25-11.92,1.45v-14.31c3.94,.2,8.18-.65,11.77,1.25,4.34,2.24,4.39,9.33,.15,11.62Zm30.42,10.37c1.94-5.19,3.94-10.37,5.88-15.56,1.94,5.19,3.94,10.37,5.88,15.56h-11.77Zm71.16-5.98c-.35,3.49-2.19,6.83-5.29,8.63-4.29,2.64-9.52,2.59-14.41,2.54V19.25c5.29-.1,11.17-.1,15.56,3.34,3.74,2.79,4.69,7.93,4.14,12.32ZM0,0H40.99c-6.98,5.98-14.11,11.87-21.14,17.85,7.48,.15,15.01-.05,22.54,.1,5.78,.1,11.57-.25,17.3,.25-6.38,.05-12.77,.05-19.2,0,0,15.51,.05,31.07-.05,46.58H19.05c.05-15.56-.1-31.17,.1-46.73-6.38,.05-12.77,0-19.15,0V0Z"/><path class="cls-2" d="M40.99,0h18.7V18.25c-5.73-.5-11.52-.1-17.3-.25-7.53-.15-15.01,.05-22.54-.1C26.88,11.87,34.01,5.98,40.99,0Zm119.09,16.51c.75-1.75,1.3-3.59,2.39-5.14,2.49,3.69,3.29,8.23,3.09,12.62,.3,6.28-2.34,12.72-7.18,16.76-3.09,2.49-6.73,4.39-10.62,5.24,4.09-9.87,8.23-19.7,12.32-29.47h0Zm41.59,15.36c1.45,2.49,2.34,5.24,3.49,7.83,3.49,8.38,7.13,16.71,10.47,25.13h-14.11c.2-10.97-.05-21.99,.15-32.96Zm-93.85,11.97c2.99,6.98,5.83,14.01,8.88,20.99h-8.98c.1-6.98-.1-14.01,.1-20.99Z"/></g></g></svg>