<?xml version="1.0" encoding="UTF-8"?><svg id="Calque_2" xmlns="http://www.w3.org/2000/svg" viewBox="0 0 209.08 79.97"><defs><style>.cls-1{opacity:.4;}.cls-2{fill:#fff;fill-rule:evenodd;}</style></defs><g id="Content"><g class="cls-1"><path class="cls-2" d="M194.12,37.17h-8.21V6.98h7.73v3.38c.96-2.03,3.38-3.83,6.51-4.06,5.31-.23,8.93,2.7,8.93,9.01v21.85h-8.45V14.42c0-2.7,0-4.96-1.93-5.41-.73-.23-1.93,0-2.9,.67-1.21,1.13-1.69,2.48-1.69,4.73,0,0,0,22.75,0,22.75ZM51.44,22.07c0,5.63,0,10.14-.97,12.39-.73,1.12-1.45,1.8-3.14,1.8-1.45,0-2.41-.68-2.89-1.8-1.21-2.25-1.21-6.76-1.21-12.39s0-10.13,1.2-12.39c.48-1.13,1.45-1.8,2.9-1.8,1.69,0,2.42,.67,3.14,1.8,1.21,2.25,.97,6.98,.97,12.39m3.13-13.07c-1.93-1.58-4.34-2.7-7.24-2.7s-5.07,1.13-7.24,2.7c-3.38,2.7-5.56,7.66-5.56,13.06s2.17,10.36,5.56,13.07c2.17,1.57,4.34,2.7,7.24,2.7s5.31-1.13,7.25-2.7c3.62-2.7,5.55-7.44,5.55-13.07s-1.93-10.36-5.55-13.06m84.26,39.65v8.11h-1.69c-.97-3.38-2.42-6.31-6.28-6.53-2.41-.22-4.59,1.13-4.83,3.15-.24,2.03,.48,3.83,4.83,6.09,5.56,2.92,9.9,4.28,9.9,10.36,0,6.53-6.04,9.69-11.11,9.69h-9.66v-11.26h1.69c1.21,5.85,3.14,9.46,7.73,9.69,2.9,0,5.07-1.58,5.07-4.51s-1.93-4.73-6.51-7.21c-5.07-2.93-8.21-4.73-8.21-8.78,0-5.41,4.1-8.78,10.62-8.78h8.45Zm10.62-11.49V15.32c0-6.31-3.62-9.24-8.93-9.01-3.62,.23-5.8,2.48-6.76,4.28-1.21-3.15-3.86-4.51-7.73-4.28-3.13,.23-5.55,2.03-6.52,4.06v-3.38h-7.48v30.18h8.21V14.42c0-2.25,.24-3.6,1.69-4.73,.97-.67,1.93-.9,2.65-.67,1.93,.45,1.93,2.7,1.93,5.41v22.75h8.21V14.19c0-2.03,.48-3.38,1.69-4.51,.97-.67,1.93-.9,2.65-.67,1.93,.45,2.17,2.7,2.17,5.41v22.75h8.21Zm-83.78,0h8.45V.67h-8.45V37.17Zm28.49-27.71c1.69,2.25,1.69,7.65,1.69,11.94,0,4.51,.24,10.36-1.69,12.84-.73,.9-1.45,1.35-2.66,1.35-1.69,0-2.65-1.8-3.13-4.73-.24-2.7-.24-6.08-.24-9.69,0-6.08,.48-12.84,3.62-12.84,1.2,0,1.69,.45,2.41,1.13h0Zm9.9,27.71V.67h-8.45V9.24c-.72-1.58-2.41-2.7-4.83-2.7-6.04,0-10.86,5.86-11.11,14.87-.24,6.08,1.93,16.22,10.38,16.22,3.38,0,5.31-1.8,6.04-3.38v2.93h7.97Zm65.67-18.02l-2.66,1.57c-2.65,1.58-3.13,3.61-3.38,5.86-.24,1.8-.24,3.38,0,6.08,.24,2.48,1.93,2.93,3.38,2.48,1.69-.68,2.66-3.61,2.66-6.76v-9.24Zm4.83-11.26c2.18,1.13,3.62,2.93,3.62,6.98v22.3h-7.97v-3.38c-.96,2.48-3.62,4.05-7.24,4.05-2.89,0-7.96-1.35-7.96-8.33,0-6.54,4.59-7.88,9.66-9.91,4.59-1.8,5.07-2.03,5.07-3.83v-4.96c0-2.03-1.21-2.93-3.62-2.93-.96,.23-2.65,.67-2.65,1.8-.24,1.35,1.45,1.35,1.69,3.38,.24,3.16-2.42,4.28-4.83,4.06-1.69,0-3.62-.9-3.86-3.38-.24-4.06,4.59-7.44,11.35-7.44,3.14,0,5.07,.68,6.76,1.58ZM50.23,61.27l-2.65,1.58c-2.66,1.58-3.14,3.61-3.38,5.86-.24,1.8-.24,3.61,0,6.08,0,2.7,1.69,3.16,3.14,2.48,1.93-.67,2.9-3.38,2.9-6.76v-9.24Zm4.83-11.26c2.17,1.35,3.38,2.93,3.38,6.98v22.53h-7.72v-3.38c-.97,2.25-3.62,3.83-7.24,3.83-3.14,0-7.97-1.12-7.97-8.11,0-6.53,4.59-7.88,9.42-9.91,4.83-2.02,5.31-2.25,5.31-3.83v-4.96c0-2.25-1.21-3.15-3.62-2.93-.97,0-2.65,.45-2.65,1.58-.24,1.58,1.45,1.58,1.69,3.61,.24,2.93-2.41,4.05-4.83,4.05-1.69-.23-3.62-1.13-3.86-3.61-.24-3.83,4.59-7.21,11.35-7.21,3.14,0,5.07,.45,6.76,1.36h0Zm58.43,7.66c0-6.31-3.62-9.46-8.93-9.01-2.65,.22-4.83,1.35-6.04,2.93v-8.78h-8.21v20.73c0,7.65-5.8,14.86-11.59,14.64-4.1,0-5.07-2.93-5.55-6.08-.72-4.51-.72-9.69-.24-15.32,.48-3.6,1.45-6.53,4.35-6.53,2.17,0,2.41,1.35,1.45,2.25-.97,1.13-2.41,2.25-1.69,4.73,.73,2.7,5.31,3.15,7.49,1.13,1.69-1.8,1.45-4.73,.24-6.54-1.45-2.25-3.86-3.15-7.48-3.15-4.59,0-13.28,3.83-13.28,15.99,0,13.07,8.93,15.32,14,15.32,5.8,0,10.86-4.73,12.31-8.56v8.11h8.21v-22.75c0-2.25,.48-3.6,1.69-4.73,.97-.67,2.17-.9,2.9-.67,1.93,.45,1.93,2.7,1.93,5.41v22.75h8.45v-21.85h0ZM28.98,0V12.84h-1.69c-1.45-6.31-4.59-11.04-8.93-11.26-2.9-.23-4.59,1.35-6.04,3.6-1.45,2.7-2.17,8.34-2.17,15.09,0,6.31,.24,11.04,.97,14.42,.48,1.58,1.69,4.05,4.83,4.05,1.69,0,2.9-.45,3.62-1.35,1.2-1.35,1.45-4.06,1.45-5.86v-6.08c0-2.25-.72-3.6-1.93-4.28-.96-.45-2.41-.45-3.13-.68v-1.57h13.52V51.14h-1.69c-.73-2.48-1.21-4.28-2.42-6.31-1.2-2.03-3.38-4.28-7-4.28-3.86-.23-6.76,2.03-6.76,5.41,0,4.51,2.9,5.63,8.21,8.34,5.07,2.7,11.59,4.96,11.59,12.84s-7.01,12.39-14.97,12.39H3.64v-15.55h1.69c2.17,11.72,7.48,13.74,11.11,13.74,4.59,0,6.76-2.7,6.76-6.53-.24-4.96-3.86-6.76-8.93-9.24-7.24-3.83-10.62-5.63-10.62-11.94,.24-5.41,4.83-8.78,9.9-10.14C2.91,38.74-.23,29.74,.01,20.05,.01,10.36,6.05,0,17.88,0h11.11Z"/></g></g></svg>