<?xml version="1.0" encoding="UTF-8"?><svg id="Calque_2" xmlns="http://www.w3.org/2000/svg" xmlns:xlink="http://www.w3.org/1999/xlink" viewBox="0 0 220.39 111.93"><defs><style>.cls-1{fill:none;}.cls-2{clip-path:url(#clippath);}.cls-3{fill:#fff;}.cls-4{opacity:.4;}</style><clipPath id="clippath"><rect class="cls-1" width="220.39" height="111.93"/></clipPath></defs><g id="Content"><g class="cls-4"><rect class="cls-3" x="61.11" y="66.88" width="4.04" height="19.23"/><g class="cls-2"><path class="cls-3" d="M68.4,66.88h9.25c3.32,0,5.78,1.39,5.78,5.99s-2.2,5.33-3.38,5.67l4.02,7.56h-4.56l-3.5-7.28-3.55-.37v7.64h-4.05v-19.23Zm8.87,8.69c1.39,0,2.08-.37,2.08-2.7,0-2.18-.81-2.73-2.08-2.73h-4.8v5.44h4.8Z"/><polygon class="cls-3" points="85.65 66.88 101.28 66.88 101.28 70.27 95.42 70.27 95.42 86.11 91.37 86.11 91.37 70.27 85.65 70.27 85.65 66.88"/><path class="cls-3" d="M103.84,66.88h4.04v10.82c0,4.39,1.07,5.15,4.1,5.15,2.69,0,3.93-.89,3.93-5.15v-10.82h4.07v10.82c0,8.48-4.51,8.54-8,8.54-3.93,0-8.15,.21-8.15-8.54v-10.82Z"/><path class="cls-3" d="M122.76,71.68c0-3.81,2.48-4.91,5.72-4.96,3.03-.05,6.5,.31,8.18,.76v2.89c-1.85-.16-6.04-.26-7.08-.26-1.76-.03-2.77,.08-2.77,1.86v.94c0,1.52,.64,1.84,2.25,1.84h3.35c4.16,0,5,2.97,5,5.1v1.29c0,4.36-2.97,5.17-5.84,5.17-3.61,0-5.98-.21-8.18-.79v-2.89c1.16,.1,4.68,.29,7.37,.29,1.21,0,2.6-.18,2.6-1.66v-1.02c0-1.1-.35-1.81-1.91-1.81h-3.24c-5.11,0-5.46-3.41-5.46-5.09v-1.66Z"/><path class="cls-3" d="M140.63,66.94h4.04v14.47c0,1.39,.95,1.37,1.79,1.37h7.25v3.39h-8.7c-2.28,0-4.39-.79-4.39-3.73v-15.5Z"/><path class="cls-3" d="M163.09,66.94h4.59l6.88,19.23h-4.3l-1.5-4.26h-6.93l-1.53,4.26h-4.33l7.14-19.23Zm4.71,11.72l-2.37-6.88-2.54,6.88h4.91Z"/><path class="cls-3" d="M177.03,66.94h8.73c4.36,0,5.95,2.36,5.95,5.15,0,1.76-.84,3.76-2.89,4.1,1.76,.29,3.24,1.89,3.24,4.33,0,3.57-1.79,5.65-6.24,5.65h-8.79v-19.23Zm8.47,7.62c1.47,0,2.22-.82,2.22-2.18,0-1.79-1.18-2.18-2.22-2.18h-4.42v4.36h4.42Zm.17,8.35c1.21,0,2.34-.53,2.34-2.55,0-1.42-.64-2.71-2.34-2.71h-4.59v5.25h4.59Z"/><path class="cls-3" d="M106.73,33.94c-.19-.47-.65-.77-1.15-.77h-5.12c-.27,0-.53,.09-.75,.25l-7.7,5.77-9.17-17.19s-.04-.06-.06-.09c-.02-.03-.02-.06-.04-.08-.01-.02-.03-.03-.04-.04-.05-.06-.1-.1-.15-.15-.04-.03-.07-.06-.11-.09-.06-.04-.13-.07-.2-.1-.04-.01-.07-.03-.11-.05-.08-.03-.17-.04-.26-.05-.03,0-.05-.01-.08-.01,0,0,0,0-.01,0-.12,0-.23,.01-.34,.04,0,0,0,0,0,0l-19.9,5.32c-.39,.1-.7,.38-.84,.76l-19.73,50.97-6.33-15.52c-.17-.42-.55-.71-1-.77l-10.57-1.38c-.48-.06-.94,.15-1.21,.56-.26,.4-.27,.92-.02,1.33l15.69,26.01s.02,.02,.02,.03c0,.01,.01,.02,.02,.04,.03,.04,.07,.08,.1,.11,.03,.03,.05,.06,.08,.09,.05,.04,.1,.08,.16,.12,.03,.02,.06,.05,.09,.07,.06,.03,.13,.06,.2,.08,.03,.01,.06,.03,.09,.03,.1,.03,.2,.04,.31,.04h4.93c.44,0,.86-.24,1.08-.62l29.55-50.57,11.41,8.01s.08,.04,.11,.06c.06,.03,.11,.06,.18,.09,.06,.02,.12,.03,.18,.05,.04,0,.08,.03,.12,.03l7.88,.79s.08,0,.12,0c.33,0,.65-.13,.88-.36l11.44-11.43c.36-.36,.46-.9,.27-1.36m-74.17,30.58l7.06,17.3-1.27,3.29-.03,.07-13.03-21.61,7.27,.95Zm10.22,22.24h-2.39l1.74-4.49s0,0,0,0L62.75,28.95l16.35-4.37-4.88,8.35-1.58,2.71-29.88,51.12ZM81.34,25.72l.33-.57,8.3,15.56-.47,.35-3.28,2.46-10.84-7.61,5.95-10.18Zm12.33,18.82l-4.1-.41,2.76-2.07h0l8.54-6.4h1.69l-8.89,8.88Z"/></g></g></g></svg>