<?xml version="1.0" encoding="UTF-8"?><svg id="Calque_2" xmlns="http://www.w3.org/2000/svg" viewBox="0 0 213.23 60.8"><defs><style>.cls-1{fill:#fff;}.cls-2{opacity:.4;}</style></defs><g id="Content"><g class="cls-2"><rect class="cls-1" x="24.06" y="24.86" width="10.6" height="11.09"/><path class="cls-1" d="M0,0V60.8H60.8V0H0ZM46.54,24.8h-.3l-.06,.06h-5.48v14.19c0,1.71-1.34,3.11-3.05,3.17H21.02c-1.71-.06-3.05-1.46-3.05-3.17V21.63c0-1.71,1.34-3.11,3.05-3.17h25.28c1.77-.06,3.23,1.28,3.29,3.05,.06,1.77-1.28,3.23-3.05,3.29Z"/><polygon class="cls-1" points="90.96 27.41 86.39 27.41 86.39 11.88 81.57 11.88 81.57 31.92 90.96 31.92 90.96 27.41"/><path class="cls-1" d="M109.54,23.88V11.88h-4.87v12c0,2.25-1.1,3.84-3.41,3.84s-3.41-1.58-3.41-3.84V11.82h-4.93v12.06c0,5,2.56,8.35,8.22,8.35s8.41-3.53,8.41-8.35Z"/><polygon class="cls-1" points="129.95 31.92 129.95 11.88 125.32 11.88 125.32 24 117.76 11.88 112.77 11.88 112.77 31.92 117.46 31.92 117.46 20.04 125.19 31.92 129.95 31.92"/><path class="cls-1" d="M138.78,11.88l-7.01,20.04h4.75l1.58-4.75h6.27l1.71,4.75h5.12l-7.37-20.04h-5.06Zm.79,11.21l1.77-5.06,1.77,5.06h-3.53Z"/><polygon class="cls-1" points="150.48 16.39 153.83 16.39 153.83 31.92 158.7 31.92 158.7 16.39 162.05 16.39 162.05 11.88 150.48 11.88 150.48 16.39"/><polygon class="cls-1" points="174.3 16.39 174.3 11.88 164.79 11.88 164.79 31.92 174.42 31.92 174.42 27.41 169.67 27.41 169.67 23.94 174.18 23.94 174.18 19.49 169.67 19.49 169.67 16.39 174.3 16.39"/><path class="cls-1" d="M187.64,16.02c1.4,0,2.8,.55,3.84,1.52l2.86-3.66c-1.89-1.58-4.33-2.44-6.76-2.32-5.6-.24-10.36,4.08-10.6,9.69h0v.73c-.18,5.48,4.08,10.11,9.56,10.36h1.1c2.44,.06,4.81-.91,6.58-2.62l-2.86-3.41c-1.04,.97-2.38,1.52-3.78,1.58-3.05,.06-5.54-2.44-5.6-5.48v-.43c-.3-2.99,1.89-5.6,4.87-5.91h0c.3-.06,.55-.06,.79-.06Z"/><polygon class="cls-1" points="196.59 11.88 196.59 31.92 201.41 31.92 201.41 24 208.41 24 208.41 31.92 213.23 31.92 213.23 11.88 208.41 11.88 208.41 19.43 201.41 19.43 201.41 11.88 196.59 11.88"/><path class="cls-1" d="M84.38,48.19c-.73,.06-1.46-.37-1.83-1.04l-.97,.55c.49,1.1,1.64,1.77,2.8,1.58,1.46,0,2.74-.61,2.74-2.07s-1.28-1.89-2.62-2.07c-.79-.06-1.46-.24-1.46-.79s.43-.85,1.34-.85c.61-.06,1.22,.24,1.58,.73l.97-.49c-.55-.91-1.52-1.4-2.56-1.28-1.22,0-2.5,.55-2.5,1.89s1.22,1.83,2.56,1.95c.85,.06,1.58,.3,1.58,.97s-.85,.91-1.64,.91Z"/><rect class="cls-1" x="91.38" y="42.65" width="1.22" height="6.52"/><polygon class="cls-1" points="103.99 49.16 103.99 42.65 102.59 42.65 100.58 45.45 98.51 42.65 97.11 42.65 97.11 49.16 98.33 49.16 98.33 44.41 100.4 47.28 100.64 47.28 102.78 44.47 102.78 49.16 103.99 49.16"/><path class="cls-1" d="M109.72,47.21h1.83c1.28,.06,2.38-.91,2.44-2.19,.06-1.22-.85-2.25-2.01-2.38h-3.41v6.52h1.22l-.06-1.95Zm0-3.41h1.83c.61,.06,1.1,.61,1.1,1.22-.06,.55-.49,1.04-1.1,1.1h-1.83v-2.32Z"/><polygon class="cls-1" points="118.13 42.65 118.13 49.16 122.64 49.16 122.64 48.01 119.35 48.01 119.35 42.65 118.13 42.65"/><rect class="cls-1" x="126.9" y="42.65" width="1.22" height="6.52"/><polygon class="cls-1" points="137.26 43.86 137.26 42.65 132.57 42.65 132.57 49.16 133.78 49.16 133.78 46.73 137.07 46.73 137.07 45.63 133.78 45.63 133.78 43.86 137.26 43.86"/><polygon class="cls-1" points="145.05 49.16 145.05 46.48 147.67 42.71 147.67 42.65 146.15 42.65 144.45 45.33 142.8 42.65 141.34 42.65 141.34 42.71 143.84 46.48 143.84 49.16 145.05 49.16"/><polygon class="cls-1" points="160.1 49.16 160.1 46.48 162.66 42.71 162.66 42.65 161.2 42.65 159.49 45.33 157.85 42.65 156.39 42.65 156.39 42.71 158.88 46.48 158.88 49.16 160.1 49.16"/><path class="cls-1" d="M166.32,45.94c0,1.83,1.46,3.35,3.35,3.35s3.35-1.46,3.35-3.35-1.46-3.35-3.35-3.35-3.35,1.52-3.35,3.35h0Zm5.48,0c0,1.16-.97,2.13-2.13,2.13s-2.13-.97-2.13-2.13h0c0-1.16,.97-2.13,2.13-2.13s2.13,.97,2.13,2.13Z"/><path class="cls-1" d="M177.22,42.65v3.72c-.12,1.46,.97,2.8,2.5,2.92h.37c1.46,.12,2.68-.97,2.8-2.44v-4.2h-1.22v3.72c0,1.1-.55,1.77-1.58,1.77-.85,0-1.58-.67-1.58-1.58h0v-3.96l-1.28,.06Z"/><path class="cls-1" d="M192.88,44.78c0-1.22-.97-2.13-2.13-2.13h-3.35v6.52h1.22v-2.19h1.22l1.89,2.19h1.46v-.06l-1.95-2.19c.97-.18,1.71-1.1,1.64-2.13Zm-2.38,1.1h-1.83v-2.07h1.83c.55-.12,1.1,.3,1.22,.85s-.3,1.1-.85,1.22h-.37Z"/><rect class="cls-1" x="202.26" y="42.65" width="1.22" height="6.52"/><path class="cls-1" d="M207.87,43.74h2.07v5.36h1.22v-5.36h2.07v-1.1h-5.36v1.1Z"/></g></g></svg>