<?xml version="1.0" encoding="UTF-8"?><svg id="Calque_2" xmlns="http://www.w3.org/2000/svg" viewBox="0 0 210.76 63.21"><defs><style>.cls-1{fill:#fff;opacity:.4;}</style></defs><g id="Content"><path class="cls-1" d="M31.61,0C14.15,0,0,14.15,0,31.61s14.15,31.61,31.61,31.61,31.61-14.15,31.61-31.61S49.06,0,31.61,0h0Zm14.49,45.58c-.57,.93-1.78,1.22-2.71,.66-7.42-4.54-16.76-5.56-27.77-3.05-1.06,.24-2.12-.42-2.36-1.48-.24-1.06,.42-2.12,1.48-2.36,12.04-2.75,22.37-1.57,30.7,3.52,.93,.57,1.22,1.78,.65,2.71h0Zm3.87-8.61c-.71,1.16-2.23,1.52-3.39,.81-8.49-5.22-21.45-6.73-31.49-3.68-1.3,.39-2.68-.34-3.08-1.64-.39-1.3,.34-2.68,1.64-3.07,11.48-3.48,25.75-1.8,35.5,4.2,1.16,.71,1.52,2.23,.81,3.39h0s0,0,0,0Zm.33-8.96c-10.19-6.05-26.99-6.61-36.72-3.65-1.56,.47-3.21-.41-3.69-1.97-.47-1.56,.41-3.21,1.97-3.69,11.16-3.39,29.72-2.73,41.45,4.23,1.4,.83,1.87,2.65,1.03,4.05-.83,1.4-2.65,1.87-4.05,1.03h0Zm35.69,1.16c-5.46-1.3-6.43-2.21-6.43-4.13,0-1.81,1.71-3.03,4.25-3.03s4.9,.93,7.46,2.83c.08,.06,.17,.08,.27,.07,.1-.01,.18-.07,.24-.15l2.66-3.76c.11-.15,.08-.37-.07-.49-3.04-2.44-6.47-3.63-10.48-3.63-5.89,0-10.01,3.54-10.01,8.6,0,5.43,3.55,7.35,9.69,8.83,5.22,1.2,6.1,2.21,6.1,4.01,0,2-1.78,3.24-4.65,3.24-3.19,0-5.78-1.07-8.69-3.59-.07-.06-.17-.09-.26-.09-.1,0-.18,.05-.25,.13l-2.99,3.56c-.13,.15-.11,.37,.04,.5,3.38,3.02,7.54,4.61,12.03,4.61,6.35,0,10.45-3.47,10.45-8.84,.01-4.53-2.7-7.04-9.35-8.66h-.01s0,0,0,0Zm23.72-5.38c-2.75,0-5.01,1.08-6.87,3.31v-2.5c0-.2-.16-.36-.36-.36h-4.89c-.2,0-.36,.16-.36,.36v27.78c0,.2,.16,.36,.36,.36h4.89c.2,0,.36-.16,.36-.36v-8.77c1.86,2.09,4.12,3.11,6.87,3.11,5.11,0,10.29-3.94,10.29-11.46,0-7.53-5.17-11.46-10.28-11.46h0s0,0,0,0Zm4.61,11.46c0,3.83-2.36,6.51-5.74,6.51s-5.86-2.8-5.86-6.51,2.52-6.51,5.86-6.51c3.33,0,5.74,2.74,5.74,6.51h0s0,0,0,0Zm18.95-11.46c-6.59,0-11.74,5.07-11.74,11.55s5.12,11.42,11.66,11.42,11.78-5.05,11.78-11.5-5.14-11.46-11.7-11.46h0Zm0,18.01c-3.5,0-6.14-2.81-6.14-6.55s2.55-6.47,6.06-6.47,6.18,2.81,6.18,6.55-2.57,6.46-6.1,6.46h0Zm25.77-17.56h-5.38v-5.5c0-.2-.16-.36-.36-.36h-4.89c-.2,0-.36,.16-.36,.36v5.5h-2.35c-.2,0-.36,.16-.36,.36v4.2c0,.2,.16,.36,.36,.36h2.35v10.87c0,4.39,2.19,6.62,6.5,6.62,1.75,0,3.21-.36,4.58-1.14,.11-.06,.18-.18,.18-.31v-4c0-.12-.06-.24-.17-.3-.11-.07-.24-.07-.35-.02-.94,.47-1.85,.69-2.87,.69-1.57,0-2.27-.71-2.27-2.31v-10.1h5.38c.2,0,.36-.16,.36-.36v-4.2c0-.2-.15-.36-.35-.36h0Zm18.73,.02v-.68c0-1.99,.76-2.87,2.47-2.87,1.02,0,1.84,.2,2.75,.51,.11,.04,.23,.02,.32-.05,.09-.07,.15-.18,.15-.29v-4.12c0-.16-.1-.3-.25-.34-.97-.29-2.21-.58-4.06-.58-4.51,0-6.9,2.54-6.9,7.35v1.03h-2.35c-.2,0-.36,.16-.36,.36v4.22c0,.2,.16,.36,.36,.36h2.35v16.76c0,.2,.16,.36,.36,.36h4.89c.2,0,.36-.16,.36-.36V29.16h4.56l6.99,16.76c-.79,1.76-1.57,2.11-2.64,2.11-.86,0-1.77-.26-2.69-.76-.09-.05-.19-.06-.28-.03-.09,.03-.17,.1-.21,.19l-1.66,3.63c-.08,.17-.01,.37,.15,.46,1.73,.94,3.29,1.34,5.22,1.34,3.61,0,5.6-1.68,7.36-6.2l8.48-21.91c.04-.11,.03-.23-.04-.33-.07-.1-.18-.16-.29-.16h-5.09c-.15,0-.29,.1-.34,.24l-5.21,14.88-5.71-14.89c-.05-.14-.19-.23-.33-.23h-8.35s0,0,0,0Zm-10.86-.02h-4.89c-.2,0-.36,.16-.36,.36v21.32c0,.2,.16,.36,.36,.36h4.89c.2,0,.36-.16,.36-.36V24.6c0-.2-.16-.36-.36-.36,0,0,0,0,0,0h0Zm-2.42-9.71c-1.94,0-3.51,1.57-3.51,3.5s1.57,3.51,3.51,3.51,3.5-1.57,3.5-3.51-1.57-3.5-3.5-3.5h0Zm42.81,16.56c-1.93,0-3.44-1.55-3.44-3.44s1.52-3.46,3.46-3.46,3.44,1.55,3.44,3.44-1.52,3.46-3.46,3.46h0Zm.02-6.55c-1.76,0-3.09,1.4-3.09,3.11s1.32,3.1,3.08,3.1,3.1-1.4,3.1-3.11-1.32-3.1-3.08-3.1h0Zm.76,3.45l.97,1.36h-.82l-.88-1.25h-.75v1.25h-.69v-3.61h1.61c.84,0,1.39,.43,1.39,1.15,0,.59-.34,.95-.83,1.1h0Zm-.58-1.63h-.9v1.14h.9c.45,0,.71-.22,.71-.57,0-.37-.27-.57-.71-.57h0Z"/></g></svg>