<?xml version="1.0" encoding="UTF-8"?><svg id="Calque_2" xmlns="http://www.w3.org/2000/svg" viewBox="0 0 219.36 63.75"><defs><style>.cls-1{fill:#fff;}.cls-2{opacity:.4;}</style></defs><g id="Content"><g class="cls-2"><path class="cls-1" d="M0,.03H46.03V11.77H13.79v14.22h29.49v11.8H13.78v14.16H46.02v11.79H0v-25.97H13.61v-11.7H0V.03Z"/><path class="cls-1" d="M57.91,0h.82C68.1,0,77.46,0,86.83,0c4.39,0,8.56,.85,12.5,2.92,4.32,2.27,7.05,5.74,8.27,10.39,.46,1.77,.77,3.62,.78,5.44,.03,4.06-.88,7.89-3.33,11.25-1.42,1.95-3.23,3.4-5.28,4.63-2.63,1.58-5.49,2.44-8.49,2.86-1.33,.19-2.69,.27-4.03,.28-4.9,.03-9.8,.01-14.7,.01h-.96v25.95h-13.67V0Zm13.56,25.9c4.45,0,8.8,.02,13.15,0,2.18-.01,4.31-.33,6.33-1.21,2.42-1.05,3.84-2.83,3.92-5.54,.08-2.68-1.13-4.57-3.48-5.84-2.12-1.15-4.43-1.37-6.76-1.41-4.19-.09-8.39-.07-12.58-.1-.2,0-.4,.05-.59,.07v14.02Z"/><path class="cls-1" d="M173.28,.04h13.78V51.98h32.3v11.76h-46.09V.04Z"/><path class="cls-1" d="M131.03,26.01h-13.84V.07h46.14V11.79h-32.32v14.24l.02-.02Z"/><path class="cls-1" d="M130.83,63.75h-13.64v-25.97h13.64v25.97Z"/><path class="cls-1" d="M131.01,26.03c.19-.01,.38-.03,.56-.03,9.44,0,18.89,0,28.33,0h.66v11.76h-29.54v-11.74l-.02,.02Z"/></g></g></svg>