<?xml version="1.0" encoding="UTF-8"?><svg id="Calque_2" xmlns="http://www.w3.org/2000/svg" viewBox="0 0 294.12 67.29"><defs><style>.cls-1{fill:#f06627;}.cls-2{fill:#fff;}</style></defs><g id="Content"><g id="UI-Design"><g id="Assets"><g id="scaladex-brand"><path id="Scaladex" class="cls-2" d="M87.34,42c1.28,1.21,2.75,2.19,4.4,2.95,1.65,.75,3.3,1.13,4.95,1.13,2.06,0,3.62-.42,4.68-1.27,1.06-.84,1.6-1.96,1.6-3.36,0-.73-.14-1.36-.41-1.87-.28-.51-.66-.96-1.16-1.35-.5-.39-1.08-.74-1.76-1.07s-1.42-.66-2.23-.99l-4.95-2.15c-.88-.37-1.75-.83-2.62-1.38-.86-.55-1.64-1.21-2.34-1.98-.7-.77-1.26-1.67-1.68-2.7s-.63-2.2-.63-3.52c0-1.43,.3-2.76,.91-3.99,.61-1.23,1.44-2.3,2.5-3.22,1.06-.92,2.34-1.63,3.83-2.15s3.11-.77,4.87-.77c2.09,0,4.11,.41,6.06,1.24,1.95,.83,3.62,1.94,5.01,3.33l-3.25,4.07c-1.17-.95-2.39-1.71-3.63-2.26s-2.64-.83-4.18-.83c-1.73,0-3.1,.38-4.13,1.13-1.03,.75-1.54,1.79-1.54,3.11,0,.7,.16,1.29,.47,1.79,.31,.5,.73,.94,1.27,1.32,.53,.39,1.15,.73,1.84,1.05s1.41,.61,2.15,.91l4.9,2.04c1.06,.44,2.04,.95,2.92,1.54,.88,.59,1.64,1.27,2.28,2.04s1.15,1.66,1.51,2.67,.55,2.17,.55,3.5c0,1.47-.29,2.84-.88,4.13s-1.44,2.41-2.56,3.39c-1.12,.97-2.48,1.74-4.07,2.31-1.6,.57-3.4,.85-5.42,.85-2.42,0-4.76-.46-7.02-1.38-2.26-.92-4.25-2.22-5.97-3.91l3.74-4.35Zm26.43-4.51c0-2.24,.37-4.24,1.1-6,.73-1.76,1.73-3.25,2.97-4.46,1.25-1.21,2.69-2.14,4.32-2.78,1.63-.64,3.35-.96,5.15-.96s3.29,.3,4.6,.91c1.3,.61,2.41,1.35,3.33,2.23l-3.03,4.02c-.73-.62-1.47-1.11-2.2-1.46-.73-.35-1.52-.52-2.37-.52-2.2,0-3.98,.82-5.34,2.45-1.36,1.63-2.04,3.83-2.04,6.58s.67,4.89,2.01,6.52c1.34,1.63,3.07,2.45,5.2,2.45,1.1,0,2.12-.23,3.06-.69,.94-.46,1.77-1,2.5-1.62l2.64,4.02c-1.28,1.14-2.7,2-4.24,2.59-1.54,.59-3.08,.88-4.62,.88-1.84,0-3.55-.31-5.15-.94-1.6-.62-2.98-1.54-4.16-2.75-1.17-1.21-2.09-2.7-2.75-4.46-.66-1.76-.99-3.76-.99-6h0Zm26.04,6.22c0-2.9,1.27-5.14,3.8-6.72,2.53-1.58,6.57-2.68,12.11-3.3,0-.7-.09-1.37-.28-2.01-.18-.64-.47-1.21-.85-1.71s-.88-.88-1.49-1.16c-.61-.28-1.37-.41-2.28-.41-1.36,0-2.67,.26-3.94,.77-1.27,.51-2.49,1.14-3.66,1.87l-2.31-4.24c1.5-.95,3.18-1.78,5.04-2.48s3.86-1.05,6.03-1.05c3.41,0,5.95,1,7.6,3,1.65,2,2.48,4.89,2.48,8.67v16.02h-5.18l-.5-2.97h-.17c-1.21,1.03-2.5,1.89-3.88,2.59-1.38,.7-2.87,1.05-4.49,1.05-2.39,0-4.32-.72-5.81-2.17-1.49-1.45-2.23-3.37-2.23-5.75h0Zm6.17-.5c0,1.21,.36,2.09,1.07,2.64,.72,.55,1.64,.83,2.78,.83s2.11-.26,3.03-.77c.92-.51,1.87-1.25,2.86-2.2v-6.06c-1.84,.22-3.38,.51-4.62,.88-1.25,.37-2.25,.78-3,1.24-.75,.46-1.29,.98-1.62,1.57-.33,.59-.5,1.21-.5,1.87h0Zm23.78-31.11h6.33V44.37c0,.77,.15,1.31,.44,1.62,.29,.31,.61,.47,.94,.47h.41c.13,0,.32-.04,.58-.11l.83,4.73c-.84,.37-1.96,.55-3.36,.55-2.28,0-3.87-.68-4.79-2.04-.92-1.36-1.38-3.21-1.38-5.56V12.11Zm13.76,31.6c0-2.9,1.27-5.14,3.8-6.72,2.53-1.58,6.57-2.68,12.11-3.3,0-.7-.09-1.37-.28-2.01-.18-.64-.47-1.21-.85-1.71-.39-.5-.88-.88-1.49-1.16-.61-.28-1.37-.41-2.28-.41-1.36,0-2.67,.26-3.94,.77-1.27,.51-2.49,1.14-3.66,1.87l-2.31-4.24c1.5-.95,3.18-1.78,5.04-2.48,1.85-.7,3.86-1.05,6.03-1.05,3.41,0,5.95,1,7.6,3,1.65,2,2.48,4.89,2.48,8.67v16.02h-5.18l-.5-2.97h-.17c-1.21,1.03-2.5,1.89-3.88,2.59-1.38,.7-2.87,1.05-4.49,1.05-2.39,0-4.32-.72-5.81-2.17-1.49-1.45-2.23-3.37-2.23-5.75h0Zm6.17-.5c0,1.21,.36,2.09,1.07,2.64,.72,.55,1.64,.83,2.78,.83s2.11-.26,3.03-.77c.92-.51,1.87-1.25,2.86-2.2v-6.06c-1.84,.22-3.38,.51-4.62,.88-1.25,.37-2.25,.78-3,1.24-.75,.46-1.29,.98-1.62,1.57-.33,.59-.5,1.21-.5,1.87h0Zm22.13-5.73c0-2.2,.32-4.18,.96-5.95,.64-1.76,1.5-3.25,2.56-4.46,1.06-1.21,2.28-2.15,3.66-2.81,1.38-.66,2.8-.99,4.27-.99,1.54,0,2.84,.27,3.91,.8s2.13,1.26,3.19,2.17l-.22-4.35V12.11h6.33V50.98h-5.23l-.44-2.92h-.22c-.99,.99-2.15,1.84-3.47,2.53-1.32,.7-2.72,1.05-4.18,1.05-3.41,0-6.12-1.24-8.12-3.72-2-2.48-3-5.95-3-10.43h0Zm6.55-.06c0,2.94,.52,5.17,1.57,6.69,1.05,1.52,2.56,2.28,4.54,2.28s3.91-1.01,5.67-3.03v-12.61c-.95-.84-1.88-1.43-2.78-1.76s-1.81-.5-2.73-.5c-1.76,0-3.25,.77-4.46,2.31-1.21,1.54-1.82,3.74-1.82,6.61h0Zm24.39,.06c0-2.2,.35-4.18,1.05-5.95,.7-1.76,1.62-3.25,2.78-4.46,1.16-1.21,2.49-2.15,3.99-2.81,1.5-.66,3.05-.99,4.62-.99,1.84,0,3.45,.31,4.84,.94,1.39,.62,2.56,1.5,3.5,2.64,.94,1.14,1.64,2.5,2.12,4.07,.48,1.58,.72,3.3,.72,5.18,0,1.25-.09,2.24-.28,2.97h-17.18c.29,2.46,1.15,4.35,2.56,5.67,1.41,1.32,3.22,1.98,5.42,1.98,1.17,0,2.27-.17,3.28-.52,1.01-.35,2.01-.83,3-1.46l2.15,3.96c-1.28,.84-2.72,1.54-4.29,2.09-1.58,.55-3.23,.83-4.95,.83-1.87,0-3.62-.32-5.23-.96-1.61-.64-3.03-1.57-4.24-2.78-1.21-1.21-2.16-2.69-2.84-4.43-.68-1.74-1.02-3.73-1.02-5.97h0Zm18.11-2.42c0-2.17-.45-3.85-1.35-5.06-.9-1.21-2.28-1.82-4.16-1.82-1.61,0-3.03,.58-4.24,1.73-1.21,1.16-1.96,2.87-2.26,5.15h12Zm16.9,1.82l-8.04-12.94h6.83l3.03,5.12c.4,.73,.82,1.5,1.24,2.28s.83,1.55,1.24,2.28h.22c.33-.73,.68-1.5,1.05-2.28,.37-.79,.72-1.55,1.05-2.28l2.59-5.12h6.55l-7.98,13.65,8.59,13.38h-6.83l-3.3-5.34c-.44-.81-.89-1.61-1.35-2.42-.46-.81-.93-1.6-1.4-2.37h-.22c-.4,.77-.8,1.55-1.18,2.34-.39,.79-.78,1.61-1.18,2.45l-2.86,5.34h-6.61l8.59-14.09Z"/><path id="Icon" class="cls-1" d="M22.37,6.12H57.03V0H18.29L0,33.64l18.29,33.51v.14H57.03v-6.12H22.51L7.71,33.64,22.37,6.12Zm4.08,12.23h38.74v6.12H26.45v-6.12Zm0,12.23h22.43v6.12H26.45v-6.12Zm0,12.23h30.59v6.12H26.45v-6.12Z"/></g></g></g></g></svg>