<?xml version="1.0" encoding="UTF-8"?><svg id="Calque_2" xmlns="http://www.w3.org/2000/svg" viewBox="0 0 221.95 33.72"><defs><style>.cls-1,.cls-2{fill:#fff;}.cls-3{opacity:.4;}.cls-2{fill-rule:evenodd;}</style></defs><g id="Content"><g class="cls-3"><path class="cls-1" d="M32.21,24.96v-5.98l-.68-.37-15.43,8.48L1.45,19.05v-3.47s14.65,7.96,14.65,7.96l16.1-8.76v-5.89l-.68-.37-15.43,8.48L2.06,9.28,16.1,1.61l11.34,6.19,.85-.46v-.69L16.1,0,0,8.79v.87l16.1,8.78,14.65-8v3.51l-14.65,8.05L.68,13.53l-.68,.37v5.97l16.1,8.76,14.65-7.97v3.48l-14.65,8.05L.68,23.71l-.68,.37v.88l16.1,8.76,16.1-8.76Z"/><path class="cls-2" d="M62.85,1.78V28.84h0s-4.31,0-4.31,0v-2.02c0-.15-.1-.28-.24-.34-.14-.05-.31,0-.41,.11-1.5,1.73-3.78,2.71-6.24,2.71-2.6,0-5-1.01-6.76-2.83-1.77-1.83-2.74-4.34-2.74-7.06,0-5.55,4.17-9.89,9.5-9.89,2.51,0,4.78,.95,6.24,2.6,.1,.11,.27,.15,.41,.1,.14-.05,.24-.19,.24-.34V1.78h4.31Zm-16.35,17.64c0,3.43,2.69,6.11,6.12,6.11s6.12-2.69,6.12-6.11-2.69-6.11-6.12-6.11-6.12,2.69-6.12,6.11Z"/><path class="cls-2" d="M85.87,9.99V28.83h-4.27v-2.05c0-.15-.1-.28-.24-.34-.14-.05-.31,0-.41,.11-1.49,1.74-3.77,2.74-6.24,2.74-5.33,0-9.5-4.35-9.5-9.89s4.17-9.89,9.5-9.89c2.58,0,4.79,.92,6.24,2.59,.1,.11,.26,.16,.41,.11,.15-.05,.24-.18,.24-.34v-1.89h4.27Zm-16.31,9.42c0,3.43,2.69,6.11,6.12,6.11s6.12-2.69,6.12-6.11-2.69-6.11-6.12-6.11-6.12,2.69-6.12,6.11Z"/><path class="cls-2" d="M122.4,9.99V28.83h-4.27v-2.05c0-.15-.1-.28-.24-.34-.14-.05-.31,0-.41,.11-1.49,1.74-3.77,2.74-6.24,2.74-5.33,0-9.5-4.35-9.5-9.89s4.17-9.89,9.5-9.89c2.58,0,4.79,.92,6.24,2.59,.1,.11,.26,.16,.41,.11,.15-.05,.24-.18,.24-.34v-1.89h4.27Zm-16.31,9.42c0,3.43,2.69,6.11,6.12,6.11s6.12-2.69,6.12-6.11-2.69-6.11-6.12-6.11-6.12,2.69-6.12,6.11Z"/><path class="cls-2" d="M130.36,26.58s-.09,0-.13,.02c-.14,.05-.24,.18-.24,.33v1.9h-4.31V1.77h4.32V12c0,.15,.09,.29,.23,.34,.14,.05,.31,0,.41-.11,1.5-1.73,3.78-2.71,6.24-2.71,2.6,0,5,1.01,6.76,2.83,1.77,1.83,2.74,4.34,2.74,7.06,0,5.55-4.17,9.89-9.5,9.89-2.51,0-4.78-.95-6.24-2.6-.07-.08-.17-.12-.28-.12Zm5.55-13.28c-3.43,0-6.12,2.69-6.12,6.11s2.69,6.11,6.12,6.11,6.12-2.69,6.12-6.11-2.69-6.11-6.12-6.11Z"/><path class="cls-1" d="M158.79,13.85c.4,0,.78,.03,1.04,.09v-4.27c-.14-.03-.43-.07-.72-.07-2.23,0-4.3,1.11-5.39,2.89-.08,.14-.26,.21-.42,.16-.16-.04-.28-.18-.28-.34v-2.31h-4.27V28.84h4.31v-8.29c0-4.13,2.19-6.7,5.72-6.7Z"/><rect class="cls-1" x="162.53" y="9.99" width="4.35" height="18.84"/><path class="cls-1" d="M164.66,1.8c-1.46,0-2.64,1.15-2.64,2.55s1.18,2.55,2.64,2.55,2.64-1.15,2.64-2.55c0-1.41-1.19-2.55-2.64-2.55Z"/><path class="cls-1" d="M179.68,9.52c-5.98,0-10.31,4.16-10.31,9.89,0,2.79,1.01,5.31,2.86,7.1,1.86,1.8,4.49,2.79,7.41,2.79,2.42,0,4.31-.46,7.85-2.98l-2.45-2.5c-1.74,1.12-3.37,1.67-4.96,1.67-3.61,0-6.32-2.61-6.32-6.07s2.72-6.07,6.32-6.07c1.72,0,3.31,.54,4.88,1.67l2.73-2.51c-3.18-2.67-6.09-2.98-8.01-2.98Z"/><path class="cls-1" d="M195.07,20.53c.07-.06,.16-.09,.25-.09h.02c.11,0,.2,.06,.27,.13l6.9,8.27h5.31s-8.92-10.43-8.92-10.43c-.12-.14-.11-.35,.02-.48l8.2-7.93h-5.26l-7.06,6.86c-.1,.1-.26,.13-.4,.08-.14-.06-.23-.19-.23-.33V1.78s-4.31,0-4.31,0V28.84h4.31v-7.34c0-.1,.04-.2,.12-.26l.79-.71Z"/><path class="cls-1" d="M214.84,29.31c3.53,0,7.11-2.07,7.11-6.02,0-2.58-1.67-4.35-5.1-5.44l-2.35-.74c-1.58-.51-2.34-1.24-2.34-2.23,0-1.13,1.05-1.93,2.56-1.93s2.71,.9,3.52,2.48l3.46-1.8c-1.26-2.54-3.93-4.11-6.98-4.11-3.86,0-6.67,2.4-6.67,5.71,0,2.61,1.62,4.38,4.94,5.4l2.39,.74c1.69,.52,2.38,1.16,2.38,2.23,0,1.6-1.53,2.16-2.84,2.16-1.75,0-3.29-1.1-4.06-2.87l-3.49,1.76c1.15,2.86,4.01,4.64,7.47,4.64Z"/><path class="cls-1" d="M97.82,29.11c1.36,0,2.59-.11,3.27-.22v-3.6c-.57,.07-1.54,.14-2.16,.14-1.75,0-3.09-.29-3.09-3.93v-7.75c0-.2,.17-.36,.37-.36h4.2v-3.4s-4.2,0-4.2,0c-.2,0-.37-.16-.37-.36V4.17h-4.29s0,5.46,0,5.46c0,.2-.17,.36-.37,.36h-3v3.4s3,0,3,0c.2,0,.37,.16,.37,.36v8.78c0,6.59,4.55,6.59,6.26,6.59Z"/></g></g></svg>