<?xml version="1.0" encoding="UTF-8"?><svg id="Calque_2" xmlns="http://www.w3.org/2000/svg" viewBox="0 0 176.25 87.18"><defs><style>.cls-1{fill:#fff;}.cls-2{opacity:.4;}</style></defs><g id="Content"><g class="cls-2"><path class="cls-1" d="M105.61,27.74h-3.82v13.97h3.82c5.1,0,9.16-1.69,9.16-7.08s-4.06-6.9-9.16-6.9Z"/><path class="cls-1" d="M64.44,33.36l-5.5,17.35c1.64,.62,3.54,.99,5.56,.99h0c1.97,0,3.82-.36,5.45-.94l-5.39-17.4h-.12Z"/><path class="cls-1" d="M0,0V87.18H89.07L176.25,0H0ZM107.4,53.66h-5.61v16.67h-25.7l-2.54-7.97c-2.72,.9-5.79,1.39-9.05,1.39s-6.49-.53-9.26-1.46l-2.65,8.05h-15.75l1.74-4.66-.64,.56c-3.93,3.16-8.84,4.89-14.93,5.01h-.91c-6.99,0-13.85-1.93-19.64-5.22l5.36-10.65c5.81,3.43,9.45,4.2,14.37,4.1,2.55-.06,4.39-.52,5.59-1.76,.73-.75,1.1-1.69,1.14-2.7,.05-2.77-3.89-4.06-8.71-5.55-3.91-1.22-8.33-2.86-11.8-5.4-4.1-3.02-6.05-6.79-5.96-12.11,.06-3.88,1.5-7.37,4.15-10.12,3.82-3.94,9.97-6.35,17.35-6.35h.04c6.33,.01,14.07,1.8,19.65,4.66l-6.03,10.5c-6.12-2.96-9.2-3.24-12.7-3.42-5.18-.28-7.81,1.58-7.85,3.57-.05,2.44,4.92,4.65,9.59,6.15,7.08,2.24,16.08,5.25,17.45,13.95l12.95-34.49h15.02l15.16,41.25V16.39h17.35v.02c16.58,0,24.37,5.91,24.37,18.78,0,11.57-8.02,18.47-21.57,18.47Z"/></g></g></svg>