<?xml version="1.0" encoding="UTF-8"?><svg id="Calque_2" xmlns="http://www.w3.org/2000/svg" viewBox="0 0 270.77 57.47"><defs><style>.cls-1{opacity:.4;}.cls-2{fill:#fff;fill-rule:evenodd;}</style></defs><g id="Content"><g id="layer1" class="cls-1"><g id="g4091"><g id="g4076"><path id="path3232" class="cls-2" d="M0,42.84v12.4c0,.41,.09,.77,.27,1.09,.23,.36,.46,.64,.82,.82s.73,.32,1.09,.32h61.89c.41,0,.77-.14,1.09-.32,.36-.18,.64-.46,.82-.82,.18-.32,.27-.68,.27-1.09v-12.4c-11.21,3.1-21.06,4.42-32.68,4.42h-.87c-11.67,0-21.51-1.32-32.72-4.42Z"/><path id="path3234" class="cls-2" d="M64.08,0H2.19c-.36,0-.73,.09-1.09,.27-.36,.23-.59,.46-.82,.82C.09,1.46,0,1.82,0,2.19V38.69H0c11.26,3.24,21.19,4.6,32.95,4.6h.36c11.76,0,21.69-1.37,32.95-4.6V2.19h0c0-.36-.09-.73-.27-1.09-.18-.36-.46-.59-.82-.82C64.85,.09,64.49,0,64.08,0h0Z"/></g><g id="g4080"><path id="path3236" class="cls-2" d="M78.21,14.04c0-.27,.05-.55,.18-.77,.18-.27,.36-.46,.59-.59,.27-.14,.5-.18,.77-.18,.32,0,.55,.05,.82,.18,.23,.14,.41,.32,.55,.59,.14,.23,.23,.5,.23,.77v23.56h10.03c.23,0,.46,.05,.68,.18,.23,.14,.41,.32,.55,.55,.14,.23,.18,.46,.18,.73h0c0,.27-.05,.5-.18,.73-.14,.23-.27,.41-.5,.55-.23,.09-.46,.18-.73,.18h-11.62c-.27-.05-.5-.09-.77-.23-.23-.14-.41-.32-.59-.59-.14-.23-.18-.5-.18-.77h0V14.04h0Z"/><path id="path3238" class="cls-2" d="M98.67,13.49c0-1,.82-1.64,1.82-1.64s1.82,.64,1.82,1.64v.5c0,.96-.77,1.64-1.82,1.64s-1.82-.68-1.82-1.64v-.5Zm.27,7.79h0c0-.27,.09-.55,.23-.77,.14-.23,.32-.41,.55-.59,.27-.09,.5-.18,.77-.18h0c.27,0,.55,.05,.77,.18,.23,.18,.41,.32,.55,.59,.14,.23,.23,.46,.23,.73v17.96c0,.27-.09,.5-.23,.73-.14,.27-.27,.41-.55,.55-.23,.14-.46,.23-.73,.23h-.05c-.27,0-.5-.09-.77-.23-.23-.14-.41-.32-.55-.55-.14-.23-.23-.46-.23-.77h0V21.28h0Z"/><path id="path3240-5" class="cls-2" d="M110.29,44.53s-.05-.05-.09-.05c-.18-.14-.36-.32-.5-.55s-.18-.41-.18-.68h0c0-.23,.05-.41,.18-.64,.14-.23,.32-.41,.55-.55,.18-.09,.41-.18,.64-.18h0c.23,0,.46,.05,.64,.18t.05,.05c.27,.18,.5,.32,.77,.46,2.1,1.18,4.15,1.73,6.52,1.73h0c4.51,0,7.47-2.51,7.47-7.29v-2.46c-1.78,2.42-4.28,4.38-8.07,4.38-4.92,0-9.66-3.74-9.66-9.66v-.09c0-5.97,4.79-9.66,9.66-9.66,3.83,0,6.34,1.91,8.02,4.1v-2.37c0-.27,.09-.5,.23-.73,.14-.27,.32-.41,.55-.59,.23-.14,.46-.18,.73-.18,.32,0,.55,.05,.77,.18,.27,.18,.41,.36,.59,.59,.14,.23,.18,.5,.18,.77v15.63c0,3.19-.96,5.61-2.6,7.29-1.87,1.82-4.6,2.73-7.84,2.73h-.09c-2.96,0-5.47-.68-8.07-2.14-.14-.09-.27-.18-.46-.27h0Zm16.13-15.27v-.09c0-4.24-3.65-6.97-7.57-6.97s-7.11,2.69-7.11,6.93v.09c0,4.1,3.28,6.97,7.11,6.97s7.57-2.83,7.57-6.93Z"/><path id="path3242" class="cls-2" d="M136.41,12.81h0c0-.27,.05-.55,.18-.77,.14-.23,.32-.41,.55-.55,.27-.14,.5-.23,.77-.23s.55,.09,.77,.23c.23,.14,.41,.32,.55,.55,.14,.23,.23,.5,.23,.77v10.71c1.37-2.23,3.51-4.01,7.02-4.01,4.97,0,7.88,3.33,7.88,8.2v11.44c0,.27-.05,.5-.18,.73-.14,.27-.32,.46-.59,.59-.23,.14-.46,.18-.73,.18s-.55-.05-.77-.18c-.23-.14-.41-.32-.55-.59-.18-.23-.23-.46-.23-.73v-10.66c0-3.83-2.05-6.2-5.7-6.2s-6.15,2.55-6.15,6.43v10.48c0,.27-.09,.5-.18,.73-.18,.27-.32,.41-.59,.55-.23,.14-.46,.23-.73,.23h-.05c-.27,0-.5-.09-.73-.23-.27-.14-.46-.32-.59-.55-.14-.23-.18-.46-.18-.77h0V12.81h0Z"/><path id="path3244" class="cls-2" d="M161.61,35.05v-12.4h-1.64c-.27-.05-.46-.09-.68-.23-.23-.09-.36-.27-.5-.5-.14-.18-.18-.41-.18-.64h0c0-.23,.05-.46,.18-.68,.14-.23,.27-.36,.5-.5,.18-.09,.41-.18,.68-.18h1.64v-4.83h0v-.05c0-.27,.09-.5,.23-.77,.14-.23,.32-.41,.55-.55,.23-.14,.46-.18,.73-.18h0c.32,0,.55,.05,.77,.18,.27,.18,.41,.36,.59,.59,.14,.23,.18,.46,.18,.77v4.83h5.33c.27,0,.5,.09,.73,.18,.23,.14,.36,.32,.5,.55,.09,.18,.18,.41,.18,.64s-.05,.46-.18,.64c-.14,.23-.27,.41-.5,.5-.23,.14-.46,.23-.68,.23h-5.38v11.99c0,2.51,1.41,3.42,3.46,3.42,1.09,0,1.64-.27,1.87-.27,.27,0,.46,.05,.68,.18,.18,.14,.36,.27,.46,.5,.14,.18,.18,.41,.18,.64s-.05,.41-.18,.59c-.09,.23-.23,.36-.46,.5-.09,.05-.14,.09-.23,.09h0c-.96,.41-1.87,.55-2.92,.55h-.09c-3.33,0-5.83-1.6-5.83-5.79h0Z"/><path id="path3246" class="cls-2" d="M177.98,12.81c0-.27,.05-.55,.18-.77,.14-.23,.32-.41,.55-.55,.27-.14,.5-.23,.77-.23s.55,.09,.77,.23c.23,.14,.41,.32,.55,.55,.14,.23,.23,.5,.23,.77v11.26c1.69-2.46,4.1-4.56,7.88-4.56,4.92,0,9.8,3.87,9.8,10.66v.05c0,6.75-4.88,10.71-9.8,10.71-3.83,0-6.29-2.05-7.88-4.38v2.64c0,.27-.09,.5-.23,.73-.14,.27-.32,.41-.55,.55-.23,.18-.46,.23-.73,.23-.32,0-.55-.05-.77-.23-.27-.14-.46-.32-.59-.55-.14-.23-.18-.5-.18-.77V12.81h0Zm17.59,17.45v-.09c0-4.83-3.33-7.93-7.25-7.93s-7.43,3.24-7.43,7.88v.09c0,4.79,3.65,7.98,7.43,7.98,4.01,0,7.25-2.96,7.25-7.93Z"/><path id="path3248" class="cls-2" d="M212.98,40.97c-5.65,0-10.3-4.33-10.3-10.71v-.05c0-5.97,4.19-10.71,9.89-10.71,6.06,0,9.53,4.97,9.53,10.39h0c0,.27-.05,.5-.18,.73-.14,.23-.27,.41-.5,.55-.23,.09-.46,.18-.73,.18h-14.9c.46,4.47,3.6,6.97,7.25,6.97,2.55,0,4.42-1,5.97-2.42,.05-.05,.14-.14,.23-.18,.18-.09,.41-.18,.64-.18,.27,0,.46,.09,.68,.18,.18,.14,.36,.27,.5,.5,.09,.18,.14,.41,.14,.64h0c0,.23-.05,.46-.14,.64-.09,.14-.18,.27-.32,.36-1.96,1.87-4.24,3.1-7.75,3.1h0Zm6.06-11.9c-.32-3.74-2.46-6.97-6.56-6.97-3.55,0-6.29,2.96-6.7,6.97h13.26Z"/><path id="path3250" class="cls-2" d="M227.2,21.28h0c0-.27,.05-.55,.18-.77,.14-.23,.32-.41,.59-.59,.23-.14,.46-.18,.73-.18h0c.32,0,.55,.05,.77,.18,.27,.18,.41,.32,.55,.59,.18,.23,.23,.46,.23,.73v2.28c1.37-2.23,3.51-4.01,7.02-4.01,5.01,0,7.88,3.33,7.88,8.2v11.44h0c0,.27-.05,.5-.18,.77-.14,.23-.32,.41-.55,.55-.27,.14-.5,.18-.77,.18s-.55-.05-.77-.18c-.23-.14-.41-.32-.55-.55-.14-.27-.23-.5-.23-.77h0v-10.66c0-3.83-2.05-6.2-5.7-6.2s-6.15,2.55-6.15,6.43v10.48c0,.27-.05,.5-.23,.73-.09,.27-.27,.41-.5,.55-.27,.14-.5,.23-.77,.23h-.05c-.27,0-.5-.09-.73-.23-.27-.14-.46-.32-.59-.55-.14-.23-.18-.46-.18-.77h0V21.28h0Z"/><path id="path3252" class="cls-2" d="M270.77,39.15h0c0,.27-.05,.5-.18,.77-.14,.23-.32,.41-.55,.55-.27,.14-.5,.18-.77,.18-.32,0-.55-.05-.77-.18-.27-.14-.46-.32-.55-.55-.18-.27-.23-.5-.23-.77h0v-2.78c-1.69,2.46-4.1,4.56-7.88,4.56-4.92,0-9.84-3.87-9.84-10.66v-.05c0-6.75,4.92-10.71,9.84-10.71,3.83,0,6.29,2.05,7.88,4.38V12.76c0-.27,.05-.5,.18-.77,.14-.23,.32-.41,.55-.5,.27-.18,.5-.23,.77-.23h.05c.27,0,.5,.05,.73,.23,.27,.14,.46,.27,.59,.55,.14,.23,.18,.46,.18,.73v26.39h0Zm-17.64-8.98v.05c0,4.88,3.42,7.98,7.25,7.98s7.47-3.24,7.47-7.98v-.05c0-4.74-3.65-7.93-7.47-7.93s-7.25,2.96-7.25,7.93Z"/></g></g></g></g></svg>