<?xml version="1.0" encoding="UTF-8"?><svg id="Calque_2" xmlns="http://www.w3.org/2000/svg" viewBox="0 0 57.32 83.79"><defs><style>.cls-1{fill:#fff;}</style></defs><g id="Content"><path class="cls-1" d="M28.04,9.33C8.15,5.34,.55,2.81,0,0V26.44c.1,1.99,4.81,3.9,12.65,5.91-7.87,2.02-12.44,3.9-12.65,5.91v26.86c.16,3.11,11.56,6.03,28.63,9.45,17.87,3.58,25.51,5.86,28.21,8.4,0,0,.38,.34,.48,.82v-26.19c-.22-2-4.78-3.88-12.65-5.91,7.84-2.01,12.55-3.93,12.65-5.91V18.92c-.34-3.15-11.45-6-29.28-9.58Z"/></g></svg>