<?xml version="1.0" encoding="UTF-8"?><svg id="Calque_2" xmlns="http://www.w3.org/2000/svg" viewBox="0 0 273.04 85.01"><defs><style>.cls-1{fill:#fff;}.cls-2{opacity:.4;}</style></defs><g id="Content"><g class="cls-2"><path class="cls-1" d="M52.48,0c-1.28,1.45-2.55,2.9-3.85,4.33-1.53,1.7-3.09,3.38-4.75,5.2,1.95,1.86,3.87,3.7,5.87,5.61,4.76-3.81,9.47-7.6,14.23-11.42,.57,.94,.66,1.86,.66,2.8,0,5,0,10,0,15,0,12.03,0,24.07,0,36.1,0,3-1.56,5.38-4.2,6.33-.8,.29-1.7,.44-2.55,.46-3.29,.05-6.58,.02-9.87,.02-.21,0-.42-.06-.74-.11,.19-.26,.29-.45,.44-.6,3.73-3.6,5.89-8.05,6.92-13.05,1.55-7.52,1.2-14.96-1.41-22.21-1.7-4.73-4.58-8.58-8.99-11.14-3.95-2.29-8.27-3-12.77-2.81-5.84,.24-10.88,2.31-14.89,6.63-3.02,3.25-4.82,7.16-5.79,11.44-1.66,7.28-1.6,14.52,.87,21.64,1.24,3.59,3.18,6.76,5.88,9.45,.15,.15,.29,.33,.59,.66-.5,.05-.82,.1-1.15,.1-3.26,0-6.52-.02-9.78,.01-4.2,.05-6.58-2.49-7.11-5.42-.01-.06-.06-.11-.09-.17C0,41.05,0,23.24,0,5.42,.42,3.69,1.12,2.1,2.69,1.12c.73-.46,1.56-.75,2.34-1.12,15.81,0,31.63,0,47.44,0Z"/><path class="cls-1" d="M273.04,46.67c-.07,.38-.14,.75-.22,1.13-.5,2.44-2.02,4.04-4.21,5.1-1.87,.9-3.89,1.18-5.92,1.28-3.24,.16-6.45-.07-9.52-1.26-.91-.35-.93-.34-.73-1.3,.25-1.22,.51-2.43,.79-3.74,.96,.32,1.78,.58,2.6,.86,2.81,.99,5.7,1.02,8.59,.55,1.42-.23,2.7-.8,3-2.45,.26-1.46-.12-2.74-1.37-3.56-1.1-.72-2.29-1.32-3.48-1.88-1.66-.78-3.36-1.48-5.04-2.22-3.1-1.37-4.85-3.72-4.82-7.15,.03-3.46,1.67-6.01,4.86-7.37,1.31-.56,2.78-.88,4.2-1.02,2.98-.29,5.92,.09,8.8,.93,.89,.26,.91,.33,.72,1.24-.19,.92-.38,1.83-.58,2.75-.07,.3-.17,.6-.28,.96-.8-.28-1.48-.56-2.18-.76-2.2-.63-4.43-.81-6.7-.4-.44,.08-.88,.22-1.29,.39-2.34,.95-2.88,3.77-.95,5.42,.84,.72,1.88,1.24,2.9,1.7,2,.9,4.07,1.63,6.06,2.54,2.75,1.26,4.47,3.33,4.67,6.46,0,.09,.07,.18,.1,.27v1.55Z"/><path class="cls-1" d="M93.14,85.01c-.01-3.19-.02-6.38-.04-9.57,0-.47,.1-.84,.64-.89,1.44-.13,2.87-.3,4.32-.36,.48-.02,1.05,.17,1.45,.45,.6,.43,1.06,.35,1.66,.05,1.16-.58,2.4-.69,3.67-.43,1.32,.28,2.19,1.07,2.49,2.39,.15,.66,.28,1.33,.29,2,.04,1.87,.02,3.74,0,5.61,0,.25-.1,.5-.16,.75h-1.94c-.02-2.19-.02-4.37-.06-6.56,0-.47-.04-1.01-.27-1.4-.26-.43-.72-.96-1.15-1.02-.76-.11-1.58,.07-2.36,.2-.38,.06-.5,.36-.48,.8,.1,2.37,.15,4.75,.2,7.13,0,.28-.1,.56-.15,.85h-1.74c-.07-.37-.19-.74-.2-1.12-.03-1.77,0-3.55-.05-5.32-.07-2.13-.78-2.75-2.88-2.64-.03,0-.06,0-.1,0-.98,.07-1.04,.12-1.04,1.08,0,2.26,0,4.51-.01,6.77,0,.41-.12,.81-.18,1.22h-1.94Z"/><path class="cls-1" d="M141.17,85.01c-.06-.35-.16-.69-.17-1.04-.01-2.74-.01-5.48,0-8.22,0-1.06,0-1.12,1.11-1.28,1.21-.17,2.43-.3,3.65-.29,.64,0,1.32,.28,1.9,.59,.43,.23,.71,.26,1.13,.04,1.05-.55,2.19-.75,3.37-.66,1.72,.13,2.9,1.15,3.19,2.84,.12,.66,.18,1.34,.18,2.02,.01,2-.01,4-.03,6h-1.94c-.05-.41-.15-.82-.16-1.23-.03-1.9-.02-3.79-.07-5.69-.02-.89-.23-1.86-1.24-2.05-.78-.14-1.64,.06-2.45,.18-.4,.06-.51,.37-.5,.8,.07,2.66,.1,5.32,.15,7.98h-1.94c-.06-2.22-.09-4.44-.19-6.66-.09-1.97-.69-2.48-2.66-2.42-1.36,.04-1.35,.04-1.36,1.45-.01,2.55-.04,5.09-.06,7.64h-1.94Z"/><path class="cls-1" d="M110.57,85.01c-.06-.31-.18-.62-.18-.93-.01-2.81,.01-5.61-.02-8.42,0-.77,.25-1.13,1.02-1.19,1.22-.09,2.43-.27,3.65-.3,.56-.01,1.23,.09,1.66,.41,.7,.51,1.23,.39,1.91,.04,.94-.48,1.98-.55,3.02-.46,1.61,.14,2.69,1.06,3.05,2.64,.13,.59,.22,1.21,.23,1.82,.02,2.13,0,4.26,0,6.38h-1.94c-.06-.38-.16-.75-.17-1.13-.02-1.48,.02-2.96-.02-4.44-.02-.77-.09-1.54-.23-2.29-.11-.61-.52-1.12-1.15-1.15-.75-.04-1.52,.06-2.28,.17-.49,.07-.59,.44-.58,.94,.08,2.63,.11,5.26,.16,7.89h-1.94c-.02-.8-.04-1.61-.07-2.41-.05-1.58-.07-3.15-.18-4.73-.1-1.4-.75-1.94-2.12-1.95-.23,0-.45,0-.68,.01-1.13,.06-1.16,.08-1.16,1.25-.01,2.61-.03,5.22-.04,7.83h-1.94Z"/><path class="cls-1" d="M.19,85.01c-.02-1.42-.05-2.84-.05-4.25,0-3.26,0-6.52,0-9.77,0-1.57,.33-1.84,2.11-1.58v8.93c.34-.23,.53-.31,.66-.45,.81-.84,1.6-1.68,2.4-2.53,1.08-1.14,1.38-1.23,3.28-.85-1.46,1.57-2.84,3.06-4.34,4.68,.43,.38,.89,.69,1.23,1.1,1.07,1.29,2.1,2.61,3.12,3.94,.17,.22,.22,.52,.32,.78h-2.32c-1.08-1.82-2.43-3.4-4.17-4.65-.11,.8-.09,1.53-.12,2.27-.03,.8-.1,1.59-.16,2.39H.19Z"/><path class="cls-1" d="M161.11,85.01c-1.05-.57-2.1-1.13-2.64-2.3-.95-2.09-1-4.19,.04-6.25,1.1-2.15,3.6-3.06,5.87-2.23,1.03,.38,1.83,1.05,2.16,2.07,.31,.97,.44,2,.6,3.01,.11,.65-.2,.92-.88,.91-1.71-.03-3.42-.01-5.13,0-.35,0-.69,0-1.03,0-.11,1.56,.68,2.79,2.05,3.04,.87,.16,1.78,.06,2.68,.03,.38-.01,.75-.15,1.11-.23,.68,1.22,.61,1.45-.57,1.95h-4.26Zm3.75-6.69c.03-1.52-.74-2.48-1.97-2.58-1.54-.12-2.59,.84-2.77,2.58h4.75Z"/><path class="cls-1" d="M223.47,85.01c-.68-.48-1.48-.85-2.01-1.46-1.82-2.06-1.76-5.91,.04-7.98,1.32-1.52,3.02-1.91,4.92-1.43,1.83,.46,2.65,1.81,2.95,3.57q.43,2.51-2.1,2.51c-1.29,0-2.58,0-3.87,0-.31,0-.63,0-.94,0-.04,1.92,1.04,3.14,2.84,3.19,1.02,.03,2.04-.16,3.08-.25,.62,1.12,.54,1.35-.65,1.85h-4.26Zm-1-6.7h4.74c.14-1.36-.62-2.41-1.8-2.56-1.54-.21-2.67,.75-2.93,2.56Z"/><path class="cls-1" d="M83.85,85.01c-2.97-1.89-4-4.56-2.94-7.63,.77-2.21,2.51-3.45,4.84-3.41,2.14,.03,3.93,1.36,4.57,3.51,.6,2,.52,4-.78,5.72-.56,.74-1.46,1.22-2.2,1.82h-3.49Zm1.72-9.28c-1.08-.01-1.86,.51-2.31,1.46-.74,1.57-.74,3.18,0,4.76,.44,.95,1.23,1.47,2.3,1.48,1.08,.01,1.86-.48,2.33-1.43,.78-1.6,.77-3.25,.01-4.85-.45-.95-1.24-1.45-2.33-1.42Z"/><path class="cls-1" d="M24.98,85.01c-2.94-1.61-4.07-4.44-3.02-7.59,.79-2.38,2.81-3.69,5.29-3.45,2.26,.22,4.11,2.11,4.34,4.51,.12,1.22,.11,2.44-.37,3.62-.57,1.39-1.58,2.33-2.94,2.91h-3.29Zm-1.29-5.39c.22,.8,.36,1.64,.69,2.39,.4,.92,1.19,1.41,2.23,1.43,1.07,.01,1.89-.45,2.35-1.4,.77-1.59,.78-3.24,.03-4.84-.46-.99-1.28-1.48-2.41-1.46-1.09,.03-1.87,.54-2.25,1.52-.29,.73-.41,1.53-.63,2.37Z"/><path class="cls-1" d="M169.63,85.01c-.02-3.23-.03-6.45-.06-9.68,0-.47,.18-.75,.65-.79,1.5-.13,3.02-.39,4.51-.33,1.99,.08,3.37,1.58,3.43,3.64,.07,2.38,0,4.77-.02,7.16h-1.94c-.01-1.99-.02-3.99-.04-5.98-.04-2.56-.84-3.28-3.37-3.09-.96,.07-1.06,.17-1.07,1.19,0,2.22,0,4.44,0,6.66,0,.41-.1,.82-.16,1.23h-1.94Z"/><path class="cls-1" d="M10.65,85.01c-.02-3.23-.03-6.45-.06-9.68,0-.47,.19-.75,.65-.79,1.5-.13,3.01-.39,4.51-.33,1.96,.07,3.35,1.53,3.42,3.55,.09,2.41,0,4.84,0,7.25h-1.94c-.01-1.99-.02-3.99-.04-5.98-.04-2.56-.84-3.28-3.37-3.09-.96,.07-1.06,.17-1.06,1.19,0,2.22,0,4.44-.01,6.66,0,.41-.1,.82-.16,1.23h-1.94Z"/><path class="cls-1" d="M243.22,85.01c-1.89-1.05-2.47-2.74-2.41-4.79,.05-1.67,0-3.35,.02-5.03,0-.78,.11-.85,1.03-.85,.92,0,1,.06,1,.87,.01,1.51-.01,3.03,.01,4.54,0,.61,.06,1.22,.18,1.82,.33,1.62,2.49,2.55,3.91,1.66,.22-.13,.32-.6,.32-.91,.03-2.09,.01-4.19,.01-6.28,0-.16,0-.32,0-.48,.01-1.1,.85-1.64,1.83-1.14,.17,.09,.31,.41,.32,.62,.02,3,0,5.99,.02,8.99,0,.9-.8,.66-1.22,.98h-5.03Z"/><path class="cls-1" d="M232.18,85.01c-1.15-.52-1.22-.79-.54-1.98,1.03,.14,2.04,.29,3.05,.39,.34,.03,.71-.04,1.04-.15,1-.32,1.23-1.34,.4-2.01-.44-.36-1-.58-1.51-.83-.66-.33-1.39-.55-2-.94-1.69-1.08-1.76-3.6-.11-4.75,1.67-1.17,3.49-.88,5.3-.37,.15,.04,.26,.38,.3,.6,.03,.18-.05,.38-.11,.56-.06,.18-.14,.35-.22,.53-.79-.11-1.55-.23-2.31-.31-.32-.03-.65,0-.96,.06-.53,.11-1.07,.39-1.06,.96,0,.42,.29,.92,.6,1.21,.36,.33,.9,.48,1.37,.68,.5,.22,1.02,.4,1.52,.63,1.15,.53,1.81,1.41,1.83,2.71,.02,1.3-.54,2.22-1.74,2.75-.14,.06-.27,.17-.41,.25h-4.45Z"/><path class="cls-1" d="M39.7,85.01c-1.13-.56-1.17-.68-.5-2.08,.28,.07,.58,.14,.88,.23,1.04,.31,2.1,.45,3.14,.12,.36-.12,.76-.5,.9-.85,.2-.47-.06-.96-.51-1.24-.46-.29-.96-.53-1.45-.76-.61-.29-1.25-.52-1.84-.84-1.02-.57-1.5-1.46-1.42-2.65,.08-1.12,.59-1.97,1.6-2.47,1.58-.78,3.2-.58,4.81-.12,.17,.05,.38,.38,.37,.56-.02,.4-.18,.79-.3,1.24-.41-.1-.71-.22-1.03-.24-.7-.06-1.41-.15-2.11-.11-.6,.04-1.16,.32-1.26,1.01-.09,.62,.31,1.03,.8,1.33,.33,.2,.7,.33,1.05,.48,.59,.25,1.2,.47,1.78,.75,1.1,.54,1.72,1.4,1.72,2.68,0,1.27-.54,2.16-1.67,2.7-.17,.08-.34,.19-.5,.28h-4.45Z"/><path class="cls-1" d="M266.07,85.01c-.98-.58-1.01-.72-.39-2.09,.44,.12,.89,.31,1.35,.34,.92,.05,1.87,.15,2.76-.02,1-.18,1.22-1.23,.44-1.91-.45-.39-1.03-.64-1.58-.91-.6-.3-1.24-.53-1.85-.83-2-.99-1.84-4.11,.05-5.09,1.12-.58,2.29-.59,3.48-.5,.16,.01,.32,.06,.47,.09,1.55,.27,1.65,.49,.94,1.93-.83-.1-1.65-.21-2.47-.28-.28-.02-.58,.02-.86,.1-1.08,.32-1.3,1.32-.44,2.06,.33,.28,.77,.47,1.17,.65,.62,.28,1.26,.5,1.87,.77,1.19,.52,1.78,1.47,1.78,2.74,0,1.23-.52,2.17-1.7,2.68-.14,.06-.27,.17-.4,.26h-4.65Z"/><path class="cls-1" d="M183,85.01c-1.45-.79-1.92-2.12-1.93-3.65-.03-3.03,0-6.06-.02-9.09,0-.66,.27-.94,.89-.99,.37-.03,.74-.06,1.26-.11,0,.85,.03,1.58,0,2.31-.03,.61,.19,.89,.83,.86,.64-.04,1.29,0,1.93,0,1.19,0,1.24,.06,1.17,1.28,0,.16-.05,.31-.11,.65-.88,0-1.78,0-2.67,0-1.14,0-1.15,.01-1.16,1.11,0,1.29-.02,2.58,.02,3.87,.05,1.89,.93,2.54,2.77,2.09,.34-.08,.67-.18,.98-.27,.72,1.2,.69,1.39-.28,1.94h-3.68Z"/><path class="cls-1" d="M259.87,85.01c-1.48-.75-1.97-2.05-1.97-3.6,0-2.93,0-5.86,0-8.8,0-1.2,.03-1.24,1.21-1.38,.25-.03,.5,0,.87,0v3.11c.91,0,1.71,0,2.5,0,1.63,0,1.68,.06,1.36,1.87-.76,.02-1.55,.04-2.34,.05-1.71,0-1.54-.09-1.54,1.59,0,1.22-.01,2.45,.09,3.67,.13,1.62,.84,2.13,2.45,1.87,.44-.07,.87-.21,1.29-.32,.73,1.1,.69,1.36-.23,1.93h-3.68Z"/><path class="cls-1" d="M134.78,85.01c-1.44-.71-1.98-1.95-1.99-3.48,0-2.93,0-5.87,0-8.8,0-1.35,.1-1.46,1.47-1.52,.13,0,.25,.02,.53,.05v3.08c1.11,0,2.06,0,3.01,0,1.02,0,1.08,.11,1.07,1.11,0,.59-.25,.82-.8,.81-.77,0-1.55,.03-2.32,0-.63-.02-.95,.16-.93,.87,.04,1.35,0,2.71,.02,4.06,.04,1.91,.98,2.61,2.84,2.15,.34-.08,.67-.19,.98-.28,.75,1.24,.7,1.44-.4,1.96h-3.49Z"/><path class="cls-1" d="M74.75,85.01c-1.15-.61-2.23-1.32-2.75-2.59-.8-1.94-.82-3.89,.12-5.79,1.44-2.9,4.55-3.07,6.83-2.29,.18,.06,.37,.43,.36,.64-.01,.34-.19,.66-.32,1.04-1.84-.28-3.82-.93-4.88,1.25-.82,1.68-.85,3.52,.29,5.05,1.23,1.66,3.04,1.13,4.71,.79,.68,1.02,.62,1.39-.3,1.9h-4.07Z"/><path class="cls-1" d="M35.44,85.01c-1.21-.75-1.53-1.88-1.52-3.23,.03-3.61,0-7.23,.01-10.84,0-1.52,.31-1.76,2.05-1.54,.02,.39,.07,.8,.07,1.21,0,3.58,0,7.16,0,10.74,0,.94-.02,1.84,1.19,2.1,.14,.03,.27,.39,.28,.61,.01,.32-.09,.63-.15,.95h-1.94Z"/><path class="cls-1" d="M254.06,85.01c-1.22-.61-1.6-1.65-1.59-2.95,.03-3.68,0-7.35,0-11.03,0-1.66,.12-1.77,1.97-1.67,.02,.35,.07,.73,.07,1.1,0,3.64,0,7.29,0,10.93,0,1.48,.08,1.58,1.58,2.21-.09,.45-.19,.93-.29,1.42h-1.74Z"/><path class="cls-1" d="M213.01,85.01c-.02-1.9-.05-3.8-.07-5.7-.01-1.26-.02-2.52,.02-3.77,0-.27,.17-.71,.37-.78,1.85-.68,3.74-.85,5.77-.27-.12,.57-.21,1.05-.29,1.44-.94,0-1.76-.03-2.59,0-.98,.04-1.11,.19-1.11,1.16,0,2.23,0,4.45-.01,6.68,0,.41-.09,.83-.15,1.24h-1.94Z"/><path class="cls-1" d="M127.81,85.01c-.02-2.32-.05-4.64-.06-6.96,0-.97,.02-1.93,0-2.9-.02-.58,.21-.79,.79-.81,1.27-.05,1.37,.02,1.38,1.32,0,2.74,0,5.48,0,8.22,0,.38-.1,.76-.15,1.14h-1.94Z"/><path class="cls-1" d="M198.68,85.01c-.12-.22-.26-.44-.35-.68-.25-.62-.06-1.36,.42-1.73,.48-.37,1.31-.38,1.79,0,.48,.37,.67,1.12,.42,1.74-.09,.24-.23,.45-.35,.68h-1.94Z"/><path class="cls-1" d="M57.9,85.01c-.14-.17-.31-.33-.42-.53-.34-.6-.24-1.31,.23-1.76,.48-.47,1.32-.54,1.86-.16,.52,.36,.75,1.08,.5,1.71-.1,.26-.29,.49-.44,.74h-1.74Z"/><path class="cls-1" d="M41.36,36.76c-.84,.89-1.54,1.64-2.25,2.39-.36,.37-.7,.77-1.1,1.08-.57,.43-1.06,.2-1.15-.52-.03-.25,.02-.51,.07-.76,.36-1.83,.73-3.67,1.09-5.5,.06-.31,.1-.62,.19-1.12-.59,.28-1.04,.49-1.49,.7-1.22,.57-1.36,.52-1.95-.64-.57-1.12-1.12-2.25-1.69-3.38-.1-.2-.22-.38-.43-.72-.25,.47-.44,.82-.62,1.17-.57,1.12-1.13,2.25-1.71,3.37-.39,.74-.53,.78-1.28,.37-.64-.36-1.27-.73-2.1-1.21,.33,1.72,.61,3.23,.91,4.73,.17,.89,.4,1.76,.51,2.66,.04,.31-.22,.66-.34,1-.31-.12-.7-.15-.91-.37-1-1.04-1.95-2.14-3.01-3.31-.29,.54-.56,1-.8,1.47-.34,.67-.83,.91-1.59,.72-.96-.23-1.95-.39-3.11-.62,.34,1.11,.64,2.08,.93,3.05,.65,2.16,.54,1.71-1.04,2.89,.34,.3,.65,.6,.98,.88,1.72,1.46,3.45,2.92,5.17,4.38,.85,.72,.92,.97,.56,2.01-.17,.48-.35,.95-.57,1.54,.37-.03,.62-.03,.86-.08,1.71-.33,3.42-.68,5.13-.99,1.09-.2,1.37,.05,1.33,1.13-.11,2.87-.24,5.73-.37,8.6,0,.15-.05,.31-.1,.61-.65-.07-1.29-.09-1.91-.2-5.84-1.07-9.69-4.56-11.96-9.92-1.16-2.73-1.68-5.6-1.79-8.57-.15-3.98,.31-7.85,1.8-11.56,2.78-6.89,9.42-10.73,16.8-9.91,4.2,.47,7.78,1.99,10.51,5.29,1.87,2.26,3.01,4.88,3.63,7.73,1.28,5.86,1.28,11.68-1.06,17.3-2.24,5.37-6.25,8.65-12.03,9.67-.13,.02-.25,.04-.38,.06-1.32,.15-1.36,.12-1.44-1.2-.16-2.67-.31-5.34-.46-8.02-.05-.9,.25-1.18,1.16-1.02,1.78,.31,3.55,.65,5.33,.97,.24,.04,.49,.06,.87,.1-.2-.65-.32-1.21-.54-1.73-.33-.78-.13-1.34,.5-1.87,1.87-1.54,3.71-3.11,5.56-4.66,.19-.16,.39-.31,.54-.43-.06-.17-.06-.21-.08-.22-1.31-.99-1.3-.99-.85-2.66,.26-.96,.5-1.93,.79-3.05-.56,.08-.99,.14-1.42,.22-.54,.1-1.07,.23-1.61,.34-.69,.14-1.19-.06-1.45-.78-.15-.42-.36-.82-.62-1.41Z"/><path class="cls-1" d="M208.29,25.36v-1.19c0-4.07,0-8.13,0-12.2,0-1.08,0-1.1,1.08-1.28,1.36-.23,2.72-.43,4.21-.66,.03,.43,.08,.77,.08,1.11,0,13.49,0,26.98,0,40.46,0,1.06-.01,1.05-1.07,1.35-3.57,.99-7.22,1.41-10.91,1.25-4.78-.21-8.82-2.03-11.43-6.19-2.05-3.26-2.66-6.94-2.36-10.77,.18-2.23,.64-4.4,1.61-6.43,2.17-4.57,5.83-6.91,10.85-7.18,2.57-.14,5.01,.32,7.31,1.49,.14,.07,.3,.11,.65,.24Zm0,14.3v-8.12s0-.07,0-.1c.09-.62-.18-1.01-.72-1.33-1.88-1.09-3.86-1.71-6.07-1.66-3.67,.09-6.17,1.86-7.26,5.39-.89,2.89-1.02,5.83-.32,8.78,.86,3.63,3.48,6.14,7.08,6.64,2.11,.29,4.24,.08,6.35-.25,.76-.12,.94-.44,.94-1.14-.03-2.74-.01-5.48-.01-8.22Z"/><path class="cls-1" d="M85.27,9.75v26.23c.39-.36,.63-.55,.84-.77,3.33-3.51,6.66-7.02,9.97-10.55,.43-.46,.87-.69,1.5-.68,1.42,.03,2.84,0,4.26,.01,.31,0,.61,.05,1.14,.09-3.96,4.6-8.13,8.7-12.22,13.06,5.29,4.61,9.66,9.92,13.3,16-.35,.07-.55,.14-.76,.14-1.61,0-3.23-.02-4.84,.02-.57,.01-.87-.24-1.15-.69-1.89-3.1-4.15-5.92-6.68-8.5-1.35-1.38-2.85-2.61-4.29-3.9-.26-.23-.57-.41-1.01-.72-.02,.48-.06,.82-.06,1.15,0,3.84,0,7.68,0,11.52,0,1.12,0,1.13-1.13,1.13-1.16,0-2.32-.01-3.48,0-.52,0-.79-.19-.76-.74,.01-.22,0-.45,0-.68,0-13.29,0-26.58,0-39.87,0-.29-.05-.59,.03-.87,.06-.21,.24-.51,.41-.54,1.57-.3,3.15-.56,4.92-.86Z"/><path class="cls-1" d="M139.51,38.74c.03-3.48,.81-6.71,2.72-9.65,5.44-8.35,18.93-7.58,23.06,1.65,2.7,6.03,2.55,12.01-1.04,17.63-2.34,3.67-5.98,5.43-10.29,5.63-7.01,.33-12.84-4.23-14.14-12-.18-1.08-.21-2.18-.31-3.27Zm5.71-.07c-.08,2.6,.44,5.02,1.85,7.27,2.87,4.57,10.29,4.36,12.88-.61,1.2-2.31,1.55-4.77,1.47-7.3-.06-1.94-.37-3.85-1.26-5.62-1.38-2.76-3.59-4.21-6.69-4.29-3.2-.08-5.48,1.39-6.95,4.18-1.04,1.99-1.38,4.14-1.31,6.36Z"/><path class="cls-1" d="M114.5,28.81v1.23c0,7.23,0,14.45,0,21.68,0,.29-.01,.58,0,.87,.02,.48-.17,.71-.67,.71-1.35-.01-2.71,0-4.06,0-.48,0-.72-.2-.71-.69,0-.23,0-.45,0-.68,0-8.58,0-17.16,0-25.74q0-1.31,1.26-1.58c3.73-.79,7.49-1.35,11.32-1.18,2.55,.11,4.99,.58,7.1,2.17,1.72,1.3,2.86,3.03,3.3,5.09,.42,1.94,.73,3.94,.77,5.93,.11,5.16,.04,10.32,.03,15.48,0,1.19,0,1.19-1.17,1.2-1.1,0-2.19,0-3.29,0-.95,0-.99-.04-.99-.99,0-3.84,.02-7.68-.01-11.52-.02-2.09-.11-4.19-.21-6.28-.03-.57-.14-1.15-.29-1.71-.8-2.97-2.44-4.32-5.51-4.49-2.26-.12-4.5-.05-6.86,.49Z"/><path class="cls-1" d="M245.8,38.53c0,4.36,0,8.71,0,13.07,0,1.08-.01,1.06-1.09,1.32-4.04,.96-8.12,1.42-12.28,1.15-5.51-.36-9.19-3.72-9.97-9.17-.24-1.65-.35-3.33-.37-5-.05-4.84-.02-9.68-.02-14.52,0-1.12,.02-1.14,1.13-1.15,1.06,0,2.13,0,3.19,0,1.08,0,1.12,.05,1.13,1.17,0,4.74-.03,9.49,.02,14.23,.02,1.54,.14,3.1,.44,4.61,.66,3.33,2.81,5.09,6.21,5.08,1.8,0,3.6-.24,5.4-.36,.52-.04,.74-.32,.72-.83-.01-.29,0-.58,0-.87,0-7.23,0-14.46,0-21.69,0-1.34,0-1.34,1.35-1.34,1.03,0,2.07,0,3.1,0,1,.01,1.04,.04,1.04,1.04,0,4.42,0,8.84,0,13.26Z"/><path class="cls-1" d="M179.55,10c0,.62,0,1.06,0,1.51,0,11.07,0,22.14,0,33.2,0,.29,0,.58,0,.87,.04,2.29,.7,3.13,2.9,3.68,.44,.11,.87,.2,1.48,.34-.25,1.38-.47,2.73-.76,4.07-.04,.17-.44,.38-.67,.37-5.71-.12-8.32-2.65-8.41-7.77-.08-4.52-.02-9.03-.02-13.55,0-6.87,0-13.75,0-20.62,0-1.21,0-1.22,1.16-1.42,1.36-.23,2.72-.44,4.31-.69Z"/><path class="cls-1" d="M28.68,46.83c-1.29-.78-2.57-1.57-3.88-2.32-.2-.11-.49-.07-.75-.07-.91,0-1.6-.64-1.55-1.47,.04-.72,.69-1.31,1.43-1.3,.85,.01,1.44,.72,1.37,1.63-.01,.16-.04,.31-.07,.52,1.22,.73,2.42,1.45,3.7,2.22,.15-.71,.15-1.14-.48-1.5-.82-.47-.95-1.3-.45-1.98,.44-.61,1.28-.77,1.89-.36,.64,.42,.78,1.23,.35,1.97-.8,1.36-.55,2.34,.81,3.14,.27,.16,.55,.31,.98,.55,.06-.41,.13-.71,.13-1,0-2.26,0-4.52,.01-6.78,0-.51-.11-.9-.57-1.23-.72-.53-.89-1.38-.57-2.16,.29-.71,.97-1.13,1.77-1.09,.76,.04,1.44,.57,1.65,1.28,.25,.85-.05,1.63-.9,2.13-.37,.22-.58,.44-.58,.9,.02,2.55,0,5.1,.02,7.65,0,.09,.05,.18,.12,.41,.6-.36,1.2-.66,1.73-1.05,.52-.38,.55-1.86,.07-2.49-.42-.55-.55-1.09-.14-1.68,.34-.48,.8-.76,1.41-.64,.59,.12,.98,.49,1.12,1.08,.14,.59-.04,1.15-.58,1.42-.69,.34-.8,.81-.61,1.59,1.17-.7,2.28-1.34,3.35-2.05,.2-.13,.29-.52,.3-.8,.04-.92,.57-1.54,1.38-1.54,.7,0,1.38,.65,1.4,1.35,.02,.78-.63,1.4-1.5,1.44-.28,.01-.61-.02-.84,.11-1.29,.73-2.55,1.49-3.82,2.25l.05,.27c.38-.04,.76-.04,1.13-.11,.93-.18,1.64,.2,1.79,1,.15,.8-.24,1.46-.97,1.66-.69,.18-1.41-.22-1.69-.95-.42-1.11-1.09-1.35-2.12-.79-.7,.39-1.4,1.05-2.1,1.05-.66,0-1.31-.74-1.99-1.09-.35-.18-.77-.29-1.16-.29-.51,0-.9,.24-.98,.86-.09,.64-.53,1.02-1.18,1.1-.6,.07-1.07-.16-1.39-.69-.32-.53-.27-1.06,.12-1.53,.38-.45,.86-.64,1.47-.48,.39,.1,.8,.12,1.2,.18,.03-.09,.05-.18,.08-.28Zm4.04-10.43c-.57,0-1.09,.48-1.08,1.01,0,.53,.56,1.07,1.07,1.05,.56-.02,1.01-.52,.99-1.1-.01-.58-.4-.96-.98-.97Zm9.27,6.7c-.39-.22-.64-.47-.83-.43-.22,.04-.39,.33-.59,.52,.23,.18,.44,.46,.69,.5,.16,.03,.39-.29,.73-.59Zm-11.99,.27c-.38-.27-.61-.55-.79-.52-.24,.03-.44,.31-.66,.48,.18,.19,.35,.53,.53,.54,.24,0,.49-.25,.91-.5Zm6.76,.11c-.36-.27-.59-.55-.83-.57-.16-.01-.54,.38-.5,.51,.06,.24,.33,.53,.57,.58,.16,.04,.41-.27,.77-.53Zm-8.89,4.83c-.4-.28-.62-.55-.86-.57-.17,0-.51,.32-.51,.5,0,.2,.29,.56,.47,.57,.24,0,.48-.25,.91-.5Zm11.02,.03c-.38-.23-.62-.49-.82-.47-.21,.02-.38,.33-.57,.51,.21,.19,.41,.48,.65,.52,.17,.03,.39-.28,.74-.56Zm-14.91-4.56c.22-.36,.49-.61,.45-.78-.05-.2-.38-.47-.57-.46-.19,.02-.49,.34-.49,.54,0,.19,.31,.38,.61,.7Z"/><path class="cls-1" d="M150.81,20.67c-.74-.98-1.4-1.86-2.14-2.83,3.1-2.68,6.11-5.28,9.23-7.98,.99,1.27,1.93,2.47,2.96,3.78-3.39,2.37-6.67,4.66-10.06,7.03Z"/><path class="cls-1" d="M128.81,70.03c.8,.01,1.33,.55,1.31,1.33-.02,.76-.6,1.3-1.38,1.27-.74-.02-1.27-.62-1.24-1.41,.04-.76,.53-1.21,1.31-1.2Z"/></g></g></svg>