<?xml version="1.0" encoding="UTF-8"?><svg id="Calque_2" xmlns="http://www.w3.org/2000/svg" viewBox="0 0 118.84 118.84"><defs><style>.cls-1{fill:#f05a2c;}.cls-2,.cls-3{stroke-width:5.3px;}.cls-2,.cls-3,.cls-4{fill:none;stroke:#3c616a;stroke-linecap:round;}.cls-2,.cls-4{stroke-linejoin:round;}.cls-3{stroke-miterlimit:10;}.cls-4{stroke-width:8.84px;}</style></defs><g id="Content"><g id="Icons"><g><path class="cls-1" d="M59.76,91.66c-1.45,0-2.86-.58-3.89-1.61-1.02-1.03-1.61-2.45-1.61-3.89s.59-2.86,1.61-3.89c1.03-1.02,2.45-1.61,3.89-1.61s2.87,.59,3.89,1.61c1.02,1.03,1.61,2.45,1.61,3.89s-.59,2.87-1.61,3.89c-1.03,1.03-2.45,1.61-3.89,1.61Z"/><path class="cls-4" d="M59.42,114.42h-15.41v-.02c0-6.32-5.12-11.44-11.44-11.44s-11.44,5.12-11.44,11.44v.02h-5.82c-6.01,0-10.89-4.88-10.89-10.89V59.42"/><path class="cls-4" d="M59.42,4.42h15.41v.02c0,6.32,5.12,11.44,11.44,11.44s11.44-5.12,11.44-11.44v-.02h5.82c6.01,0,10.89,4.87,10.89,10.89V59.42"/><path class="cls-2" d="M59.42,59.42h-15.41c-.1,6.24-5.18,11.26-11.44,11.26s-11.34-5.03-11.44-11.26H4.42"/><path class="cls-4" d="M4.42,59.42V15.31c0-6.01,4.87-10.89,10.89-10.89H59.42"/><path class="cls-4" d="M114.42,59.42v44.12c0,6.01-4.88,10.89-10.89,10.89H59.42"/><path class="cls-2" d="M59.42,59.42h15.41c0-.06,0-.12,0-.18,0-6.32,5.12-11.44,11.44-11.44s11.44,5.12,11.44,11.44c0,.06,0,.12,0,.18h16.71"/><path class="cls-3" d="M59.42,4.42V21.12c-6.31,0-11.43,5.13-11.43,11.44s5.12,11.43,11.43,11.44v15.41"/><path class="cls-2" d="M59.42,114.42v-16.71h.01c6.32,0,11.44-5.12,11.44-11.44s-5.12-11.44-11.44-11.44h-.01v-15.41"/></g></g></g></svg>