<?xml version="1.0" encoding="UTF-8"?><svg id="Calque_2" xmlns="http://www.w3.org/2000/svg" viewBox="0 0 108.37 108.37"><defs><style>.cls-1{fill:#f05a2c;}.cls-2{stroke-width:4.42px;}.cls-2,.cls-3{fill:none;stroke:#3c616a;stroke-linecap:round;stroke-miterlimit:10;}.cls-3{stroke-width:7.37px;}</style></defs><g id="Content"><g id="Icons"><g><g><path class="cls-3" d="M104.68,60.37v-12.36c0-1.77-1.27-3.3-3.01-3.62l-8.2-1.51c-1.27-.23-2.32-1.12-2.77-2.33-.32-.86-.67-1.7-1.05-2.53-.54-1.18-.43-2.55,.31-3.62l4.74-6.87c1.01-1.46,.83-3.43-.43-4.69l-8.74-8.74c-1.25-1.25-3.23-1.43-4.69-.43l-6.87,4.74c-1.07,.74-2.44,.85-3.62,.31-.83-.38-1.67-.73-2.53-1.05-1.21-.45-2.09-1.5-2.33-2.77l-1.51-8.2c-.32-1.75-1.84-3.01-3.62-3.01h-12.36c-1.77,0-3.3,1.27-3.62,3.01l-1.51,8.2c-.23,1.27-1.12,2.32-2.33,2.77-.86,.32-1.7,.67-2.53,1.05-1.18,.54-2.55,.43-3.62-.31l-6.87-4.74c-1.46-1.01-3.43-.83-4.69,.43l-8.74,8.74c-1.25,1.25-1.43,3.23-.43,4.69l4.74,6.87c.74,1.07,.85,2.44,.31,3.62-.38,.83-.73,1.67-1.05,2.53-.45,1.21-1.5,2.09-2.77,2.33l-8.2,1.51c-1.75,.32-3.01,1.84-3.01,3.62v12.36c0,1.77,1.27,3.3,3.01,3.62l8.2,1.51c1.27,.23,2.32,1.12,2.77,2.33,.32,.86,.67,1.7,1.05,2.53,.54,1.18,.43,2.55-.31,3.62l-4.74,6.87c-1.01,1.46-.83,3.43,.43,4.69l8.74,8.74c1.25,1.25,3.23,1.43,4.69,.43l6.87-4.74c1.07-.74,2.44-.85,3.62-.31,.83,.38,1.67,.73,2.53,1.05,1.21,.45,2.09,1.5,2.33,2.77l1.51,8.2c.32,1.75,1.84,3.01,3.62,3.01h12.36c1.77,0,3.3-1.27,3.62-3.01l1.51-8.2c.23-1.27,1.12-2.32,2.33-2.77,.86-.32,1.7-.67,2.53-1.05,1.18-.54,2.55-.43,3.62,.31l6.87,4.74c1.46,1.01,3.43,.83,4.69-.43l8.74-8.74c1.25-1.25,1.43-3.23,.43-4.69l-4.74-6.87c-.74-1.07-.85-2.44-.31-3.62,.38-.83,.73-1.67,1.05-2.53,.45-1.21,1.5-2.09,2.77-2.33l8.2-1.51c1.75-.32,3.01-1.84,3.01-3.62Z"/><circle class="cls-2" cx="54.18" cy="54.18" r="22.38"/></g><path class="cls-1" d="M54.18,61.06c-1.81,0-3.58-.73-4.87-2.01-1.27-1.29-2.01-3.06-2.01-4.87s.74-3.58,2.01-4.87c1.29-1.27,3.06-2.01,4.87-2.01s3.59,.74,4.87,2.01c1.27,1.29,2.01,3.06,2.01,4.87s-.74,3.59-2.01,4.87c-1.29,1.29-3.06,2.01-4.87,2.01Z"/></g></g></g></svg>