<?xml version="1.0" encoding="UTF-8"?><svg id="Calque_2" xmlns="http://www.w3.org/2000/svg" viewBox="0 0 117.96 117.96"><defs><style>.cls-1{fill:#f05a2c;}.cls-2,.cls-3{stroke-miterlimit:10;stroke-width:4.78px;}.cls-2,.cls-3,.cls-4{fill:none;stroke:#3c616a;stroke-linecap:round;}.cls-3{stroke-dasharray:0 0 .34 10.11;}.cls-4{stroke-linejoin:round;stroke-width:7.96px;}</style></defs><g id="Content"><g id="Icons"><g><path class="cls-1" d="M27.36,20.36c-1.95,0-3.87-.79-5.26-2.18-1.38-1.39-2.18-3.3-2.18-5.26s.8-3.87,2.18-5.26c1.39-1.38,3.3-2.18,5.26-2.18s3.88,.8,5.26,2.18c1.38,1.39,2.18,3.3,2.18,5.26s-.8,3.88-2.18,5.26c-1.39,1.39-3.3,2.18-5.26,2.18Z"/><path class="cls-1" d="M90.6,112.47c-1.95,0-3.87-.79-5.26-2.18-1.38-1.39-2.18-3.3-2.18-5.26s.8-3.87,2.18-5.26c1.39-1.38,3.3-2.18,5.26-2.18s3.88,.8,5.26,2.18c1.38,1.39,2.18,3.3,2.18,5.26s-.8,3.88-2.18,5.26-3.3,2.18-5.26,2.18Z"/><path class="cls-4" d="M111.15,37.45l-6.35-6.35c-2.29,2.29-5.46,3.71-8.96,3.71-7,0-12.68-5.68-12.68-12.68,0-3.5,1.42-6.67,3.71-8.96l-6.37-6.37c-3.77-3.77-9.88-3.77-13.65,0L6.81,66.86c-3.77,3.77-3.77,9.88,0,13.65l6.36,6.36c2.29-2.29,5.46-3.7,8.95-3.7,7,0,12.68,5.68,12.68,12.68,0,3.5-1.41,6.66-3.7,8.95l6.36,6.36c3.77,3.77,9.88,3.77,13.65,0l60.06-60.06c3.77-3.77,3.77-9.88,0-13.65Z"/><g><line class="cls-2" x1="44.05" y1="29.62" x2="44.17" y2="29.73"/><line class="cls-3" x1="51.31" y1="36.87" x2="84.66" y2="70.22"/><line class="cls-2" x1="88.23" y1="73.79" x2="88.34" y2="73.91"/></g></g></g></g></svg>