<?xml version="1.0" encoding="UTF-8"?><svg id="Calque_2" xmlns="http://www.w3.org/2000/svg" xmlns:xlink="http://www.w3.org/1999/xlink" viewBox="0 0 109.12 109.16"><defs><style>.cls-1{clip-path:url(#clippath);}.cls-2{fill:#f05a2c;}.cls-3,.cls-4{stroke-linejoin:round;}.cls-3,.cls-4,.cls-5{stroke-linecap:round;}.cls-3,.cls-4,.cls-5,.cls-6{fill:none;stroke:#3c616a;}.cls-3,.cls-5{stroke-width:4.87px;}.cls-4,.cls-6{stroke-width:8.12px;}.cls-5,.cls-6{stroke-miterlimit:10;}</style><clipPath id="clippath"><rect class="cls-6" x="4.06" y="4.06" width="101" height="101.04" rx="10" ry="10"/></clipPath></defs><g id="Content"><g id="Icons"><g><path class="cls-2" d="M88.88,22.18c-1.33,0-2.63-.53-3.58-1.48-.94-.95-1.48-2.25-1.48-3.57s.54-2.63,1.48-3.58c.95-.94,2.25-1.48,3.58-1.48s2.64,.54,3.57,1.48c.94,.95,1.48,2.25,1.48,3.58s-.54,2.64-1.48,3.57-2.25,1.48-3.57,1.48Z"/><path class="cls-2" d="M74.16,22.18c-1.33,0-2.63-.53-3.58-1.48-.94-.95-1.48-2.25-1.48-3.57s.54-2.63,1.48-3.58c.95-.94,2.25-1.48,3.58-1.48s2.64,.54,3.57,1.48c.94,.95,1.48,2.25,1.48,3.58s-.54,2.64-1.48,3.57-2.25,1.48-3.57,1.48Z"/><g><g class="cls-1"><line class="cls-5" x1="4.06" y1="29.93" x2="105.06" y2="29.93"/></g><rect class="cls-6" x="4.06" y="4.06" width="101" height="101.04" rx="10" ry="10"/></g><polyline class="cls-4" points="73.56 78.73 84.86 67.43 73.65 56.21"/><polyline class="cls-4" points="35.54 78.73 24.23 67.43 35.45 56.21"/><line class="cls-3" x1="47.3" y1="85.78" x2="61.81" y2="49.16"/></g></g></g></svg>