<?xml version="1.0" encoding="UTF-8"?><svg id="Calque_2" xmlns="http://www.w3.org/2000/svg" viewBox="0 0 117.95 117.2"><defs><style>.cls-1{fill:#f05a2c;}.cls-2{fill:none;stroke-miterlimit:10;stroke-width:4.77px;}.cls-2,.cls-3{stroke:#3c616a;stroke-linecap:round;}.cls-3{fill:#0d2c34;stroke-linejoin:round;stroke-width:7.95px;}</style></defs><g id="Content"><g id="Icons"><g><path class="cls-1" d="M58.97,66.36c-1.95,0-3.87-.78-5.26-2.17-1.38-1.39-2.17-3.3-2.17-5.25s.8-3.87,2.17-5.26c1.39-1.38,3.3-2.17,5.26-2.17s3.88,.8,5.25,2.17c1.38,1.39,2.17,3.3,2.17,5.26s-.8,3.88-2.17,5.25-3.3,2.17-5.25,2.17Z"/><circle class="cls-2" cx="58.97" cy="58.93" r="45.14"/><rect class="cls-3" x="34.81" y="81.84" width="31.38" height="31.38"/><polygon class="cls-3" points="94.87 10.49 113.98 48.7 75.76 48.7 94.87 10.49"/><circle class="cls-3" cx="22.4" cy="22.4" r="18.42"/></g></g></g></svg>