<?xml version="1.0" encoding="UTF-8"?><svg id="Calque_2" xmlns="http://www.w3.org/2000/svg" viewBox="0 0 121.51 104.93"><defs><style>.cls-1{fill:#f05a2c;}.cls-2{fill:#3c616a;}.cls-3{fill:none;stroke:#3c616a;stroke-linecap:round;stroke-linejoin:round;stroke-width:7.87px;}</style></defs><g id="Content"><g id="Icons"><g><circle class="cls-2" cx="19.12" cy="18.98" r="6.98"/><circle class="cls-1" cx="60.77" cy="6.98" r="6.98"/><circle class="cls-2" cx="102.39" cy="18.98" r="6.98"/><path class="cls-3" d="M31.46,34.27H6.79c-1.58,0-2.86,1.28-2.86,2.86v27.39c0,3,2.74,5.42,6.12,5.42v30.09c0,.53,.43,.97,.97,.97H27.23c.53,0,.97-.43,.97-.97v-30.09c3.38,0,6.12-2.43,6.12-5.42v-27.39c0-1.58-1.28-2.86-2.86-2.86Z"/><path class="cls-3" d="M73.11,22.55h-24.67c-1.58,0-2.86,1.28-2.86,2.86v27.39c0,3,2.74,5.42,6.12,5.42v30.09c0,.53,.43,.97,.97,.97h16.21c.53,0,.97-.43,.97-.97v-30.09c3.38,0,6.12-2.43,6.12-5.42V25.41c0-1.58-1.28-2.86-2.86-2.86Z"/><path class="cls-3" d="M114.72,34.27h-24.67c-1.58,0-2.86,1.28-2.86,2.86v27.39c0,3,2.74,5.42,6.12,5.42v30.09c0,.53,.43,.97,.97,.97h16.21c.53,0,.97-.43,.97-.97v-30.09c3.38,0,6.12-2.43,6.12-5.42v-27.39c0-1.58-1.28-2.86-2.86-2.86Z"/></g></g></g></svg>