<?xml version="1.0" encoding="UTF-8"?><svg id="Calque_2" xmlns="http://www.w3.org/2000/svg" viewBox="0 0 96.3 118.84"><defs><style>.cls-1{fill:#f05a2c;}.cls-2{stroke-miterlimit:10;stroke-width:5.3px;}.cls-2,.cls-3{fill:none;stroke:#3c616a;stroke-linecap:round;}.cls-3{stroke-linejoin:round;stroke-width:8.84px;}</style></defs><g id="Content"><g id="Icons"><g><path class="cls-1" d="M48.15,43.31c-2.17,0-4.3-.87-5.84-2.42-1.53-1.54-2.42-3.67-2.42-5.84s.89-4.3,2.42-5.84c1.54-1.53,3.67-2.42,5.84-2.42s4.31,.89,5.84,2.42c1.53,1.54,2.42,3.67,2.42,5.84s-.89,4.31-2.42,5.84c-1.54,1.54-3.67,2.42-5.84,2.42Z"/><polygon class="cls-3" points="75.01 95.74 21.29 95.74 16.73 114.42 79.58 114.42 75.01 95.74"/><path class="cls-3" d="M16.73,4.42V40.92c0,17.35,14.07,31.42,31.42,31.42s31.42-14.07,31.42-31.42h0V4.42H16.73Z"/><path class="cls-2" d="M16.73,44.67c-7.77,0-14.08-6.3-14.08-14.08s6.3-14.08,14.08-14.08"/><path class="cls-2" d="M79.58,16.52c7.77,0,14.08,6.3,14.08,14.08,0,7.77-6.3,14.08-14.08,14.08"/><line class="cls-3" x1="48.15" y1="72.34" x2="48.15" y2="95.74"/></g></g></g></svg>