<?xml version="1.0" encoding="UTF-8"?><svg id="Calque_2" xmlns="http://www.w3.org/2000/svg" viewBox="0 0 95.52 117.82"><defs><style>.cls-1{fill:#f05a2c;}.cls-2{fill:#3c616a;}.cls-3{stroke-miterlimit:10;stroke-width:4.77px;}.cls-3,.cls-4{fill:none;stroke:#3c616a;stroke-linecap:round;}.cls-4{stroke-linejoin:round;stroke-width:7.95px;}</style></defs><g id="Content"><g id="Icons"><g><path class="cls-2" d="M22.96,97.4c-1.95,0-3.86-.78-5.25-2.17-1.37-1.39-2.17-3.3-2.17-5.25s.8-3.86,2.17-5.25c1.39-1.37,3.3-2.17,5.25-2.17s3.87,.8,5.25,2.17c1.37,1.39,2.17,3.3,2.17,5.25s-.8,3.87-2.17,5.25c-1.39,1.39-3.3,2.17-5.25,2.17Z"/><path class="cls-2" d="M33.64,81.4c-1.95,0-3.86-.78-5.25-2.17-1.37-1.39-2.17-3.3-2.17-5.25s.8-3.86,2.17-5.25c1.39-1.37,3.3-2.17,5.25-2.17s3.87,.8,5.25,2.17c1.37,1.39,2.17,3.3,2.17,5.25s-.8,3.87-2.17,5.25c-1.39,1.39-3.3,2.17-5.25,2.17Z"/><path class="cls-2" d="M43.78,101.53c-1.95,0-3.86-.78-5.25-2.17-1.37-1.39-2.17-3.3-2.17-5.25s.8-3.86,2.17-5.25c1.39-1.37,3.3-2.17,5.25-2.17s3.87,.8,5.25,2.17c1.37,1.39,2.17,3.3,2.17,5.25s-.8,3.87-2.17,5.25-3.3,2.17-5.25,2.17Z"/><circle class="cls-2" cx="71.61" cy="91.11" r="7.05"/><circle class="cls-2" cx="48.11" cy="61.61" r="7.05"/><circle class="cls-2" cx="66.81" cy="55.69" r="7.05"/><circle class="cls-1" cx="58.25" cy="77.8" r="7.05"/><circle class="cls-2" cx="28.29" cy="55.2" r="7.05"/><path class="cls-4" d="M65,36.36H30.51c-11.77-.32-21.31,9.22-21.31,20.99l-5.17,45.73c-.63,5.75,3.87,10.77,9.65,10.77H81.84c5.78,0,10.28-5.02,9.65-10.77l-5.17-45.73c0-11.77-9.54-21.31-21.31-20.99Z"/><path class="cls-4" d="M71.9,4.19l-7.98,15.85H31.6l-7.97-15.83c2.54,2.11,6.15,3.43,10.15,3.43s11.41-1.42,13.98-3.67h.02c2.56,2.25,9.83,3.67,13.97,3.67s7.62-1.33,10.17-3.45Z"/><line class="cls-3" x1="28.69" y1="28.18" x2="66.81" y2="28.18"/></g></g></g></svg>