<?xml version="1.0" encoding="UTF-8"?><svg id="Calque_2" xmlns="http://www.w3.org/2000/svg" xmlns:xlink="http://www.w3.org/1999/xlink" viewBox="0 0 109.07 109.11"><defs><style>.cls-1{clip-path:url(#clippath);}.cls-2{fill:#f05a2c;}.cls-3{fill:#3c616a;}.cls-4{stroke-linecap:round;stroke-width:4.87px;}.cls-4,.cls-5{fill:none;stroke:#3c616a;stroke-miterlimit:10;}.cls-5{stroke-width:8.11px;}</style><clipPath id="clippath"><rect class="cls-5" x="4.06" y="4.06" width="100.96" height="101" rx="10" ry="10"/></clipPath></defs><g id="Content"><g id="Icons"><g><path class="cls-2" d="M79.2,79.12c-1.33,0-2.63-.53-3.57-1.48-.94-.94-1.48-2.24-1.48-3.57s.54-2.63,1.48-3.57c.94-.94,2.25-1.48,3.57-1.48s2.64,.54,3.57,1.48c.94,.94,1.48,2.24,1.48,3.57s-.54,2.64-1.48,3.57-2.24,1.48-3.57,1.48Z"/><path class="cls-3" d="M64.43,79.12c-1.33,0-2.63-.53-3.57-1.48-.94-.94-1.48-2.24-1.48-3.57s.54-2.63,1.48-3.57c.94-.94,2.25-1.48,3.57-1.48s2.64,.54,3.57,1.48c.94,.94,1.48,2.24,1.48,3.57s-.54,2.64-1.48,3.57-2.24,1.48-3.57,1.48Z"/><g><g class="cls-1"><line class="cls-4" x1="4.06" y1="29.92" x2="105.01" y2="29.92"/></g><rect class="cls-5" x="4.06" y="4.06" width="100.96" height="101" rx="10" ry="10"/></g><rect class="cls-3" x="24.85" y="49.14" width="59.4" height="10.19" rx="5.1" ry="5.1"/><rect class="cls-3" x="25" y="68.97" width="29.54" height="10.19" rx="5.1" ry="5.1"/></g></g></g></svg>