<?xml version="1.0" encoding="UTF-8"?><svg id="Calque_2" xmlns="http://www.w3.org/2000/svg" viewBox="0 0 94.84 106.6"><defs><style>.cls-1{fill:#f05a2c;}.cls-2{stroke-width:7.08px;}.cls-2,.cls-3{fill:none;stroke:#3c616a;stroke-linecap:round;stroke-miterlimit:10;}.cls-3{stroke-width:4.25px;}</style></defs><g id="Content"><g id="Icons"><g><path class="cls-1" d="M32.18,49.01c-1.16,0-2.29-.47-3.12-1.29-.82-.82-1.29-1.96-1.29-3.12s.47-2.29,1.29-3.12c.82-.82,1.96-1.29,3.12-1.29s2.3,.47,3.12,1.29c.82,.82,1.29,1.96,1.29,3.12s-.47,2.3-1.29,3.12-1.96,1.29-3.12,1.29Z"/><path class="cls-1" d="M19.34,49.01c-1.16,0-2.29-.47-3.12-1.29-.82-.82-1.29-1.96-1.29-3.12s.47-2.29,1.29-3.12c.82-.82,1.96-1.29,3.12-1.29s2.3,.47,3.12,1.29c.82,.82,1.29,1.96,1.29,3.12s-.47,2.3-1.29,3.12c-.82,.82-1.96,1.29-3.12,1.29Z"/><path class="cls-2" d="M58.3,24.65h22.99c5.53,0,10.01,4.49,10.01,10.01V103.04H48.28V34.67c0-5.53,4.49-10.01,10.01-10.01Z"/><line class="cls-3" x1="69.79" y1="2.12" x2="69.79" y2="14.96"/><path class="cls-2" d="M13.57,59H48.28v44.06H3.54v-34.03c0-5.53,4.49-10.03,10.03-10.03Z"/><line class="cls-3" x1="60.56" y1="49.73" x2="78.89" y2="49.73"/><line class="cls-3" x1="60.56" y1="37.49" x2="78.89" y2="37.49"/><line class="cls-3" x1="60.56" y1="61.97" x2="78.89" y2="61.97"/><line class="cls-3" x1="15.22" y1="103.12" x2="15.22" y2="69.75"/><line class="cls-3" x1="25.91" y1="103.12" x2="25.91" y2="69.75"/><line class="cls-3" x1="36.6" y1="103.12" x2="36.6" y2="69.75"/><line class="cls-3" x1="60.56" y1="74.2" x2="78.89" y2="74.2"/><line class="cls-3" x1="60.56" y1="86.44" x2="78.89" y2="86.44"/></g></g></g></svg>