<?xml version="1.0" encoding="UTF-8"?><svg id="Calque_2" xmlns="http://www.w3.org/2000/svg" viewBox="0 0 114.79 110.03"><defs><style>.cls-1{fill:#f05a2c;}.cls-2{stroke-width:7.98px;}.cls-2,.cls-3{fill:none;stroke:#3c616a;stroke-linecap:round;stroke-linejoin:round;}.cls-3{stroke-width:4.79px;}</style></defs><g id="Content"><g id="Icons"><g><path class="cls-3" d="M39.47,55.64l9.48,9.48c1.54,1.54,2.41,3.64,2.41,5.82v36.7H29.71L2.39,76.71V34.62c0-3.53,2.86-6.39,6.39-6.39h1.63c3.53,0,6.39,2.86,6.39,6.39v28.55l11.93,11.93c1.68,1.68,4.39,1.68,6.07,0h0c1.68-1.68,1.68-4.39,0-6.07l-4.35-4.35c-2.51-2.51-2.49-6.6,.05-9.08h0c2.5-2.44,6.5-2.42,8.98,.05Z"/><path class="cls-3" d="M75.32,55.64l-9.48,9.48c-1.54,1.54-2.41,3.64-2.41,5.82v36.7s21.65,0,21.65,0l27.32-30.93V34.62c0-3.53-2.86-6.39-6.39-6.39h-1.63c-3.53,0-6.39,2.86-6.39,6.39v28.55s-11.93,11.93-11.93,11.93c-1.68,1.68-4.39,1.68-6.07,0h0c-1.68-1.68-1.68-4.39,0-6.07l4.35-4.35c2.51-2.51,2.49-6.6-.05-9.08h0c-2.5-2.44-6.5-2.42-8.98,.05Z"/><path class="cls-2" d="M71.63,3.99c-7.95,0-14.4,6.45-14.4,14.4h0c0-7.95-6.45-14.4-14.4-14.4s-14.4,6.45-14.4,14.4c0,5.33,4.18,9.46,7.19,12.47l21.61,21.61,21.61-21.61c3.01-3,7.19-7.14,7.19-12.47,0-7.95-6.45-14.4-14.4-14.4Z"/><path class="cls-1" d="M57.23,35.68c-1.96,0-3.88-.79-5.27-2.18-1.38-1.39-2.18-3.31-2.18-5.27s.8-3.88,2.18-5.27c1.39-1.38,3.31-2.18,5.27-2.18s3.89,.8,5.27,2.18c1.38,1.39,2.18,3.31,2.18,5.27s-.8,3.89-2.18,5.27c-1.39,1.39-3.31,2.18-5.27,2.18Z"/></g></g></g></svg>