<?xml version="1.0" encoding="UTF-8"?><svg id="Calque_2" xmlns="http://www.w3.org/2000/svg" viewBox="0 0 43.44 359.03"><defs><style>.cls-1{fill:#596a75;}</style></defs><g id="Content"><g><path class="cls-1" d="M40.98,331.97c.92,1.48,1.56,3.12,1.92,4.92,.36,1.8,.54,3.78,.54,5.94,0,2.52-.35,4.78-1.05,6.78-.7,2-1.88,3.7-3.54,5.1-1.66,1.4-3.88,2.47-6.66,3.21-2.78,.74-6.27,1.11-10.47,1.11s-7.69-.37-10.47-1.11c-2.78-.74-5-1.81-6.66-3.21-1.66-1.4-2.84-3.1-3.54-5.1-.7-2-1.05-4.26-1.05-6.78,0-2.16,.18-4.14,.54-5.94,.36-1.8,1-3.44,1.92-4.92l2.04,1.14c-.84,1.52-1.42,3.12-1.74,4.8-.32,1.68-.48,3.44-.48,5.28s.28,3.7,.84,5.34c.56,1.64,1.56,3.06,3,4.26,1.44,1.2,3.42,2.13,5.94,2.79,2.52,.66,5.74,.99,9.66,.99s7.14-.33,9.66-.99c2.52-.66,4.5-1.59,5.94-2.79,1.44-1.2,2.44-2.62,3-4.26,.56-1.64,.84-3.42,.84-5.34s-.16-3.6-.48-5.28c-.32-1.68-.9-3.28-1.74-4.8l2.04-1.14Z"/><path class="cls-1" d="M43.44,303.47c0,2.96-.44,5.47-1.32,7.53-.88,2.06-2.21,3.75-3.99,5.07-1.78,1.32-4.03,2.28-6.75,2.88-2.72,.6-5.94,.9-9.66,.9s-6.94-.3-9.66-.9c-2.72-.6-4.97-1.56-6.75-2.88-1.78-1.32-3.11-3.01-3.99-5.07-.88-2.06-1.32-4.57-1.32-7.53s.44-5.42,1.32-7.5c.88-2.08,2.21-3.78,3.99-5.1,1.78-1.32,4.03-2.28,6.75-2.88,2.72-.6,5.94-.9,9.66-.9s6.94,.3,9.66,.9c2.72,.6,4.97,1.56,6.75,2.88,1.78,1.32,3.11,3.02,3.99,5.1,.88,2.08,1.32,4.58,1.32,7.5Zm-2.28,0c0-2.88-.47-5.23-1.41-7.05-.94-1.82-2.26-3.24-3.96-4.26-1.7-1.02-3.74-1.71-6.12-2.07-2.38-.36-5.03-.54-7.95-.54s-5.57,.18-7.95,.54c-2.38,.36-4.42,1.05-6.12,2.07-1.7,1.02-3.02,2.44-3.96,4.26-.94,1.82-1.41,4.17-1.41,7.05s.47,5.23,1.41,7.05c.94,1.82,2.26,3.24,3.96,4.26,1.7,1.02,3.74,1.71,6.12,2.07,2.38,.36,5.03,.54,7.95,.54s5.57-.18,7.95-.54c2.38-.36,4.42-1.05,6.12-2.07,1.7-1.02,3.02-2.44,3.96-4.26,.94-1.82,1.41-4.17,1.41-7.05Z"/><path class="cls-1" d="M5.22,241.02l37.5,12.96v2.22l-37.5,12.96,37.5,2.64v2.58l-42-3.24v-3l37.86-13.08L.72,241.92v-2.88l41.88-3.24,.24,2.46-37.62,2.76Z"/><path class="cls-1" d="M5.22,189.6l37.5,12.96v2.22l-37.5,12.96,37.5,2.64v2.58L.72,219.72v-3l37.86-13.08L.72,190.5v-2.88l41.88-3.24,.24,2.46-37.62,2.76Z"/><path class="cls-1" d="M21.72,140.82c7.4,0,12.87,1.17,16.41,3.51s5.31,6.17,5.31,11.49-1.77,9.21-5.31,11.55-9.01,3.51-16.41,3.51H.72v-2.46H21.72c3.36,0,6.26-.22,8.7-.66,2.44-.44,4.46-1.16,6.06-2.16,1.6-1,2.79-2.3,3.57-3.9s1.17-3.56,1.17-5.88-.39-4.27-1.17-5.85c-.78-1.58-1.97-2.87-3.57-3.87-1.6-1-3.62-1.72-6.06-2.16-2.44-.44-5.34-.66-8.7-.66H.72v-2.46H21.72Z"/><path class="cls-1" d="M42.72,100.92L4.44,124.14H42.72v2.22H1.14l-.72-2.58,38.52-23.34H.72v-2.22H42.72v2.7Z"/><path class="cls-1" d="M42.72,83.46H.72v-2.46H42.72v2.46Z"/><path class="cls-1" d="M42.72,55.08H3.06v13.02H.72v-28.5H3.06v13.02H42.72v2.46Z"/><path class="cls-1" d="M42.72,16.08h-15.54L1.08,29.46l-.66-2.46L24.54,14.88,.72,2.76V0L27.18,13.62h15.54v2.46Z"/></g></g></svg>