<?xml version="1.0" encoding="UTF-8"?><svg id="Calque_2" xmlns="http://www.w3.org/2000/svg" viewBox="0 0 43.44 604.49"><defs><style>.cls-1{fill:#596a75;}</style></defs><g id="Learnings_Vision"><g><path class="cls-1" d="m42.72,604.49H.72v-2.46h39.72v-21h2.28v23.46Z"/><path class="cls-1" d="m42.72,568.55H.72v-22.8h2.34v20.34h16.14v-16.8l2.34.3v16.5h18.84v-20.34h2.34v22.8Z"/><path class="cls-1" d="m42.9,507.35l-11.16,3.6v17.88l10.98,3.54v2.58l-41.88-13.8-.3-2.52,42.06-13.86.3,2.58Zm-39,12.54l25.5,8.22v-16.38l-25.5,8.16Z"/><path class="cls-1" d="m43.02,468.59l-16.38,9.42v12.42h16.08v2.46H1.26c-.36-1.64-.66-3.34-.9-5.1-.24-1.76-.36-3.52-.36-5.28,0-2.04.22-4,.66-5.88s1.19-3.54,2.25-4.98c1.06-1.44,2.49-2.59,4.29-3.45,1.8-.86,4.04-1.29,6.72-1.29,1.84,0,3.44.23,4.8.69,1.36.46,2.52,1.08,3.48,1.86.96.78,1.74,1.7,2.34,2.76.6,1.06,1.06,2.19,1.38,3.39l16.5-9.54.6,2.52Zm-18.72,11.16c0-1.4-.18-2.73-.54-3.99s-.95-2.36-1.77-3.3c-.82-.94-1.89-1.69-3.21-2.25-1.32-.56-2.94-.84-4.86-.84-2.24,0-4.11.36-5.61,1.08-1.5.72-2.69,1.68-3.57,2.88-.88,1.2-1.5,2.58-1.86,4.14-.36,1.56-.54,3.2-.54,4.92,0,1.36.09,2.72.27,4.08.18,1.36.43,2.68.75,3.96h20.94v-10.68Z"/><path class="cls-1" d="m42.72,428.03l-38.28,23.22h38.28v2.22H1.14l-.72-2.58,38.52-23.34H.72v-2.22h42v2.7Z"/><path class="cls-1" d="m42.72,410.57H.72v-2.46h42v2.46Z"/><path class="cls-1" d="m42.72,367.91l-38.28,23.22h38.28v2.22H1.14l-.72-2.58,38.52-23.34H.72v-2.22h42v2.7Z"/><path class="cls-1" d="m40.8,320.09c1,2.12,1.69,4.35,2.07,6.69.38,2.34.57,4.83.57,7.47s-.34,5.13-1.02,7.23c-.68,2.1-1.85,3.88-3.51,5.34s-3.88,2.57-6.66,3.33-6.29,1.14-10.53,1.14c-3.96,0-7.32-.47-10.08-1.41-2.76-.94-5-2.2-6.72-3.78-1.72-1.58-2.97-3.41-3.75-5.49s-1.17-4.26-1.17-6.54.16-4.33.48-6.39c.32-2.06,1-3.97,2.04-5.73l2.04,1.14c-.92,1.64-1.53,3.33-1.83,5.07s-.45,3.57-.45,5.49c0,2.2.35,4.23,1.05,6.09.7,1.86,1.81,3.46,3.33,4.8,1.52,1.34,3.52,2.39,6,3.15s5.48,1.14,9,1.14c3.8,0,6.95-.29,9.45-.87,2.5-.58,4.49-1.47,5.97-2.67s2.53-2.72,3.15-4.56c.62-1.84.93-4.02.93-6.54,0-2.16-.16-4.24-.48-6.24-.32-2-.86-3.8-1.62-5.4h-14.34v12.36h-2.34v-14.82h18.42Z"/><path class="cls-1" d="m37.56,307.08c1.16-1.88,2.05-3.94,2.67-6.18.62-2.24.93-4.62.93-7.14,0-1.44-.16-2.81-.48-4.11-.32-1.3-.86-2.45-1.62-3.45-.76-1-1.75-1.8-2.97-2.4-1.22-.6-2.73-.9-4.53-.9-1.4,0-2.58.31-3.54.93s-1.78,1.46-2.46,2.52c-.68,1.06-1.26,2.3-1.74,3.72-.48,1.42-.96,2.91-1.44,4.47-.52,1.72-1.07,3.33-1.65,4.83-.58,1.5-1.3,2.81-2.16,3.93-.86,1.12-1.9,2-3.12,2.64-1.22.64-2.73.96-4.53.96-2,0-3.7-.34-5.1-1.02-1.4-.68-2.53-1.6-3.39-2.76-.86-1.16-1.48-2.49-1.86-3.99-.38-1.5-.57-3.09-.57-4.77,0-2.08.18-4.07.54-5.97.36-1.9,1-3.71,1.92-5.43l2.1.96c-.92,1.68-1.53,3.37-1.83,5.07-.3,1.7-.45,3.45-.45,5.25,0,1.44.14,2.78.42,4.02.28,1.24.76,2.33,1.44,3.27.68.94,1.57,1.67,2.67,2.19,1.1.52,2.45.78,4.05.78,1.44,0,2.65-.28,3.63-.84.98-.56,1.8-1.33,2.46-2.31.66-.98,1.23-2.12,1.71-3.42.48-1.3.94-2.69,1.38-4.17.52-1.72,1.07-3.37,1.65-4.95.58-1.58,1.29-2.99,2.13-4.23.84-1.24,1.88-2.23,3.12-2.97,1.24-.74,2.8-1.11,4.68-1.11,2.12,0,3.93.35,5.43,1.05,1.5.7,2.72,1.65,3.66,2.85.94,1.2,1.63,2.6,2.07,4.2.44,1.6.66,3.3.66,5.1,0,2.8-.32,5.44-.96,7.92-.64,2.48-1.56,4.66-2.76,6.54l-2.16-1.08Z"/><path class="cls-1" d="m42.72,237.18c0,4.32-.9,7.61-2.7,9.87s-4.6,3.39-8.4,3.39c-1.76,0-3.27-.26-4.53-.78-1.26-.52-2.3-1.2-3.12-2.04-.82-.84-1.44-1.8-1.86-2.88s-.69-2.16-.81-3.24c-.32,2.16-1.25,3.92-2.79,5.28-1.54,1.36-3.71,2.04-6.51,2.04-3.28,0-5.8-.77-7.56-2.31-1.76-1.54-2.98-3.49-3.66-5.85l2.22-.84c.6,1.88,1.61,3.44,3.03,4.68,1.42,1.24,3.43,1.86,6.03,1.86,1.76,0,3.18-.32,4.26-.96,1.08-.64,1.91-1.47,2.49-2.49.58-1.02.96-2.13,1.14-3.33.18-1.2.27-2.38.27-3.54v-10.02h-10.26l-.3-2.46h10.38l.36-7.02h2.16v7.02h20.16v13.62Zm-20.16-11.16v10.02c0,1.48.11,2.93.33,4.35.22,1.42.66,2.69,1.32,3.81.66,1.12,1.57,2.02,2.73,2.7,1.16.68,2.66,1.02,4.5,1.02s3.29-.28,4.47-.84c1.18-.56,2.1-1.39,2.76-2.49.66-1.1,1.12-2.48,1.38-4.14.26-1.66.39-3.59.39-5.79v-8.64h-17.88Z"/><path class="cls-1" d="m43.02,175.26L1.02,189.12l-.6-2.52,39.12-12.54L.42,161.52l.6-2.46,42,13.8v2.4Z"/><path class="cls-1" d="m42.72,147.18H.72v-2.46h42v2.46Z"/><path class="cls-1" d="m37.56,130.74c1.16-1.88,2.05-3.94,2.67-6.18.62-2.24.93-4.62.93-7.14,0-1.44-.16-2.81-.48-4.11-.32-1.3-.86-2.45-1.62-3.45-.76-1-1.75-1.8-2.97-2.4-1.22-.6-2.73-.9-4.53-.9-1.4,0-2.58.31-3.54.93s-1.78,1.46-2.46,2.52c-.68,1.06-1.26,2.3-1.74,3.72-.48,1.42-.96,2.91-1.44,4.47-.52,1.72-1.07,3.33-1.65,4.83-.58,1.5-1.3,2.81-2.16,3.93-.86,1.12-1.9,2-3.12,2.64-1.22.64-2.73.96-4.53.96-2,0-3.7-.34-5.1-1.02-1.4-.68-2.53-1.6-3.39-2.76-.86-1.16-1.48-2.49-1.86-3.99-.38-1.5-.57-3.09-.57-4.77,0-2.08.18-4.07.54-5.97.36-1.9,1-3.71,1.92-5.43l2.1.96c-.92,1.68-1.53,3.37-1.83,5.07-.3,1.7-.45,3.45-.45,5.25,0,1.44.14,2.78.42,4.02.28,1.24.76,2.33,1.44,3.27.68.94,1.57,1.67,2.67,2.19,1.1.52,2.45.78,4.05.78,1.44,0,2.65-.28,3.63-.84.98-.56,1.8-1.33,2.46-2.31.66-.98,1.23-2.12,1.71-3.42.48-1.3.94-2.69,1.38-4.17.52-1.72,1.07-3.37,1.65-4.95.58-1.58,1.29-2.99,2.13-4.23.84-1.24,1.88-2.23,3.12-2.97,1.24-.74,2.8-1.11,4.68-1.11,2.12,0,3.93.35,5.43,1.05,1.5.7,2.72,1.65,3.66,2.85.94,1.2,1.63,2.6,2.07,4.2.44,1.6.66,3.3.66,5.1,0,2.8-.32,5.44-.96,7.92-.64,2.48-1.56,4.66-2.76,6.54l-2.16-1.08Z"/><path class="cls-1" d="m42.72,91.32H.72v-2.46h42v2.46Z"/><path class="cls-1" d="m43.44,58.5c0,2.96-.44,5.47-1.32,7.53-.88,2.06-2.21,3.75-3.99,5.07-1.78,1.32-4.03,2.28-6.75,2.88-2.72.6-5.94.9-9.66.9s-6.94-.3-9.66-.9c-2.72-.6-4.97-1.56-6.75-2.88-1.78-1.32-3.11-3.01-3.99-5.07-.88-2.06-1.32-4.57-1.32-7.53s.44-5.42,1.32-7.5c.88-2.08,2.21-3.78,3.99-5.1,1.78-1.32,4.03-2.28,6.75-2.88,2.72-.6,5.94-.9,9.66-.9s6.94.3,9.66.9c2.72.6,4.97,1.56,6.75,2.88,1.78,1.32,3.11,3.02,3.99,5.1.88,2.08,1.32,4.58,1.32,7.5Zm-2.28,0c0-2.88-.47-5.23-1.41-7.05-.94-1.82-2.26-3.24-3.96-4.26-1.7-1.02-3.74-1.71-6.12-2.07-2.38-.36-5.03-.54-7.95-.54s-5.57.18-7.95.54c-2.38.36-4.42,1.05-6.12,2.07-1.7,1.02-3.02,2.44-3.96,4.26-.94,1.82-1.41,4.17-1.41,7.05s.47,5.23,1.41,7.05c.94,1.82,2.26,3.24,3.96,4.26,1.7,1.02,3.74,1.71,6.12,2.07,2.38.36,5.03.54,7.95.54s5.57-.18,7.95-.54c2.38-.36,4.42-1.05,6.12-2.07,1.7-1.02,3.02-2.44,3.96-4.26.94-1.82,1.41-4.17,1.41-7.05Z"/><path class="cls-1" d="m42.72,2.7L4.44,25.92h38.28v2.22H1.14l-.72-2.58L38.94,2.22H.72V0h42v2.7Z"/></g></g></svg>