<?xml version="1.0" encoding="UTF-8"?><svg id="Calque_2" xmlns="http://www.w3.org/2000/svg" viewBox="0 0 43.44 271.44"><defs><style>.cls-1{fill:#596a75;}</style></defs><g id="Support"><g><path class="cls-1" d="M37.56,270.36c1.16-1.88,2.05-3.94,2.67-6.18,.62-2.24,.93-4.62,.93-7.14,0-1.44-.16-2.81-.48-4.11-.32-1.3-.86-2.45-1.62-3.45-.76-1-1.75-1.8-2.97-2.4-1.22-.6-2.73-.9-4.53-.9-1.4,0-2.58,.31-3.54,.93s-1.78,1.46-2.46,2.52c-.68,1.06-1.26,2.3-1.74,3.72-.48,1.42-.96,2.91-1.44,4.47-.52,1.72-1.07,3.33-1.65,4.83-.58,1.5-1.3,2.81-2.16,3.93-.86,1.12-1.9,2-3.12,2.64-1.22,.64-2.73,.96-4.53,.96-2,0-3.7-.34-5.1-1.02-1.4-.68-2.53-1.6-3.39-2.76-.86-1.16-1.48-2.49-1.86-3.99-.38-1.5-.57-3.09-.57-4.77,0-2.08,.18-4.07,.54-5.97,.36-1.9,1-3.71,1.92-5.43l2.1,.96c-.92,1.68-1.53,3.37-1.83,5.07-.3,1.7-.45,3.45-.45,5.25,0,1.44,.14,2.78,.42,4.02,.28,1.24,.76,2.33,1.44,3.27,.68,.94,1.57,1.67,2.67,2.19,1.1,.52,2.45,.78,4.05,.78,1.44,0,2.65-.28,3.63-.84,.98-.56,1.8-1.33,2.46-2.31,.66-.98,1.23-2.12,1.71-3.42,.48-1.3,.94-2.69,1.38-4.17,.52-1.72,1.07-3.37,1.65-4.95,.58-1.58,1.29-2.99,2.13-4.23,.84-1.24,1.88-2.23,3.12-2.97,1.24-.74,2.8-1.11,4.68-1.11,2.12,0,3.93,.35,5.43,1.05,1.5,.7,2.72,1.65,3.66,2.85,.94,1.2,1.63,2.6,2.07,4.2,.44,1.6,.66,3.3,.66,5.1,0,2.8-.32,5.44-.96,7.92-.64,2.48-1.56,4.66-2.76,6.54l-2.16-1.08Z"/><path class="cls-1" d="M21.72,201.18c7.4,0,12.87,1.17,16.41,3.51s5.31,6.17,5.31,11.49-1.77,9.21-5.31,11.55-9.01,3.51-16.41,3.51H.72v-2.46H21.72c3.36,0,6.26-.22,8.7-.66,2.44-.44,4.46-1.16,6.06-2.16,1.6-1,2.79-2.3,3.57-3.9s1.17-3.56,1.17-5.88-.39-4.27-1.17-5.85c-.78-1.58-1.97-2.87-3.57-3.87-1.6-1-3.62-1.72-6.06-2.16-2.44-.44-5.34-.66-8.7-.66H.72v-2.46H21.72Z"/><path class="cls-1" d="M42.72,186.72H1.26c-.4-1.6-.71-3.25-.93-4.95-.22-1.7-.33-3.41-.33-5.13,0-2.2,.24-4.31,.72-6.33,.48-2.02,1.27-3.8,2.37-5.34,1.1-1.54,2.58-2.77,4.44-3.69,1.86-.92,4.17-1.38,6.93-1.38,2.6,0,4.77,.48,6.51,1.44s3.13,2.23,4.17,3.81c1.04,1.58,1.78,3.39,2.22,5.43,.44,2.04,.66,4.12,.66,6.24,0,1.28-.06,2.55-.18,3.81-.12,1.26-.3,2.47-.54,3.63h15.42v2.46Zm-17.76-2.46c.24-1.16,.43-2.38,.57-3.66,.14-1.28,.21-2.56,.21-3.84,0-1.84-.17-3.62-.51-5.34-.34-1.72-.94-3.25-1.8-4.59-.86-1.34-2.01-2.42-3.45-3.24-1.44-.82-3.26-1.23-5.46-1.23-2.32,0-4.26,.39-5.82,1.17-1.56,.78-2.81,1.81-3.75,3.09-.94,1.28-1.61,2.77-2.01,4.47-.4,1.7-.6,3.45-.6,5.25,0,1.36,.08,2.7,.24,4.02,.16,1.32,.4,2.62,.72,3.9H24.96Z"/><path class="cls-1" d="M42.72,148.32H1.26c-.4-1.6-.71-3.25-.93-4.95-.22-1.7-.33-3.41-.33-5.13,0-2.2,.24-4.31,.72-6.33,.48-2.02,1.27-3.8,2.37-5.34,1.1-1.54,2.58-2.77,4.44-3.69,1.86-.92,4.17-1.38,6.93-1.38,2.6,0,4.77,.48,6.51,1.44s3.13,2.23,4.17,3.81c1.04,1.58,1.78,3.39,2.22,5.43,.44,2.04,.66,4.12,.66,6.24,0,1.28-.06,2.55-.18,3.81-.12,1.26-.3,2.47-.54,3.63h15.42v2.46Zm-17.76-2.46c.24-1.16,.43-2.38,.57-3.66,.14-1.28,.21-2.56,.21-3.84,0-1.84-.17-3.62-.51-5.34-.34-1.72-.94-3.25-1.8-4.59-.86-1.34-2.01-2.42-3.45-3.24-1.44-.82-3.26-1.23-5.46-1.23-2.32,0-4.26,.39-5.82,1.17-1.56,.78-2.81,1.81-3.75,3.09-.94,1.28-1.61,2.77-2.01,4.47-.4,1.7-.6,3.45-.6,5.25,0,1.36,.08,2.7,.24,4.02,.16,1.32,.4,2.62,.72,3.9H24.96Z"/><path class="cls-1" d="M43.44,94.32c0,2.96-.44,5.47-1.32,7.53-.88,2.06-2.21,3.75-3.99,5.07-1.78,1.32-4.03,2.28-6.75,2.88-2.72,.6-5.94,.9-9.66,.9s-6.94-.3-9.66-.9c-2.72-.6-4.97-1.56-6.75-2.88-1.78-1.32-3.11-3.01-3.99-5.07-.88-2.06-1.32-4.57-1.32-7.53s.44-5.42,1.32-7.5c.88-2.08,2.21-3.78,3.99-5.1,1.78-1.32,4.03-2.28,6.75-2.88,2.72-.6,5.94-.9,9.66-.9s6.94,.3,9.66,.9c2.72,.6,4.97,1.56,6.75,2.88,1.78,1.32,3.11,3.02,3.99,5.1,.88,2.08,1.32,4.58,1.32,7.5Zm-2.28,0c0-2.88-.47-5.23-1.41-7.05-.94-1.82-2.26-3.24-3.96-4.26-1.7-1.02-3.74-1.71-6.12-2.07-2.38-.36-5.03-.54-7.95-.54s-5.57,.18-7.95,.54c-2.38,.36-4.42,1.05-6.12,2.07-1.7,1.02-3.02,2.44-3.96,4.26-.94,1.82-1.41,4.17-1.41,7.05s.47,5.23,1.41,7.05c.94,1.82,2.26,3.24,3.96,4.26,1.7,1.02,3.74,1.71,6.12,2.07,2.38,.36,5.03,.54,7.95,.54s5.57-.18,7.95-.54c2.38-.36,4.42-1.05,6.12-2.07,1.7-1.02,3.02-2.44,3.96-4.26,.94-1.82,1.41-4.17,1.41-7.05Z"/><path class="cls-1" d="M43.02,39.66l-16.38,9.42v12.42h16.08v2.46H1.26c-.36-1.64-.66-3.34-.9-5.1-.24-1.76-.36-3.52-.36-5.28,0-2.04,.22-4,.66-5.88s1.19-3.54,2.25-4.98c1.06-1.44,2.49-2.59,4.29-3.45,1.8-.86,4.04-1.29,6.72-1.29,1.84,0,3.44,.23,4.8,.69,1.36,.46,2.52,1.08,3.48,1.86,.96,.78,1.74,1.7,2.34,2.76,.6,1.06,1.06,2.19,1.38,3.39l16.5-9.54,.6,2.52Zm-18.72,11.16c0-1.4-.18-2.73-.54-3.99s-.95-2.36-1.77-3.3c-.82-.94-1.89-1.69-3.21-2.25-1.32-.56-2.94-.84-4.86-.84-2.24,0-4.11,.36-5.61,1.08-1.5,.72-2.69,1.68-3.57,2.88-.88,1.2-1.5,2.58-1.86,4.14-.36,1.56-.54,3.2-.54,4.92,0,1.36,.09,2.72,.27,4.08,.18,1.36,.43,2.68,.75,3.96H24.3v-10.68Z"/><path class="cls-1" d="M42.72,15.48H3.06v13.02H.72V0H3.06V13.02H42.72v2.46Z"/></g></g></svg>