<?xml version="1.0" encoding="UTF-8"?><svg id="Calque_2" xmlns="http://www.w3.org/2000/svg" viewBox="0 0 43.44 142.44"><defs><style>.cls-1{fill:#596a75;}</style></defs><g id="Content"><g><path class="cls-1" d="M42.72,129.42H3.06v13.02H.72v-28.5H3.06v13.02H42.72v2.46Z"/><path class="cls-1" d="M42.72,101.04H.72v-22.8H3.06v20.34H19.2v-16.8l2.34,.3v16.5h18.84v-20.34h2.34v22.8Z"/><path class="cls-1" d="M40.98,39.84c.92,1.48,1.56,3.12,1.92,4.92,.36,1.8,.54,3.78,.54,5.94,0,2.52-.35,4.78-1.05,6.78-.7,2-1.88,3.7-3.54,5.1-1.66,1.4-3.88,2.47-6.66,3.21-2.78,.74-6.27,1.11-10.47,1.11s-7.69-.37-10.47-1.11c-2.78-.74-5-1.81-6.66-3.21-1.66-1.4-2.84-3.1-3.54-5.1-.7-2-1.05-4.26-1.05-6.78,0-2.16,.18-4.14,.54-5.94,.36-1.8,1-3.44,1.92-4.92l2.04,1.14c-.84,1.52-1.42,3.12-1.74,4.8-.32,1.68-.48,3.44-.48,5.28s.28,3.7,.84,5.34c.56,1.64,1.56,3.06,3,4.26,1.44,1.2,3.42,2.13,5.94,2.79,2.52,.66,5.74,.99,9.66,.99s7.14-.33,9.66-.99c2.52-.66,4.5-1.59,5.94-2.79,1.44-1.2,2.44-2.62,3-4.26,.56-1.64,.84-3.42,.84-5.34s-.16-3.6-.48-5.28c-.32-1.68-.9-3.28-1.74-4.8l2.04-1.14Z"/><path class="cls-1" d="M42.72,2.46H21.66V24.48h21.06v2.46H.72v-2.46H19.32V2.46H.72V0H42.72V2.46Z"/></g></g></svg>