<?xml version="1.0" encoding="UTF-8"?><svg id="Calque_2" xmlns="http://www.w3.org/2000/svg" viewBox="0 0 487 709.41"><defs><style>.cls-1{fill:none;stroke:#15414c;stroke-miterlimit:10;stroke-width:2px;}</style></defs><g id="Content"><g><path class="cls-1" d="M481.97,374.95c-22.81-21.48-87.5-40.74-238.68-71.07C98.82,274.89,2.33,250.2,1,223.91V.19C5.69,23.96,70,45.36,238.27,79.16c150.82,30.3,244.86,54.43,247.73,81.09,0,0,0,217.37,0,221.64-.8-4.07-4.03-6.95-4.03-6.95"/><path class="cls-1" d="M481.97,702.27c-22.81-21.48-87.5-40.74-238.68-71.07C98.82,602.22,2.33,577.53,1,551.23v-223.71c4.69,23.77,69,45.17,237.27,78.97,150.82,30.3,244.86,54.43,247.73,81.09,0,0,0,217.37,0,221.64-.8-4.07-4.03-6.95-4.03-6.95"/><path class="cls-1" d="M5.03,538.61c22.81-21.48,87.5-40.74,238.68-71.07,144.47-28.98,240.96-53.67,242.28-79.97V163.86c-4.69,23.77-69,45.17-237.27,78.97C97.91,273.12,3.87,297.25,1,323.92c0,0,0,217.37,0,221.64,.8-4.07,4.03-6.95,4.03-6.95"/></g></g></svg>