<?xml version="1.0" encoding="UTF-8"?><svg id="Calque_2" xmlns="http://www.w3.org/2000/svg" viewBox="0 0 1135.62 1653.56"><defs><style>.cls-1{fill:#15414c;stroke-width:5px;}.cls-1,.cls-2{stroke:#15414c;stroke-miterlimit:10;}.cls-2{fill:none;stroke-width:5.22px;}.cls-3{opacity:.75;}</style></defs><g id="Content"><g class="cls-3"><path class="cls-2" d="M1123.62,873.96c-53.17-50.07-203.95-94.96-556.31-165.65C230.59,640.76,5.7,583.21,2.61,521.92V.51C13.55,55.9,163.43,105.78,555.62,184.57c351.51,70.61,570.71,126.86,577.39,189,0,0,0,506.64,0,516.58-1.87-9.48-9.4-16.19-9.4-16.19"/><path class="cls-2" d="M1123.62,1636.87c-53.17-50.07-203.95-94.96-556.31-165.65C230.59,1403.66,5.7,1346.11,2.61,1284.82V763.41c10.94,55.39,160.82,105.28,553.01,184.06,351.51,70.61,570.71,126.86,577.39,189,0,0,0,506.64,0,516.58-1.87-9.48-9.4-16.19-9.4-16.19"/><path class="cls-1" d="M12,1255.41c53.17-50.07,203.95-94.96,556.31-165.65,336.72-67.55,561.6-125.1,564.7-186.39V381.96c-10.94,55.39-160.82,105.28-553.01,184.06C228.49,636.63,9.29,692.87,2.61,755.02c0,0,0,506.64,0,516.58,1.87-9.48,9.4-16.19,9.4-16.19"/></g></g></svg>