<?xml version="1.0" encoding="UTF-8"?><svg id="Calque_2" xmlns="http://www.w3.org/2000/svg" xmlns:xlink="http://www.w3.org/1999/xlink" viewBox="0 0 460.55 1583.7"><defs><style>.cls-1{fill:none;}.cls-2{clip-path:url(#clippath);}.cls-3{fill:#133a44;}</style><clipPath id="clippath"><rect class="cls-1" width="460.55" height="1583.7"/></clipPath></defs><g id="Background"><g class="cls-2"><path class="cls-3" d="M78.29,120.58C-197.36-68.54-296.23-156.01-286.48-202.18L-457.39,198.63c-11.33,30.79,47.69,90.18,153.57,171.43-132.37-20.19-213.78-21.2-229.98,7.75,0,0-1.03,2.41-2.75,6.45l-170.91,400.81c-17.71,48.13,136.3,166.08,372.99,328.38C-86.77,1283.3,14.42,1367.23,38.88,1423.15c0,0,3.58,7.62,1.92,15.52,3.26-7.65,169.33-397.1,169.33-397.1,9.68-31.73-47.42-89.78-153.62-171.32,131.94,20.16,215.66,21.62,230.03-7.86l170.91-400.82c1.72-4.04,2.75-6.45,2.75-6.45,15.23-49.96-134.83-165.05-381.9-334.55Z"/></g></g></svg>