<?xml version="1.0" encoding="UTF-8"?><svg id="Calque_2" xmlns="http://www.w3.org/2000/svg" xmlns:xlink="http://www.w3.org/1999/xlink" viewBox="0 0 573.68 1644.19"><defs><style>.cls-1{fill:none;}.cls-2{clip-path:url(#clippath);}.cls-3{fill:#133a44;}</style><clipPath id="clippath"><rect class="cls-1" width="573.68" height="1644.19"/></clipPath></defs><g id="Background"><g class="cls-2"><path class="cls-3" d="M1087.16,326.17C743.8,90.61,620.65-18.35,632.79-75.86l-212.89,499.26c-14.11,38.35,59.4,112.33,191.3,213.54-164.88-25.15-266.29-26.41-286.47,9.66,0,0-1.28,3-3.43,8.03l-212.89,499.26c-22.06,59.95,169.78,206.88,464.61,409.04,308.53,211.55,434.57,316.11,465.05,385.75,0,0,4.47,9.5,2.39,19.34,4.06-9.53,210.92-494.65,210.92-494.65,12.05-39.53-59.07-111.83-191.36-213.41,164.35,25.11,268.63,26.94,286.53-9.79l212.89-499.27c2.14-5.03,3.42-8.03,3.42-8.03,18.97-62.23-167.95-205.59-475.7-416.72Z"/></g></g></svg>