<?xml version="1.0" encoding="UTF-8"?><svg id="Calque_2" xmlns="http://www.w3.org/2000/svg" viewBox="0 0 1135.22 1652.95"><defs><style>.cls-1{fill:#354f56;}.cls-1,.cls-2{stroke:#354f56;stroke-width:5px;}.cls-1,.cls-2,.cls-3{stroke-miterlimit:10;}.cls-2,.cls-3{fill:none;}.cls-3{stroke:#15414c;stroke-width:5.22px;}.cls-4{opacity:.75;}</style></defs><g id="Background"><g class="cls-4"><path class="cls-2" d="M1123.22,873.63c-53.15-50.05-203.88-94.93-556.11-165.59C230.51,640.51,5.7,582.98,2.61,521.71V.48C13.54,55.86,163.37,105.72,555.42,184.48c351.39,70.59,570.51,126.81,577.19,188.94,0,0,0,506.46,0,516.4-1.87-9.48-9.39-16.18-9.39-16.18"/><path class="cls-3" d="M1123.22,1636.26c-53.15-50.05-203.88-94.93-556.11-165.59C230.51,1403.14,5.7,1345.61,2.61,1284.34V763.11c10.93,55.37,160.76,105.24,552.81,183.99,351.39,70.59,570.51,126.81,577.19,188.94,0,0,0,506.46,0,516.4-1.87-9.48-9.39-16.18-9.39-16.18"/><path class="cls-1" d="M12,1254.95c53.15-50.05,203.88-94.93,556.11-165.59,336.6-67.53,561.4-125.06,564.5-186.33V381.8c-10.93,55.37-160.76,105.24-552.81,183.99C228.41,636.38,9.29,692.61,2.61,754.73c0,0,0,506.46,0,516.4,1.87-9.48,9.39-16.18,9.39-16.18"/></g></g></svg>