<?xml version="1.0" encoding="UTF-8"?><svg id="Calque_2" xmlns="http://www.w3.org/2000/svg" viewBox="0 0 1135 381.8"><defs><style>.cls-1{fill:#354f56;}</style></defs><g id="Content"><g><path class="cls-1" d="M5,13.82c5.91,10.18,16.51,20.03,32.02,29.82,22.09,13.93,54.2,27.82,98.17,42.45,85.58,28.48,218.91,60.53,419.62,100.84,200.33,40.24,329.13,70.34,417.62,97.58,102.83,31.66,154.38,60.79,157.56,89.04v7.98c.02-.07,.03-.15,.05-.22l4.95,.48h0v-8.65c-3.34-30.92-54.52-60.61-161.09-93.42-88.65-27.29-217.6-57.43-418.1-97.7-200.5-40.28-333.65-72.27-419.03-100.69C52.24,53.21,10.35,27.36,4.95,0L0,.48V381.8H5V13.82Z"/><path class="cls-1" d="M1130,381.54c-.02,.09-.04,.18-.06,.26h5.05l-4.95-.48c-.01,.07-.03,.15-.05,.22Z"/></g></g></svg>