<svg width="139" height="21" viewBox="0 0 139 21" fill="none" xmlns="http://www.w3.org/2000/svg">
<path d="M20.0562 15.5444V11.822L19.6338 11.5943L10.0271 16.873L0.905187 11.8615L0.907134 9.70302L10.0271 14.658L20.0562 9.20244V5.53652L19.6338 5.30881L10.0271 10.5875L1.28089 5.78116L10.0271 1.00493L17.0895 4.86092L17.619 4.57299V4.14392L10.0271 0L0 5.47442V6.01452L10.0271 11.4852L19.1491 6.50569V8.68868L10.0271 13.7002L0.422421 8.42334L0 8.65104V12.3715L10.0271 17.8271L19.1491 12.8646V15.0344L10.0271 20.0459L0.422421 14.7672L0 14.9949V15.5444L10.0271 21L20.0562 15.5444Z" fill="white"/>
<path fill-rule="evenodd" clip-rule="evenodd" d="M39.1382 1.10645V17.9588V17.9606H36.4538V16.7054C36.4538 16.6132 36.3934 16.5285 36.3019 16.4965C36.2124 16.4645 36.1092 16.4909 36.0469 16.5624C35.1125 17.637 33.6954 18.2523 32.1634 18.2523C30.5457 18.2523 29.0507 17.6257 27.9528 16.4871C26.853 15.3448 26.2456 13.7829 26.2456 12.091C26.2456 8.63777 28.8444 5.93161 32.1634 5.93161C33.7246 5.93161 35.1398 6.52252 36.0489 7.55192C36.1112 7.62155 36.2143 7.64789 36.3039 7.6159C36.3934 7.58391 36.4538 7.49922 36.4538 7.40701V1.10645H39.1382ZM28.9556 12.0932C28.9556 14.2273 30.6297 15.9003 32.7671 15.9003C34.9045 15.9003 36.5786 14.2273 36.5786 12.0932C36.5786 9.95915 34.9045 8.28615 32.7671 8.28615C30.6297 8.28615 28.9556 9.95915 28.9556 12.0932Z" fill="white"/>
<path fill-rule="evenodd" clip-rule="evenodd" d="M53.4737 6.22162V17.9552H50.8127V16.6812C50.8127 16.589 50.7523 16.5043 50.6608 16.4723C50.5713 16.4403 50.4681 16.4666 50.4058 16.54C49.4753 17.6259 48.0601 18.2488 46.5223 18.2488C43.2033 18.2488 40.6045 15.5426 40.6045 12.0894C40.6045 8.63609 43.2033 5.92993 46.5223 5.92993C48.1263 5.92993 49.5045 6.50203 50.4058 7.54271C50.4681 7.61422 50.5693 7.64057 50.6608 7.60858C50.7523 7.57658 50.8127 7.49378 50.8127 7.39969V6.22162H53.4737ZM43.3164 12.09C43.3164 14.2241 44.9905 15.8971 47.1279 15.8971C49.2653 15.8971 50.9394 14.2241 50.9394 12.09C50.9394 9.95595 49.2653 8.28295 47.1279 8.28295C44.9905 8.28295 43.3164 9.95595 43.3164 12.09Z" fill="white"/>
<path fill-rule="evenodd" clip-rule="evenodd" d="M76.2218 6.22162V17.9552H73.5607V16.6812C73.5607 16.589 73.5004 16.5043 73.4089 16.4723C73.3193 16.4403 73.2162 16.4685 73.1539 16.54C72.2234 17.6259 70.8082 18.2488 69.2703 18.2488C65.9513 18.2488 63.3525 15.5426 63.3525 12.0894C63.3525 8.63609 65.9513 5.92993 69.2703 5.92993C70.8744 5.92993 72.2526 6.50203 73.1539 7.54271C73.2162 7.61422 73.3174 7.64057 73.4089 7.60858C73.5004 7.57658 73.5607 7.49378 73.5607 7.39969V6.22162H76.2218ZM66.0645 12.09C66.0645 14.2241 67.7386 15.8971 69.876 15.8971C72.0134 15.8971 73.6875 14.2241 73.6875 12.09C73.6875 9.95595 72.0134 8.28295 69.876 8.28295C67.7386 8.28295 66.0645 9.95595 66.0645 12.09Z" fill="white"/>
<path fill-rule="evenodd" clip-rule="evenodd" d="M81.1778 16.5526C81.1505 16.5526 81.1233 16.5564 81.098 16.5658C81.0084 16.5959 80.9481 16.6806 80.95 16.7709V17.9546H78.2637L78.2695 1.10229H80.9539L80.9481 7.47437C80.9481 7.56847 81.0084 7.65315 81.0999 7.68514C81.1895 7.71713 81.2926 7.69079 81.3549 7.61928C82.2893 6.54472 83.7065 5.92934 85.2385 5.92934C86.8561 5.92934 88.3512 6.55601 89.4491 7.69455C90.5509 8.83686 91.1563 10.3988 91.1563 12.0906C91.1563 15.5439 88.5575 18.2501 85.2385 18.2501C83.6773 18.2501 82.2621 17.6592 81.353 16.6298C81.3082 16.5808 81.2459 16.5526 81.1778 16.5526ZM84.6328 8.28295C82.4954 8.28295 80.8213 9.95595 80.8213 12.09C80.8213 14.2241 82.4954 15.8971 84.6328 15.8971C86.7702 15.8971 88.4443 14.2241 88.4443 12.09C88.4443 9.95595 86.7702 8.28295 84.6328 8.28295Z" fill="white"/>
<path d="M98.883 8.62428C99.1341 8.62428 99.3697 8.64498 99.5332 8.68262V6.02351C99.4456 6.00281 99.2665 5.98022 99.0854 5.98022C97.6936 5.98022 96.4069 6.669 95.7275 7.77743C95.6749 7.864 95.5679 7.9054 95.4686 7.87905C95.3674 7.8527 95.2973 7.76426 95.2973 7.66452V6.22299H92.6362V17.9566H95.3206V12.7964C95.3226 10.2239 96.6872 8.62428 98.883 8.62428Z" fill="white"/>
<rect x="101.214" y="6.22241" width="2.71155" height="11.7336" fill="white"/>
<path d="M102.538 1.11816C101.631 1.11816 100.894 1.8314 100.894 2.70836C100.894 3.58532 101.631 4.29856 102.538 4.29856C103.446 4.29856 104.183 3.58532 104.183 2.70836C104.181 1.8314 103.444 1.11816 102.538 1.11816Z" fill="white"/>
<path d="M111.891 5.92993C108.169 5.92993 105.469 8.52129 105.469 12.0894C105.469 13.8245 106.101 15.394 107.252 16.5099C108.408 17.6315 110.047 18.2488 111.865 18.2488C113.37 18.2488 114.546 17.9608 116.755 16.3914L115.231 14.8369C114.145 15.5351 113.133 15.8738 112.142 15.8738C109.897 15.8738 108.204 14.2479 108.204 12.0912C108.204 9.93459 109.897 8.30864 112.142 8.30864C113.212 8.30864 114.205 8.64738 115.179 9.34556L116.882 7.78547C114.904 6.12188 113.088 5.92993 111.891 5.92993Z" fill="white"/>
<path d="M121.474 12.7836C121.517 12.7459 121.573 12.7252 121.63 12.7252H121.643C121.71 12.7309 121.768 12.761 121.809 12.808L126.103 17.955L129.407 17.9569L123.851 11.4606C123.775 11.3722 123.781 11.2423 123.864 11.1614L128.972 6.2233H125.698L121.299 10.4952C121.235 10.5592 121.135 10.578 121.048 10.5441C120.96 10.5084 120.906 10.4274 120.906 10.339L120.911 1.10645H118.221V17.9588H120.906V13.3877C120.906 13.3256 120.933 13.2653 120.98 13.2239L121.474 12.7836Z" fill="white"/>
<path d="M133.785 18.2503C135.986 18.2503 138.215 16.9631 138.215 14.5035C138.215 12.8982 137.176 11.7917 135.038 11.118L133.577 10.655C132.593 10.3389 132.117 9.88343 132.117 9.26618C132.117 8.56047 132.773 8.06741 133.711 8.06741C134.604 8.06741 135.399 8.6301 135.901 9.61244L138.058 8.49084C137.271 6.91193 135.609 5.93335 133.711 5.93335C131.305 5.93335 129.557 7.42757 129.557 9.48636C129.557 11.1123 130.563 12.2132 132.632 12.8474L134.122 13.3104C135.177 13.6322 135.607 14.0349 135.607 14.7011C135.607 15.6947 134.653 16.0466 133.837 16.0466C132.747 16.0466 131.786 15.3635 131.311 14.2607L129.136 15.3579C129.855 17.1419 131.632 18.2503 133.785 18.2503Z" fill="white"/>
<path d="M60.9136 18.1299C61.7604 18.1299 62.5293 18.0584 62.9517 17.9925V15.7493C62.5974 15.7944 61.9901 15.834 61.6047 15.834C60.5145 15.834 59.6814 15.6533 59.6814 13.3837V8.56046C59.6814 8.43813 59.7845 8.33839 59.9111 8.33839H62.5254L62.5235 6.22127L59.9091 6.22315C59.7826 6.22315 59.6794 6.12341 59.6794 6.00109V2.59863L57.0106 2.60051L57.0125 6.00109C57.0125 6.12341 56.9094 6.22315 56.7828 6.22315H54.9121L54.9141 8.34028L56.7828 8.33839C56.9094 8.33839 57.0125 8.43813 57.0125 8.56046V14.0255C57.0145 18.1299 59.8468 18.1299 60.9136 18.1299Z" fill="white"/>
</svg>
